<svg viewBox="0 0 330 200" xmlns="http://www.w3.org/2000/svg"><g><g><g><g><g><line x1="61.953125" y1="177" x2="56.953125" y2="177" style="visibility: inherit;" fill="rgb(0, 0, 0)" stroke="rgb(204, 204, 204)" stroke-width="1px"></line><line x1="61.953125" y1="159.3" x2="56.953125" y2="159.3" style="visibility: inherit;" fill="rgb(0, 0, 0)" stroke="rgb(204, 204, 204)" stroke-width="1px"></line><line x1="61.953125" y1="141.6" x2="56.953125" y2="141.6" style="visibility: inherit;" fill="rgb(0, 0, 0)" stroke="rgb(204, 204, 204)" stroke-width="1px"></line><line x1="61.953125" y1="123.89999999999999" x2="56.953125" y2="123.89999999999999" style="visibility: inherit;" fill="rgb(0, 0, 0)" stroke="rgb(204, 204, 204)" stroke-width="1px"></line><line x1="61.953125" y1="106.2" x2="56.953125" y2="106.2" style="visibility: inherit;" fill="rgb(0, 0, 0)" stroke="rgb(204, 204, 204)" stroke-width="1px"></line><line x1="61.953125" y1="88.49999999999999" x2="56.953125" y2="88.49999999999999" style="visibility: inherit;" fill="rgb(0, 0, 0)" stroke="rgb(204, 204, 204)" stroke-width="1px"></line><line x1="61.953125" y1="70.79999999999998" x2="56.953125" y2="70.79999999999998" style="visibility: inherit;" fill="rgb(0, 0, 0)" stroke="rgb(204, 204, 204)" stroke-width="1px"></line><line x1="61.953125" y1="53.10000000000001" x2="56.953125" y2="53.10000000000001" style="visibility: inherit;" fill="rgb(0, 0, 0)" stroke="rgb(204, 204, 204)" stroke-width="1px"></line><line x1="61.953125" y1="35.39999999999999" x2="56.953125" y2="35.39999999999999" style="visibility: inherit;" fill="rgb(0, 0, 0)" stroke="rgb(204, 204, 204)" stroke-width="1px"></line><line x1="61.953125" y1="17.699999999999996" x2="56.953125" y2="17.699999999999996" style="visibility: inherit;" fill="rgb(0, 0, 0)" stroke="rgb(204, 204, 204)" stroke-width="1px"></line><line x1="61.953125" y1="0" x2="56.953125" y2="0" style="visibility: inherit;" fill="rgb(0, 0, 0)" stroke="rgb(204, 204, 204)" stroke-width="1px"></line></g><g transform="translate(51.953125, 0)"><text x="0" y="177" dx="0em" dy="0.3em" style="text-anchor: end; visibility: hidden; font-family: Roboto, sans-serif; font-size: 12px; font-weight: 200;" fill="rgb(33, 33, 33)" stroke="none" stroke-width="1px">-5e-3</text><text x="0" y="159.3" dx="0em" dy="0.3em" style="text-anchor: end; visibility: inherit; font-family: Roboto, sans-serif; font-size: 12px; font-weight: 200;" fill="rgb(33, 33, 33)" stroke="none" stroke-width="1px">0</text><text x="0" y="141.6" dx="0em" dy="0.3em" style="text-anchor: end; visibility: hidden; font-family: Roboto, sans-serif; font-size: 12px; font-weight: 200;" fill="rgb(33, 33, 33)" stroke="none" stroke-width="1px">5e-3</text><text x="0" y="123.89999999999999" dx="0em" dy="0.3em" style="text-anchor: end; visibility: inherit; font-family: Roboto, sans-serif; font-size: 12px; font-weight: 200;" fill="rgb(33, 33, 33)" stroke="none" stroke-width="1px">0.01</text><text x="0" y="106.2" dx="0em" dy="0.3em" style="text-anchor: end; visibility: hidden; font-family: Roboto, sans-serif; font-size: 12px; font-weight: 200;" fill="rgb(33, 33, 33)" stroke="none" stroke-width="1px">0.015</text><text x="0" y="88.49999999999999" dx="0em" dy="0.3em" style="text-anchor: end; visibility: inherit; font-family: Roboto, sans-serif; font-size: 12px; font-weight: 200;" fill="rgb(33, 33, 33)" stroke="none" stroke-width="1px">0.02</text><text x="0" y="70.79999999999998" dx="0em" dy="0.3em" style="text-anchor: end; visibility: hidden; font-family: Roboto, sans-serif; font-size: 12px; font-weight: 200;" fill="rgb(33, 33, 33)" stroke="none" stroke-width="1px">0.025</text><text x="0" y="53.10000000000001" dx="0em" dy="0.3em" style="text-anchor: end; visibility: inherit; font-family: Roboto, sans-serif; font-size: 12px; font-weight: 200;" fill="rgb(33, 33, 33)" stroke="none" stroke-width="1px">0.03</text><text x="0" y="35.39999999999999" dx="0em" dy="0.3em" style="text-anchor: end; visibility: hidden; font-family: Roboto, sans-serif; font-size: 12px; font-weight: 200;" fill="rgb(33, 33, 33)" stroke="none" stroke-width="1px">0.035</text><text x="0" y="17.699999999999996" dx="0em" dy="0.3em" style="text-anchor: end; visibility: inherit; font-family: Roboto, sans-serif; font-size: 12px; font-weight: 200;" fill="rgb(33, 33, 33)" stroke="none" stroke-width="1px">0.04</text><text x="0" y="0" dx="0em" dy="0.3em" style="text-anchor: end; visibility: hidden; font-family: Roboto, sans-serif; font-size: 12px; font-weight: 200;" fill="rgb(33, 33, 33)" stroke="none" stroke-width="1px">0.045</text></g><line x1="61.953125" y1="0" x2="61.953125" y2="177" fill="rgb(0, 0, 0)" stroke="rgb(204, 204, 204)" stroke-width="1px"></line></g></g><g transform="translate(61, 0)" clip-path="url(#clip_0)"><clipPath id="clip_0"><rect width="268" height="177"></rect></clipPath><g><g><g><line x1="0" y1="0" x2="0" y2="177" fill="rgb(0, 0, 0)" stroke="rgb(66, 66, 66)" stroke-width="1px" opacity="0.25"></line><line x1="29.78298611111111" y1="0" x2="29.78298611111111" y2="177" fill="rgb(0, 0, 0)" stroke="rgb(66, 66, 66)" stroke-width="1px" opacity="0.25"></line><line x1="59.56597222222222" y1="0" x2="59.56597222222222" y2="177" fill="rgb(0, 0, 0)" stroke="rgb(66, 66, 66)" stroke-width="1px" opacity="0.25"></line><line x1="89.34895833333333" y1="0" x2="89.34895833333333" y2="177" fill="rgb(0, 0, 0)" stroke="rgb(66, 66, 66)" stroke-width="1px" opacity="0.25"></line><line x1="119.13194444444444" y1="0" x2="119.13194444444444" y2="177" fill="rgb(0, 0, 0)" stroke="rgb(66, 66, 66)" stroke-width="1px" opacity="0.25"></line><line x1="148.91493055555557" y1="0" x2="148.91493055555557" y2="177" fill="rgb(0, 0, 0)" stroke="rgb(66, 66, 66)" stroke-width="1px" opacity="0.25"></line><line x1="178.69791666666666" y1="0" x2="178.69791666666666" y2="177" fill="rgb(0, 0, 0)" stroke="rgb(66, 66, 66)" stroke-width="1px" opacity="0.25"></line><line x1="208.48090277777777" y1="0" x2="208.48090277777777" y2="177" fill="rgb(0, 0, 0)" stroke="rgb(66, 66, 66)" stroke-width="1px" opacity="0.25"></line><line x1="238.26388888888889" y1="0" x2="238.26388888888889" y2="177" fill="rgb(0, 0, 0)" stroke="rgb(66, 66, 66)" stroke-width="1px" opacity="0.25"></line><line x1="268.046875" y1="0" x2="268.046875" y2="177" fill="rgb(0, 0, 0)" stroke="rgb(66, 66, 66)" stroke-width="1px" opacity="0.25"></line></g><g><line x1="0" y1="177" x2="268.046875" y2="177" fill="rgb(0, 0, 0)" stroke="rgb(66, 66, 66)" stroke-width="1px" opacity="0.25"></line><line x1="0" y1="159.3" x2="268.046875" y2="159.3" fill="rgb(0, 0, 0)" stroke="rgb(66, 66, 66)" stroke-width="1px" opacity="0.25"></line><line x1="0" y1="141.6" x2="268.046875" y2="141.6" fill="rgb(0, 0, 0)" stroke="rgb(66, 66, 66)" stroke-width="1px" opacity="0.25"></line><line x1="0" y1="123.89999999999999" x2="268.046875" y2="123.89999999999999" fill="rgb(0, 0, 0)" stroke="rgb(66, 66, 66)" stroke-width="1px" opacity="0.25"></line><line x1="0" y1="106.2" x2="268.046875" y2="106.2" fill="rgb(0, 0, 0)" stroke="rgb(66, 66, 66)" stroke-width="1px" opacity="0.25"></line><line x1="0" y1="88.49999999999999" x2="268.046875" y2="88.49999999999999" fill="rgb(0, 0, 0)" stroke="rgb(66, 66, 66)" stroke-width="1px" opacity="0.25"></line><line x1="0" y1="70.79999999999998" x2="268.046875" y2="70.79999999999998" fill="rgb(0, 0, 0)" stroke="rgb(66, 66, 66)" stroke-width="1px" opacity="0.25"></line><line x1="0" y1="53.10000000000001" x2="268.046875" y2="53.10000000000001" fill="rgb(0, 0, 0)" stroke="rgb(66, 66, 66)" stroke-width="1px" opacity="0.25"></line><line x1="0" y1="35.39999999999999" x2="268.046875" y2="35.39999999999999" fill="rgb(0, 0, 0)" stroke="rgb(66, 66, 66)" stroke-width="1px" opacity="0.25"></line><line x1="0" y1="17.699999999999996" x2="268.046875" y2="17.699999999999996" fill="rgb(0, 0, 0)" stroke="rgb(66, 66, 66)" stroke-width="1px" opacity="0.25"></line><line x1="0" y1="0" x2="268.046875" y2="0" fill="rgb(0, 0, 0)" stroke="rgb(66, 66, 66)" stroke-width="1px" opacity="0.25"></line></g></g></g><g><g><line x1="0" y1="159.3" x2="268.046875" y2="159.3" fill="rgb(0, 0, 0)" stroke="rgb(153, 153, 153)" stroke-width="1.5px"></line></g></g><g><g><line x1="29.78298611111111" y1="0" x2="29.78298611111111" y2="177" fill="rgb(0, 0, 0)" stroke="rgb(153, 153, 153)" stroke-width="1.5px"></line></g></g><g><g><g><g><g><path stroke="rgb(255, 112, 67)" stroke-width="2px" d="M30.378645833333334,107.38111902326344L30.974305555555553,104.88769054067352L31.569965277777776,102.3057106708705L32.165625,99.63573978083463L32.76128472222222,96.87856111647602L33.356944444444444,94.03516887227087L33.95260416666667,91.10675973963122L34.54826388888889,88.09472373590003L35.14392361111111,85.00062738967442L35.739583333333336,81.82620936422498L36.33524305555556,78.5733574696395L36.930902777777774,75.24409862902444L37.526562500000004,71.840581882776L38.12222222222222,68.36506232773901L38.71788194444444,64.81988574876374L39.313541666666666,61.207470546216676L39.90920138888889,57.53029117186602L40.50486111111111,53.790866137058245L41.10052083333333,49.99174265471394L41.69618055555556,46.135478946641136L42.29184027777777,42.782162334520166L42.8875,39.85874746744963L43.48315972222222,37.30499031084564L44.07881944444445,35.0708029156388L44.674479166666664,33.114235203147544L45.27013888888889,31.399927651176796L45.86579861111111,29.89789738678226L46.46145833333333,28.582586672467844L47.057118055555556,27.43211246485907L47.65277777777778,26.427647426084164L48.2484375,25.55294186041116L48.844097222222224,24.793913040654555L49.43975694444444,24.13832485005907L50.03541666666667,23.575510426347872L50.631076388888886,23.096152722259635L51.226736111111116,22.69208684897989L51.82239583333333,22.35614923436489L52.41805555555556,22.082041818294464L53.01371527777778,21.864213807583177L53.609375,21.69776638603807L54.20503472222222,21.578372586648072L54.800694444444446,21.502204231373007L55.39635416666667,21.4658660389077L55.99201388888889,21.466345624807435L56.587673611111114,21.50096734640182L57.18333333333334,21.56735357215664L57.77899305555555,21.663383844113465L58.374652777777776,21.787170435554103L58.9703125,21.937027118577955L59.56597222222222,22.11144737098124L60.161631944444444,22.309085245270186L60.75729166666667,22.528731473408993L61.35295138888889,22.769302253655184L61.948611111111106,23.02982515534152L62.544270833333336,23.309425253711808L63.13993055555555,23.6073114450228L63.73559027777778,23.92277279515219L64.33125,24.25516545004857L64.92690972222222,24.60390383247265L65.52256944444444,24.96845706371327L66.11822916666667,25.34834156363292L66.71388888888889,25.743113059632332L67.30954861111111,26.15236936024525L67.90520833333333,26.575737313221822L68.50086805555556,27.012875297748206L69.09652777777778,27.463465575629137L69.6921875,27.927214530787072L70.28784722222223,28.403845830773744L70.88350694444443,28.893101385303016L71.47916666666667,29.394743617399197L72.0748263888889,29.90854196744077L72.67048611111112,30.434283430273105L73.26614583333333,30.971762204543563L73.86180555555555,31.52078033263538L74.45746527777779,32.081152507100455L75.05312500000001,32.65269624971777L75.64878472222222,33.235235844918805L76.24444444444444,33.82860444098156L76.84010416666668,34.432634636494576L77.43576388888889,35.0471655986135L78.03142361111111,35.672038129436686L78.62708333333333,36.30709731664483L79.22274305555555,36.952190666761865L79.81840277777778,37.60716643819948L80.4140625,38.27187497496265L81.00972222222222,38.94616566401449L81.60538194444445,39.62989268502918L82.20104166666665,40.32290603325051L82.79670138888889,41.02505902542713L83.39236111111111,41.73620512440693L83.98802083333334,42.456197925671205L84.58368055555555,43.18488902850426L85.17934027777778,43.92213319036676L85.775,44.6677816407291L86.37065972222223,45.421685282431056L86.96631944444444,46.183696139230044L87.56197916666666,46.95366441506102L88.1576388888889,47.73144080668834L88.75329861111112,48.516872218896026L89.34895833333333,49.30980852121706L89.94461805555555,50.11009588181979L90.54027777777777,50.91758210327119L91.13593750000001,51.73211292079388L91.73159722222222,52.55353151871503L92.32725694444444,53.381681626278414L92.92291666666667,54.2164081655181L93.5185763888889,55.057550774386044L94.11423611111111,55.9049521336018L94.70989583333333,56.758451291736556L95.30555555555556,57.61788617091652L95.90121527777777,58.4830965099036L96.496875,59.35391943687396L97.09253472222223,60.23019045462863L97.68819444444445,61.111745731422154L98.28385416666666,61.99841779683222L98.87951388888888,62.89004369223222L99.47517361111112,63.78645390524537L100.07083333333334,64.68748153761837L100.66649305555555,65.59295708696197L101.26215277777777,66.50271154770262L101.8578125,67.41657353594492L102.45347222222223,68.33437307176285L103.04913194444444,69.25593860696891L103.64479166666666,70.18109719303523L104.24045138888889,71.1096760421024L104.83611111111112,72.04150250988299L105.43177083333333,72.97640337485242L106.02743055555555,73.91420207795902L106.62309027777778,74.85472260747586L107.21875,75.79779155709976L107.81440972222222,76.74323079189766L108.41006944444445,77.6908657151856L109.00572916666667,78.6405178346528L109.60138888888889,79.59201011796708L110.1970486111111,80.54516613106208L110.79270833333334,81.49980715202565L111.38836805555556,82.45575523806215L111.98402777777778,83.41283032002335L112.57968749999999,84.37085536868334L113.17534722222223,85.32965183629244L113.77100694444445,86.28903981907982L114.36666666666667,87.24884031896445L114.96232638888888,88.20887444113025L115.5579861111111,89.16896408852428L116.15364583333334,90.12893046544393L116.74930555555555,91.08859274123905L117.34496527777777,92.04777109019324L117.940625,93.00628870060395L118.53628472222222,93.96396580802971L119.13194444444444,94.92062424443763L119.72760416666667,95.87608373973086L120.32326388888889,96.83016743817166L120.91892361111111,97.78269729985398L121.51458333333333,98.73349563848015L122.11024305555556,99.68238473076309L122.70590277777778,100.62918752592093L123.3015625,101.57372686818998L123.89722222222221,102.51582797742573L124.49288194444445,103.45531396171808L125.08854166666667,104.3920092182502L125.6842013888889,105.32573964813453L126.2798611111111,106.25633143719513L126.87552083333333,107.18361137827205L127.47118055555556,108.10740433690755L128.06684027777777,109.02753910183064L128.6625,109.9438451430463L129.25815972222222,110.85615077510849L129.85381944444444,111.76428469182002L130.44947916666666,112.66807733671925L131.04513888888889,113.56736247969124L131.6407986111111,114.4619694529556L132.23645833333333,115.35173420888856L132.83211805555555,116.23648873420854L133.42777777777778,117.11606817686298L134.0234375,117.99030944947833L134.61909722222222,118.85904962947436L135.21475694444445,119.72212523589894L135.81041666666667,120.57937511130513L136.40607638888886,121.43064123143559L137.00173611111111,122.27576237294326L137.59739583333334,123.11458327485349L138.19305555555556,123.94694553419752L138.78871527777778,124.77269358646802L139.384375,125.59167510743654L139.98003472222223,126.40373625686438L140.57569444444445,127.20872625029519L141.17135416666665,128.00649403357252L141.76701388888887,128.79689042829594L142.3626736111111,129.57976987133023L142.95833333333334,130.35498438371022L143.55399305555557,131.12238964977993L144.1496527777778,131.88184356691912L144.7453125,132.6332045976833L145.34097222222223,133.37633118018042L145.93663194444443,134.11108472920085L146.53229166666665,134.83732949409563L147.12795138888887,135.5549283750485L147.7236111111111,136.2637494172313L148.31927083333335,136.96365855772962L148.91493055555557,137.6545256717527L149.5105902777778,138.33622274018916L150.10625000000002,139.00862150770078L150.7019097222222,139.6715975648122L151.29756944444443,140.32502632054843L151.89322916666666,140.96878549121962L152.48888888888888,141.60275652918205L153.0845486111111,142.22681946073516L153.68020833333335,142.8408595648874L154.27586805555558,143.44476090247986L154.87152777777777,144.0384112088759L155.4671875,144.62170035429685L156.06284722222222,145.19451923347611L156.65850694444444,145.75675947965325L157.25416666666666,146.3083181478998L157.84982638888889,146.84909228444573L158.4454861111111,147.37897963315808L159.04114583333333,147.8978825295157L159.63680555555555,148.40570352887642L160.23246527777778,148.90234776412322L160.828125,149.38772289034796L161.42378472222222,149.86173837401705L162.01944444444445,150.324305166867L162.61510416666667,150.77533788405762L163.2107638888889,151.21475176643813L163.80642361111111,151.6424656121124L164.4020833333333,152.05839888235238L164.99774305555556,152.46247370314148L165.59340277777778,152.85461557220592L166.1890625,153.23475077140046L166.78472222222223,153.6028085096445L167.38038194444445,153.95872100658804L167.97604166666667,154.30242010580605L168.5717013888889,154.63384265062956L169.1673611111111,154.95292730342402L169.76302083333331,155.25961340289308L170.35868055555557,155.5538449705715L170.9543402777778,155.835566152949L171.55,156.10472391999153L172.14565972222223,156.36126954890892L172.74131944444446,156.6051541119788L173.33697916666665,148.37826865773582L173.93263888888887,141.08087791031798L174.5282986111111,134.6135647403946L175.12395833333332,128.88754824040805L175.71961805555554,123.82354212118035L176.3152777777778,119.35074302094286L176.91093750000002,115.40592283210353L177.50659722222224,111.93261532691908L178.10225694444443,108.88039334188382L178.69791666666666,106.20422400892177L179.29357638888888,103.86389086024292L179.8892361111111,101.82347917904532L180.48489583333333,100.05091359556123L181.08055555555555,98.51755009905526L181.6762152777778,97.19780535474443L182.27187500000002,96.06883344466755L182.86753472222222,95.11023155301967L183.46319444444444,94.3037750265581L184.05885416666666,93.63318995546966L184.65451388888889,93.0839395050949L185.2501736111111,92.64304016548472L185.84583333333333,92.29889695672183L186.44149305555555,92.04115273960919L187.0371527777778,91.86055576671292L187.6328125,91.7488442275746L188.22847222222222,91.69863468119296L188.82413194444445,91.70333583135209L189.41979166666667,91.75705600626935L190.0154513888889,91.85453253197738L190.61111111111111,91.99106584062335L191.20677083333334,92.16245498491824L191.80243055555553,92.36494781340028L192.39809027777775,92.5951901271505L192.99375,92.85018450993593L193.58940972222223,93.12725426906067L194.18506944444445,93.42400417921813L194.78072916666667,93.7382953042095L195.3763888888889,94.06821475187833L195.97204861111112,94.41205219293074L196.56770833333331,94.7682774811764L197.16336805555554,95.13552349053452L197.75902777777776,95.5125651442187L198.3546875,95.89830915419131L198.95034722222223,96.29177498103846L199.54600694444446,96.69208700306346L200.14166666666668,97.09845835136213L200.7373263888889,97.51018564647025L201.3329861111111,97.92664006499359L201.92864583333332,98.34725512891195L202.52430555555554,98.77152567888609L203.11996527777777,99.19899707996234L203.715625,99.62926052099617L204.31128472222224,100.06195093363557L204.90694444444446,100.49673843141213L205.50260416666669,100.93332595634503L206.09826388888888,101.37144929395646L206.6939236111111,101.81086685645599L207.28958333333333,102.25136361147936L207.88524305555555,102.692743301929L208.48090277777777,103.13482890638494L209.0765625,103.57746305025185L209.67222222222225,104.02049920098794L210.26788194444447,104.46380685779971L210.86354166666666,104.90726701411408L211.45920138888889,105.3507702221639L212.0548611111111,105.79421909785958L212.65052083333333,106.23752244401268L213.24618055555555,106.68059635216936L213.84184027777778,107.12336695037945L214.4375,107.56576333226239L215.0331597222222,108.00772217842022L215.62881944444445,108.44918341696709L216.22447916666667,108.89009163987693L216.8201388888889,109.3303970150162L217.41579861111111,109.77005045632684L218.01145833333334,110.20900812995913L218.60711805555556,110.64722771738784L219.20277777777778,111.08466931157182L219.79843749999998,111.52129762828969L220.3940972222222,111.95707622000263L220.98975694444445,112.39197253905849L221.58541666666667,112.8259536399739L222.1810763888889,113.25898939689941L222.77673611111112,113.69105184915246L223.37239583333334,114.12211285294616L223.96805555555557,114.5521462175798L224.56371527777776,114.98112573262667L225.15937499999998,115.40902552281118L225.7550347222222,115.83582248151227L226.35069444444446,116.26149138855448L226.94635416666668,116.6860111333867L227.5420138888889,117.10935898385674L228.13767361111113,117.53151146525539L228.73333333333335,117.95244937849914L229.32899305555554,118.37215099284376L229.92465277777777,118.79059443336996L230.5203125,119.20776087130764L231.1159722222222,119.6236303176678L231.71163194444443,120.03818174738599L232.30729166666669,120.45139673784597L232.9029513888889,120.8632549572215L233.4986111111111,121.27374036578988L234.09427083333333,121.68283087921871L234.68993055555555,122.09050748173192L235.28559027777777,122.49675425054056L235.88125,122.90155238063137L236.47690972222222,123.30488402082841L237.07256944444444,123.70672899683511L237.6682291666667,124.10707140960297L238.26388888888889,124.50589353361792L238.8595486111111,124.90317671786497L239.45520833333333,125.29890465975419L240.05086805555555,125.69305997894178L240.64652777777778,126.08562397988345L241.2421875,126.47658102575728L241.83784722222222,126.86591291968489L242.43350694444445,127.25360341185386L243.02916666666667,127.63963658011632L243.6248263888889,128.02399362003138L244.22048611111111,128.4066598558316L244.81614583333334,128.78761847800982L245.41180555555556,129.16685147716194L246.00746527777778,129.5443440055725L246.603125,129.92007962933428L247.19878472222223,130.29404226190258L247.79444444444442,130.66621418671266" style="fill: none;" fill="none"></path></g><g><path stroke="rgb(204, 51, 17)" stroke-width="2px" d="M30.378645833333334,107.38111902326344L30.974305555555553,104.88769054067352L31.569965277777776,102.3057106708705L32.165625,99.63573978083463L32.76128472222222,96.87856111647602L33.356944444444444,94.03516887227087L33.95260416666667,91.10675973963122L34.54826388888889,88.09472373590003L35.14392361111111,85.00062738967442L35.739583333333336,81.82620936422498L36.33524305555556,78.5733574696395L36.930902777777774,75.24409862902444L37.526562500000004,71.840581882776L38.12222222222222,68.36506232773901L38.71788194444444,64.81988574876374L39.313541666666666,61.207470546216676L39.90920138888889,57.53029117186602L40.50486111111111,53.790866137058245L41.10052083333333,49.99174265471394L41.69618055555556,46.135478946641136L42.29184027777777,42.782162334520166L42.8875,39.85874746744963L43.48315972222222,37.30499031084564L44.07881944444445,35.0708029156388L44.674479166666664,33.114235203147544L45.27013888888889,31.399927651176796L45.86579861111111,29.89789738678226L46.46145833333333,28.582586672467844L47.057118055555556,27.43211246485907L47.65277777777778,26.427647426084164L48.2484375,25.55294186041116L48.844097222222224,24.793913040654555L49.43975694444444,24.13832485005907L50.03541666666667,23.575510426347872L50.631076388888886,23.096152722259635L51.226736111111116,22.69208684897989L51.82239583333333,22.35614923436489L52.41805555555556,22.082041818294464L53.01371527777778,21.864213807583177L53.609375,21.69776638603807L54.20503472222222,21.578372586648072L54.800694444444446,21.502204231373007L55.39635416666667,21.4658660389077L55.99201388888889,21.466345624807435L56.587673611111114,21.50096734640182L57.18333333333334,21.56735357215664L57.77899305555555,21.663383844113465L58.374652777777776,21.787170435554103L58.9703125,21.937027118577955L59.56597222222222,22.11144737098124L60.161631944444444,22.309085245270186L60.75729166666667,22.528731473408993L61.35295138888889,22.769302253655184L61.948611111111106,23.02982515534152L62.544270833333336,23.309425253711808L63.13993055555555,23.6073114450228L63.73559027777778,23.92277279515219L64.33125,24.25516545004857L64.92690972222222,24.60390383247265L65.52256944444444,24.96845706371327L66.11822916666667,25.34834156363292L66.71388888888889,25.743113059632332L67.30954861111111,26.15236936024525L67.90520833333333,26.575737313221822L68.50086805555556,27.012875297748206L69.09652777777778,27.463465575629137L69.6921875,27.927214530787072L70.28784722222223,28.403845830773744L70.88350694444443,28.893101385303016L71.47916666666667,29.394743617399197L72.0748263888889,29.90854196744077L72.67048611111112,30.434283430273105L73.26614583333333,30.971762204543563L73.86180555555555,31.52078033263538L74.45746527777779,32.081152507100455L75.05312500000001,32.65269624971777L75.64878472222222,33.235235844918805L76.24444444444444,33.82860444098156L76.84010416666668,34.432634636494576L77.43576388888889,35.0471655986135L78.03142361111111,35.672038129436686L78.62708333333333,36.30709731664483L79.22274305555555,36.952190666761865L79.81840277777778,37.60716643819948L80.4140625,38.27187497496265L81.00972222222222,38.94616566401449L81.60538194444445,39.62989268502918L82.20104166666665,40.32290603325051L82.79670138888889,41.02505902542713L83.39236111111111,41.73620512440693L83.98802083333334,42.456197925671205L84.58368055555555,43.18488902850426L85.17934027777778,43.92213319036676L85.775,44.6677816407291L86.37065972222223,45.421685282431056L86.96631944444444,46.183696139230044L87.56197916666666,46.95366441506102L88.1576388888889,47.73144080668834L88.75329861111112,48.516872218896026L89.34895833333333,49.30980852121706L89.94461805555555,50.11009588181979L90.54027777777777,50.91758210327119L91.13593750000001,51.73211292079388L91.73159722222222,52.55353151871503L92.32725694444444,53.381681626278414L92.92291666666667,54.2164081655181L93.5185763888889,55.057550774386044L94.11423611111111,55.9049521336018L94.70989583333333,56.758451291736556L95.30555555555556,57.61788617091652L95.90121527777777,58.4830965099036L96.496875,59.35391943687396L97.09253472222223,60.23019045462863L97.68819444444445,61.111745731422154L98.28385416666666,61.99841779683222L98.87951388888888,62.89004369223222L99.47517361111112,63.78645390524537L100.07083333333334,64.68748153761837L100.66649305555555,65.59295708696197L101.26215277777777,66.50271154770262L101.8578125,67.41657353594492L102.45347222222223,68.33437307176285L103.04913194444444,69.25593860696891L103.64479166666666,70.18109719303523L104.24045138888889,71.1096760421024L104.83611111111112,72.04150250988299L105.43177083333333,72.97640337485242L106.02743055555555,73.91420207795902L106.62309027777778,74.85472260747586L107.21875,75.79779155709976L107.81440972222222,76.74323079189766L108.41006944444445,77.6908657151856L109.00572916666667,78.6405178346528L109.60138888888889,79.59201011796708L110.1970486111111,80.54516613106208L110.79270833333334,81.49980715202565L111.38836805555556,82.45575523806215L111.98402777777778,83.41283032002335L112.57968749999999,84.37085536868334L113.17534722222223,85.32965183629244L113.77100694444445,86.28903981907982L114.36666666666667,87.24884031896445L114.96232638888888,88.20887444113025L115.5579861111111,89.16896408852428L116.15364583333334,90.12893046544393L116.74930555555555,91.08859274123905L117.34496527777777,92.04777109019324L117.940625,93.00628870060395L118.53628472222222,93.96396580802971L119.13194444444444,94.92062424443763L119.72760416666667,95.87608373973086L120.32326388888889,96.83016743817166L120.91892361111111,97.78269729985398L121.51458333333333,98.73349563848015L122.11024305555556,99.68238473076309L122.70590277777778,100.62918752592093L123.3015625,101.57372686818998L123.89722222222221,102.51582797742573L124.49288194444445,103.45531396171808L125.08854166666667,104.3920092182502L125.6842013888889,105.32573964813453L126.2798611111111,106.25633143719513L126.87552083333333,107.18361137827205L127.47118055555556,108.10740433690755L128.06684027777777,109.02753910183064L128.6625,109.9438451430463L129.25815972222222,110.85615077510849L129.85381944444444,111.76428469182002L130.44947916666666,112.66807733671925L131.04513888888889,113.56736247969124L131.6407986111111,114.4619694529556L132.23645833333333,115.35173420888856L132.83211805555555,116.23648873420854L133.42777777777778,117.11606817686298L134.0234375,117.99030944947833L134.61909722222222,118.85904962947436L135.21475694444445,119.72212523589894L135.81041666666667,120.57937511130513L136.40607638888886,121.43064123143559L137.00173611111111,122.27576237294326L137.59739583333334,123.11458327485349L138.19305555555556,123.94694553419752L138.78871527777778,124.77269358646802L139.384375,125.59167510743654L139.98003472222223,126.40373625686438L140.57569444444445,127.20872625029519L141.17135416666665,128.00649403357252L141.76701388888887,128.79689042829594L142.3626736111111,129.57976987133023L142.95833333333334,130.35498438371022L143.55399305555557,131.12238964977993L144.1496527777778,131.88184356691912L144.7453125,132.6332045976833L145.34097222222223,133.37633118018042L145.93663194444443,134.11108472920085L146.53229166666665,134.83732949409563L147.12795138888887,135.5549283750485L147.7236111111111,136.2637494172313L148.31927083333335,136.96365855772962L148.91493055555557,137.6545256717527L149.5105902777778,138.33622274018916L150.10625000000002,139.00862150770078L150.7019097222222,139.6715975648122L151.29756944444443,140.32502632054843L151.89322916666666,140.96878549121962L152.48888888888888,141.60275652918205L153.0845486111111,142.22681946073516L153.68020833333335,142.8408595648874L154.27586805555558,143.44476090247986L154.87152777777777,144.0384112088759L155.4671875,144.62170035429685L156.06284722222222,145.19451923347611L156.65850694444444,145.75675947965325L157.25416666666666,146.3083181478998L157.84982638888889,146.84909228444573L158.4454861111111,147.37897963315808L159.04114583333333,147.8978825295157L159.63680555555555,148.40570352887642L160.23246527777778,148.90234776412322L160.828125,149.38772289034796L161.42378472222222,149.86173837401705L162.01944444444445,150.324305166867L162.61510416666667,150.77533788405762L163.2107638888889,151.21475176643813L163.80642361111111,151.6424656121124L164.4020833333333,152.05839888235238L164.99774305555556,152.46247370314148L165.59340277777778,152.85461557220592L166.1890625,153.23475077140046L166.78472222222223,153.6028085096445L167.38038194444445,153.95872100658804L167.97604166666667,154.30242010580605L168.5717013888889,154.63384265062956L169.1673611111111,154.95292730342402L169.76302083333331,155.25961340289308L170.35868055555557,155.5538449705715L170.9543402777778,155.835566152949L171.55,156.10472391999153L172.14565972222223,156.36126954890892L172.74131944444446,156.6051541119788L173.33697916666665,156.83633257182325L173.93263888888887,157.05476154343444L174.5282986111111,157.2604004760728L175.12395833333332,157.45321090353033L175.71961805555554,157.63315711953763L176.3152777777778,157.80020498055347L176.91093750000002,157.95432354510274L177.50659722222224,158.09548427951776L178.10225694444443,158.22366080004468L178.69791666666666,158.33882909443994" style="fill: none;" fill="none"></path></g><g><path stroke="rgb(51, 187, 238)" stroke-width="2px" d="M30.378645833333334,111.80612139701842L30.974305555555553,111.65025185625261L31.569965277777776,111.48884785131084L32.165625,111.32194376915811L32.76128472222222,111.14958753446294L33.356944444444444,110.9718423163802L33.95260416666667,110.78878277110931L34.54826388888889,110.60049504893256L35.14392361111111,110.40707792602936L35.739583333333336,110.20863934677003L36.33524305555556,110.00529798109842L36.930902777777774,109.7971804775559L37.526562500000004,109.58442113602757L38.12222222222222,109.36716045369226L38.71788194444444,109.14554550793062L39.313541666666666,108.91972703499674L39.90920138888889,108.68986028792698L40.50486111111111,108.45610266374528L41.10052083333333,108.21861286264426L41.69618055555556,107.97755124537112L42.29184027777777,107.76817313953714L42.8875,107.58636036045299L43.48315972222222,107.42873057145341L44.07881944444445,107.2924850471154L44.674479166666664,107.17529072417928L45.27013888888889,107.07519077382146L45.86579861111111,106.99053389060371L46.46145833333333,106.91992082121932L47.057118055555556,106.86215907857002L47.65277777777778,106.81622765951964L48.2484375,106.78124998909303L48.844097222222224,106.75646980536501L49.43975694444444,106.74123315214582L50.03541666666667,106.73497177513241L50.631076388888886,106.73719145897937L51.226736111111116,106.74745984702862L51.82239583333333,106.76539832203756L52.41805555555556,106.79067520585987L53.01371527777778,106.82299754083185L53.609375,106.86210618874573L54.20503472222222,106.90777202867474L54.800694444444446,106.95979202135068L55.39635416666667,107.01798370276448L55.99201388888889,107.08218465253417L56.587673611111114,107.15224925754279L57.18333333333334,107.22804660697273L57.77899305555555,107.30945725249025L58.374652777777776,107.39637320084104L58.9703125,107.48869652342235L59.56597222222222,107.5863370836363L60.161631944444444,107.6892119504504L60.75729166666667,107.79724418639847L61.35295138888889,107.91036284329915L61.948611111111106,108.02850084933368L62.544270833333336,108.15159631661959L63.13993055555555,108.27958982799721L63.73559027777778,108.412425910805L64.33125,108.55005047094525L64.92690972222222,108.69241239388131L65.52256944444444,108.83946215130455L66.11822916666667,108.99115232668792L66.71388888888889,109.14743561516994L67.30954861111111,109.30826692423915L67.90520833333333,109.47360171993174L68.50086805555556,109.64339596415836L69.09652777777778,109.81760641278213L69.6921875,109.99618947075857L70.28784722222223,110.17910264133327L70.88350694444443,110.36630299697165L71.47916666666667,110.55774863790549L72.0748263888889,110.7533968186379L72.67048611111112,110.95320474564575L73.26614583333333,111.15712993685398L73.86180555555555,111.3651287784597L74.45746527777779,111.57715841201659L75.05312500000001,111.79317524387888L75.64878472222222,112.0131350256326L76.24444444444444,112.23699398433637L76.84010416666668,112.46470736199107L77.43576388888889,112.69622987541008L78.03142361111111,112.93151577397738L78.62708333333333,113.1705192439539L79.22274305555555,113.41319371104169L79.81840277777778,113.65949227591965L80.4140625,113.90936739749989L81.00972222222222,114.1627709628035L81.60538194444445,114.41965434928258L82.20104166666665,114.67996812761659L82.79670138888889,114.94366320737407L83.39236111111111,115.21068903775229L83.98802083333334,115.48099517582483L84.58368055555555,115.75453021744943L85.17934027777778,116.03124331196425L85.775,116.31108163420656L86.37065972222223,116.5939920075288L86.96631944444444,116.87992164753081L87.56197916666666,117.16881635675209L88.1576388888889,117.46062244022907L88.75329861111112,117.75528418277327L89.34895833333333,118.05274688772774L89.94461805555555,118.35295429896337L90.54027777777777,118.65585053194745L91.13593750000001,118.96137897599004L91.73159722222222,119.26948201946782L92.32725694444444,119.58010186273172L92.92291666666667,119.89318089123779L93.5185763888889,120.20865989212058L94.11423611111111,120.52648069479785L94.70989583333333,120.84658288471678L95.30555555555556,121.1689072185425L95.90121527777777,121.49339338238293L96.496875,121.81998045924766L97.09253472222223,122.14860769924229L97.68819444444445,122.47921379626995L98.28385416666666,122.81173624211665L98.87951388888888,123.1461142773111L99.47517361111112,123.48228447089024L100.07083333333334,123.8201841812324L100.66649305555555,124.15975041336802L101.26215277777777,124.50091985685269L101.8578125,124.84362821404855L102.45347222222223,125.18781242240793L103.04913194444444,125.53340770023283L103.64479166666666,125.88034984726838L104.24045138888889,126.22857341869447L104.83611111111112,126.57801432769666L105.43177083333333,126.92860723082545L106.02743055555555,127.28028636801882L106.62309027777778,127.63298560720638L107.21875,127.98664024797077L107.81440972222222,128.34118334071698L108.41006944444445,128.69654963140235L109.00572916666667,129.0526718524651L109.60138888888889,129.40948393680185L110.1970486111111,129.766919478267L110.79270833333334,130.12491176796303L111.38836805555556,130.4833938266468L111.98402777777778,130.84229843366694L112.57968749999999,131.20155921110322L113.17534722222223,131.56110894615398L113.77100694444445,131.9208807387753L114.36666666666667,132.28080690992377L114.96232638888888,132.6408206723642L115.5579861111111,133.00085497695284L116.15364583333334,133.36084306981587L116.74930555555555,133.7207172260779L117.34496527777777,134.08040955929602L117.940625,134.4398541553494L118.53628472222222,134.79898351012343L119.13194444444444,135.1577308162404L119.72760416666667,135.5160284774457L120.32326388888889,135.87381030961842L120.91892361111111,136.23100927307675L121.51458333333333,136.5875587988074L122.11024305555556,136.94339238533937L122.70590277777778,137.29844359151832L123.3015625,137.6526460300543L123.89722222222221,138.00593406729223L124.49288194444445,138.35824150789162L125.08854166666667,138.70950236046068L125.6842013888889,139.05965134488451L126.2798611111111,139.40862346345259L126.87552083333333,139.75635344149288L127.47118055555556,140.1027759333904L128.06684027777777,140.44782641209483L128.6625,140.79144125791748L129.25815972222222,141.13355589761258L129.85381944444444,141.4741061410903L130.44947916666666,141.81302849318593L131.04513888888889,142.1502604320696L131.6407986111111,142.48573818850147L132.23645833333333,142.8194000542023L132.83211805555555,143.15118298643353L133.42777777777778,143.48102530834066L134.0234375,143.8088658572714L134.61909722222222,144.13464348879796L135.21475694444445,144.45829689838428L135.81041666666667,144.77976560862493L136.40607638888886,145.09899032170048L137.00173611111111,145.41591076475527L137.59739583333334,145.73046852816555L138.19305555555556,146.04260439680934L138.78871527777778,146.35225993551188L139.384375,146.65937802293232L139.98003472222223,146.96390103534358L140.57569444444445,147.26577231145293L141.17135416666665,147.5649352556975L141.76701388888887,147.86133386036045L142.3626736111111,148.1549136127793L142.95833333333334,148.44561904239364L143.55399305555557,148.73339602803003L144.1496527777778,149.01819130075123L144.7453125,149.29995164713424L145.34097222222223,149.57862407971356L145.93663194444443,149.8541566947195L146.53229166666665,150.12649851202715L147.12795138888887,150.39559809754815L147.7236111111111,150.66140599297788L148.31927083333335,150.92387194683042L148.91493055555557,151.1829471159071L149.5105902777778,151.4385835177478L150.10625000000002,151.69073310071153L150.7019097222222,151.93934916244447L151.29756944444443,152.18438492672811L151.89322916666666,152.42579460968193L152.48888888888888,152.6635337104452L153.0845486111111,152.8975573305413L153.68020833333335,153.12782237711644L154.27586805555558,153.3542853413314L154.87152777777777,153.57690419489552L155.4671875,153.79563761430674L156.06284722222222,154.01044468496036L156.65850694444444,154.22128479125323L157.25416666666666,154.42811928227871L157.84982638888889,154.6309095639162L158.4454861111111,154.82961731323374L159.04114583333333,155.02420592668017L159.63680555555555,155.21463879275854L160.23246527777778,155.40088037322315L160.828125,155.58289604414603L161.42378472222222,155.76065184374957L162.01944444444445,155.9341143795086L162.61510416666667,156.10325164915625L163.2107638888889,156.26803185567505L163.80642361111111,156.42842455387398L164.4020833333333,156.5843995246115L164.99774305555556,156.73592757740445L165.59340277777778,156.88298078210389L166.1890625,157.02553149621946L166.78472222222223,157.16355314991193L167.38038194444445,157.2970203406747L167.97604166666667,157.4259075068186L168.5717013888889,157.55019096739926L169.1673611111111,157.66984771228599L169.76302083333331,157.7848549996662L170.35868055555557,157.8951918431284L170.9543402777778,158.0008372887494L171.55,158.10177145338125L172.14565972222223,158.19797606600312L172.74131944444446,158.28943277943097L173.33697916666665,158.37612470390565L173.93263888888887,158.45803556904187L174.5282986111111,158.53515017016858L175.12395833333332,158.60745408135952L175.71961805555554,158.67493391316094L176.3152777777778,158.737576861669L176.91093750000002,158.79537132402112L177.50659722222224,158.84830659996064L178.10225694444443,158.89637279566736L178.69791666666666,158.93956090653094" style="fill: none;" fill="none"></path></g></g></g></g><g opacity="0.2"><g><g><g><path stroke="rgb(255, 112, 67)" stroke-width="2px" d="M30.378645833333334,107.38111902326344L30.974305555555553,102.6610589057207L31.569965277777776,97.94100538194178L32.165625,93.22094526439903L32.76128472222222,88.50088514685629L33.356944444444444,83.78082502931355L33.95260416666667,79.0607649117708L34.54826388888889,74.34071138799189L35.14392361111111,69.62064467668532L35.739583333333336,64.90059115290642L36.33524305555556,60.18053103536368L36.930902777777774,55.460470917820935L37.526562500000004,50.74041080027819L38.12222222222222,46.02035068273545L38.71788194444444,41.30029715895653L39.313541666666666,36.58024363517762L39.90920138888889,31.860176923871045L40.50486111111111,27.140110212564473L41.10052083333333,22.420056688785557L41.69618055555556,17.700003165006642L42.29184027777777,17.70659692883492L42.8875,17.726417782902722L43.48315972222222,17.759439352154736L44.07881944444445,17.805661636590962L44.674479166666664,17.865058261156086L45.27013888888889,17.937642413377766L45.86579861111111,18.023387718200688L46.46145833333333,18.12226780056954L47.057118055555556,18.23430903553963L47.65277777777778,18.359432297945027L48.2484375,18.497663962841038L48.844097222222224,18.648938092589383L49.43975694444444,18.81325468719006L50.03541666666667,18.990560996532444L50.631076388888886,19.180857020616536L51.226736111111116,19.384063634276394L51.82239583333333,19.600167649984364L52.41805555555556,19.82914269268513L53.01371527777778,20.070922824740414L53.609375,20.325455296039586L54.20503472222222,20.592713731527333L54.800694444444446,20.872658568620686L55.39635416666667,21.165210682153706L55.99201388888889,21.470317322015767L56.587673611111114,21.78792573809624L57.18333333333334,22.11799636781216L57.77899305555555,22.46043689846993L58.374652777777776,22.815207767486577L58.9703125,23.182229849696164L59.56597222222222,23.561437207460408L60.161631944444444,23.952777090668683L60.75729166666667,24.356143999099736L61.35295138888889,24.771471995115284L61.948611111111106,25.198695141077046L62.544270833333336,25.63773431181908L63.13993055555555,26.088484007120137L63.73559027777778,26.550891476869587L64.33125,27.024864408373837L64.92690972222222,27.510297301411633L65.52256944444444,28.007111030817036L66.11822916666667,28.51521328389645L66.71388888888889,29.034485372900967L67.30954861111111,29.56487454771996L67.90520833333333,30.106248933076863L68.50086805555556,30.658529403805737L69.09652777777778,31.221597272157673L69.6921875,31.795360225439076L70.28784722222223,32.37968638837338L70.88350694444443,32.97447026073933L71.47916666666667,33.57964590489865L72.0748263888889,34.195041882991795L72.67048611111112,34.82059225738049L73.26614583333333,35.45615196526051L73.86180555555555,36.10158913135529L74.45746527777779,36.75682463049889L75.05312500000001,37.42170021235943L75.64878472222222,38.09609718918801L76.24444444444444,38.77992324829102L76.84010416666668,39.473006951808934L77.43576388888889,40.1752427995205L78.03142361111111,40.88648572862149L78.62708333333333,41.606617051362996L79.22274305555555,42.33550489246846L79.81840277777778,43.07300418913365L80.4140625,43.818983066082005L81.00972222222222,44.57328327298165L81.60538194444445,45.335799309611325L82.20104166666665,46.106346550583844L82.79670138888889,46.884806308150296L83.39236111111111,47.67103351950646L83.98802083333334,48.46488312184811L84.58368055555555,49.266190271079545L85.17934027777778,50.07483627945185L85.775,50.89064311534167L86.37065972222223,51.71345912218094L86.96631944444444,52.543145830929284L87.56197916666666,53.37953839749098L88.1576388888889,54.22249175906182L88.75329861111112,55.0718212902546L89.34895833333333,55.927401709556584L89.94461805555555,56.789048391580586L90.54027777777777,57.65662286728621L91.13593750000001,58.52995369881392L91.73159722222222,59.40886285454035L92.32725694444444,60.29319867789746L92.92291666666667,61.18281610608101L93.5185763888889,62.07751073241234L94.11423611111111,62.97715068161488L94.70989583333333,63.881544734537606L95.30555555555556,64.79052145332098L95.90121527777777,65.70393577516079L96.496875,66.62160307466982L97.09253472222223,67.54334532022474L97.68819444444445,68.46900426149367L98.28385416666666,69.39838208556174L98.87951388888888,70.33135351091622L99.47517361111112,71.26769434958695L100.07083333333334,72.2072595387697L100.66649305555555,73.14985785931347L101.26215277777777,74.09532446712254L101.8578125,75.04346814304589L102.45347222222223,75.99413063675163L103.04913194444444,76.9471273228526L103.64479166666666,77.90227357596157L104.24045138888889,78.85939795821903L104.83611111111112,79.81832903176544L105.43177083333333,80.77888876497744L106.02743055555555,81.74087275117634L106.62309027777778,82.70410955250262L107.21875,83.66844751238821L107.81440972222222,84.6336690366268L108.41006944444445,85.59962906241415L109.00572916666667,86.56611658930777L109.60138888888889,87.53296677321194L110.1970486111111,88.50000817626713L110.79270833333334,89.46704298555849L111.38836805555556,90.43389976322649L111.98402777777778,91.40038069635628L112.57968749999999,92.3663341283798L113.17534722222223,93.33156884014605L113.77100694444445,94.29589361250399L114.36666666666667,95.25913700759409L114.96232638888888,96.221120993793L115.5579861111111,97.18167413324116L116.15364583333334,98.1406118005514L116.74930555555555,99.09773618280886L117.34496527777777,100.05287584215401L117.940625,101.0058791220188L118.53628472222222,101.95654161572455L119.13194444444444,102.90469847917555L119.72760416666667,103.85015189945696L120.32326388888889,104.79275351688264L120.91892361111111,105.73231540918349L121.51458333333333,106.66866284161804L122.11024305555556,107.60161778256295L122.70590277777778,108.53100879415868L123.3015625,109.45665784478186L123.89722222222221,110.37840998098252L124.49288194444445,111.29607068672775L125.08854166666667,112.20947511792181L125.6842013888889,113.11846172735093L126.2798611111111,114.02285907715557L126.87552083333333,114.92249902635811L127.47118055555556,115.81719035580753L128.06684027777777,116.70679459646342L128.6625,117.5911469042301L129.25815972222222,118.47006595060228L129.85381944444444,119.34338359460233L130.44947916666666,120.2109448827803L131.04513888888889,121.07261134609578L131.6407986111111,121.9281752809882L132.23645833333333,122.77752789035438L132.83211805555555,123.62046806439756L133.42777777777778,124.45685733407734L134.0234375,125.2865473397076L134.61909722222222,126.10937653407453L135.21475694444445,126.92517677620052L135.81041666666667,127.73380630016325L136.40607638888886,128.53513323068617L137.00173611111111,129.32896964550017L137.59739583333334,130.11521004438399L138.19305555555556,130.89366980195044L138.78871527777778,131.66421704292296L139.384375,132.4267264857888L139.98003472222223,133.18103163801132L140.57569444444445,133.92700721807776L141.17135416666665,134.66449992097913L141.76701388888887,135.3933762229979L142.3626736111111,136.11352073326705L142.95833333333334,136.824765310809L143.55399305555557,137.5269962131977L144.1496527777778,138.22008980736135L144.7453125,138.90390927270053L145.34097222222223,139.57831284329293L145.93663194444443,140.24318677671252L146.53229166666665,140.8984189789742L147.12795138888887,141.54386109039186L147.7236111111111,142.1794240951538L148.31927083333335,142.80495633669196L148.91493055555557,143.4203605569899L149.5105902777778,144.02552631050347L150.10625000000002,144.62032337039707L150.7019097222222,145.20465942397712L151.29756944444443,145.7784083655104L151.89322916666666,146.34146716743706L152.48888888888888,146.8937484623864L153.0845486111111,147.43512037508188L153.68020833333335,147.9655120225623L154.27586805555558,148.48479729909448L154.87152777777777,148.99289460685102L155.4671875,149.48971163313837L156.06284722222222,149.97514782305808L156.65850694444444,150.44910097327084L157.25416666666666,150.91151338834317L157.84982638888889,151.36228204071523L158.4454861111111,151.80131049659104L159.04114583333333,152.22853941209615L159.63680555555555,152.64387317765505L160.23246527777778,153.04723843764515L160.828125,153.43856389699505L161.42378472222222,153.81777413953097L162.01944444444445,154.1847925127484L162.61510416666667,154.53956420598553L163.2107638888889,154.88200968196617L163.80642361111111,155.2120774269104L164.4020833333333,155.52969243675471L164.99774305555556,155.83479907661678L165.59340277777778,156.12735098409468L166.1890625,156.40728098521942L166.78472222222223,156.67454271758908L167.38038194444445,156.9290935277939L167.97604166666667,157.17086212076248L168.5717013888889,157.39982706676238L169.1673611111111,157.6159422094468L169.76302083333331,157.81915253209883L170.35868055555557,158.0094411381986L170.9543402777778,158.18675321708434L171.55,158.35105930287392L172.14565972222223,158.50234662014992L172.74131944444446,158.6405645308667L173.33697916666665,79.71837416589258L173.93263888888887,80.17835513055323L174.5282986111111,80.63869875222443L175.12395833333332,81.09939184337853L175.71961805555554,81.56038824766873L176.3152777777778,82.0216813713312L176.91093750000002,82.48326462060211L177.50659722222224,82.94510502666233L178.10225694444443,83.40717621445654L178.69791666666666,83.86946499645708L179.29357638888888,84.33195159137247L179.8892361111111,84.79462281167505L180.48489583333333,85.25744568854569L181.08055555555555,85.72041362822054L181.6762152777778,86.18348706811665L182.27187500000002,86.646666008234L182.86753472222222,87.10993726104496L183.46319444444444,87.57325467020272L184.05885416666666,88.0366248294711L184.65451388888889,88.50000817626713L185.2501736111111,88.96338492929934L185.84583333333333,89.42674849480389L186.44149305555555,89.89007249772547L187.0371527777778,90.35333056300877L187.6328125,90.81652269065378L188.22847222222222,91.27959613054989L188.82413194444445,91.74257066398857L189.41979166666667,92.2053935408592L190.0154513888889,92.66805157363413L190.61111111111111,93.13054476231335L191.20677083333334,93.59283354431389L191.80243055555553,94.05491132587193L192.39809027777775,94.51674513816832L192.99375,94.97831519991158L193.58940972222223,95.4396215111017L194.18506944444445,95.9006179153919L194.78072916666667,96.36130441278218L195.3763888888889,96.8216546282172L195.97204861111112,97.2816487804055L196.56770833333331,97.74126049429177L197.16336805555554,98.20048317611216L197.75902777777776,98.65927726328371L198.3546875,99.11764934957026L198.95034722222223,99.57555987238882L199.54600694444446,100.03300883173941L200.14166666666668,100.48995007127522L200.7373263888889,100.94637699723242L201.3329861111111,101.40228301584719L201.92864583333332,101.85762197077273L202.52430555555554,102.31240045577286L203.11996527777777,102.76658550202845L203.715625,103.22015073448418L204.31128472222224,103.67309615314005L204.90694444444446,104.12538549229501L205.50260416666669,104.57699567377566L206.09826388888888,105.02793658822773L206.6939236111111,105.47815548554061L207.28958333333333,105.92765895947812L207.88524305555555,106.3764074474573L208.48090277777777,106.82438446506856L209.0765625,107.27159660607575L209.67222222222225,107.71798782348631L210.26788194444447,108.16356141418217L210.86354166666666,108.60829429998992L211.45920138888889,109.05215680897234L212.0548611111111,109.49515223801134L212.65052083333333,109.93724102452396L213.24618055555555,110.37840009033678L213.84184027777778,110.81863932609556L214.4375,111.2579125754535L215.0331597222222,111.6962198384106L215.62881944444445,112.13352814614771L216.22447916666667,112.56982101425527L216.8201388888889,113.00509514585136L217.41579861111111,113.43930768147109L218.01145833333334,113.87245862111448L218.60711805555556,114.30451829284428L219.20277777777778,114.73546691536902L219.79843749999998,115.1653077855706L220.3940972222222,115.59399474710224L220.98975694444445,116.02152779996393L221.58541666666667,116.44787067845462L222.1810763888889,116.87301678881047L222.77673611111112,117.29695624038575L223.37239583333334,117.71965936124323L223.96805555555557,118.14111626073716L224.56371527777776,118.56130056381224L225.15937499999998,118.98018919229506L225.7550347222222,119.39778214618562L226.35069444444446,119.81403656601904L226.94635416666668,120.22896563932298L227.5420138888889,120.64253310039638L228.13767361111113,121.05470927730201L228.73333333333335,121.46551065444945L229.32899305555554,121.8748943723738L229.92465277777777,122.28283735290168L230.5203125,122.68934618979691L231.1159722222222,123.09439121112226L231.71163194444443,123.4979427449405L232.30729166666669,123.90000408813356L232.9029513888889,124.30053897500036L233.4986111111111,124.69956718683241L234.09427083333333,125.09701619222758L234.68993055555555,125.49289258494971L235.28559027777777,125.88720625564454L235.88125,126.27991434484719L236.47690972222222,126.6710069619119L237.07256944444444,127.06044454425572L237.6682291666667,127.44824687317012L238.26388888888889,127.83438097983597L238.8595486111111,128.21882048919795L239.45520833333333,128.60156869813798L240.05086805555555,128.98259923160074L240.64652777777778,129.361882417649L241.2421875,129.73942814692853L241.83784722222222,130.11519685685633L242.43350694444445,130.4891885474324L243.02916666666667,130.8613900311291L243.6248263888889,131.23175844848154L244.22048611111111,131.6003135807812L244.81614583333334,131.967020810768L245.41180555555556,132.33185211494563L246.00746527777778,132.69481903240083L246.603125,133.05589189119635L247.19878472222223,133.41505750380455L247.79444444444442,133.77228454984723" style="fill: none;" fill="none"></path></g><g><path stroke="rgb(204, 51, 17)" stroke-width="2px" d="M30.378645833333334,107.38111902326344L30.974305555555553,102.6610589057207L31.569965277777776,97.94100538194178L32.165625,93.22094526439903L32.76128472222222,88.50088514685629L33.356944444444444,83.78082502931355L33.95260416666667,79.0607649117708L34.54826388888889,74.34071138799189L35.14392361111111,69.62064467668532L35.739583333333336,64.90059115290642L36.33524305555556,60.18053103536368L36.930902777777774,55.460470917820935L37.526562500000004,50.74041080027819L38.12222222222222,46.02035068273545L38.71788194444444,41.30029715895653L39.313541666666666,36.58024363517762L39.90920138888889,31.860176923871045L40.50486111111111,27.140110212564473L41.10052083333333,22.420056688785557L41.69618055555556,17.700003165006642L42.29184027777777,17.70659692883492L42.8875,17.726417782902722L43.48315972222222,17.759439352154736L44.07881944444445,17.805661636590962L44.674479166666664,17.865058261156086L45.27013888888889,17.937642413377766L45.86579861111111,18.023387718200688L46.46145833333333,18.12226780056954L47.057118055555556,18.23430903553963L47.65277777777778,18.359432297945027L48.2484375,18.497663962841038L48.844097222222224,18.648938092589383L49.43975694444444,18.81325468719006L50.03541666666667,18.990560996532444L50.631076388888886,19.180857020616536L51.226736111111116,19.384063634276394L51.82239583333333,19.600167649984364L52.41805555555556,19.82914269268513L53.01371527777778,20.070922824740414L53.609375,20.325455296039586L54.20503472222222,20.592713731527333L54.800694444444446,20.872658568620686L55.39635416666667,21.165210682153706L55.99201388888889,21.470317322015767L56.587673611111114,21.78792573809624L57.18333333333334,22.11799636781216L57.77899305555555,22.46043689846993L58.374652777777776,22.815207767486577L58.9703125,23.182229849696164L59.56597222222222,23.561437207460408L60.161631944444444,23.952777090668683L60.75729166666667,24.356143999099736L61.35295138888889,24.771471995115284L61.948611111111106,25.198695141077046L62.544270833333336,25.63773431181908L63.13993055555555,26.088484007120137L63.73559027777778,26.550891476869587L64.33125,27.024864408373837L64.92690972222222,27.510297301411633L65.52256944444444,28.007111030817036L66.11822916666667,28.51521328389645L66.71388888888889,29.034485372900967L67.30954861111111,29.56487454771996L67.90520833333333,30.106248933076863L68.50086805555556,30.658529403805737L69.09652777777778,31.221597272157673L69.6921875,31.795360225439076L70.28784722222223,32.37968638837338L70.88350694444443,32.97447026073933L71.47916666666667,33.57964590489865L72.0748263888889,34.195041882991795L72.67048611111112,34.82059225738049L73.26614583333333,35.45615196526051L73.86180555555555,36.10158913135529L74.45746527777779,36.75682463049889L75.05312500000001,37.42170021235943L75.64878472222222,38.09609718918801L76.24444444444444,38.77992324829102L76.84010416666668,39.473006951808934L77.43576388888889,40.1752427995205L78.03142361111111,40.88648572862149L78.62708333333333,41.606617051362996L79.22274305555555,42.33550489246846L79.81840277777778,43.07300418913365L80.4140625,43.818983066082005L81.00972222222222,44.57328327298165L81.60538194444445,45.335799309611325L82.20104166666665,46.106346550583844L82.79670138888889,46.884806308150296L83.39236111111111,47.67103351950646L83.98802083333334,48.46488312184811L84.58368055555555,49.266190271079545L85.17934027777778,50.07483627945185L85.775,50.89064311534167L86.37065972222223,51.71345912218094L86.96631944444444,52.543145830929284L87.56197916666666,53.37953839749098L88.1576388888889,54.22249175906182L88.75329861111112,55.0718212902546L89.34895833333333,55.927401709556584L89.94461805555555,56.789048391580586L90.54027777777777,57.65662286728621L91.13593750000001,58.52995369881392L91.73159722222222,59.40886285454035L92.32725694444444,60.29319867789746L92.92291666666667,61.18281610608101L93.5185763888889,62.07751073241234L94.11423611111111,62.97715068161488L94.70989583333333,63.881544734537606L95.30555555555556,64.79052145332098L95.90121527777777,65.70393577516079L96.496875,66.62160307466982L97.09253472222223,67.54334532022474L97.68819444444445,68.46900426149367L98.28385416666666,69.39838208556174L98.87951388888888,70.33135351091622L99.47517361111112,71.26769434958695L100.07083333333334,72.2072595387697L100.66649305555555,73.14985785931347L101.26215277777777,74.09532446712254L101.8578125,75.04346814304589L102.45347222222223,75.99413063675163L103.04913194444444,76.9471273228526L103.64479166666666,77.90227357596157L104.24045138888889,78.85939795821903L104.83611111111112,79.81832903176544L105.43177083333333,80.77888876497744L106.02743055555555,81.74087275117634L106.62309027777778,82.70410955250262L107.21875,83.66844751238821L107.81440972222222,84.6336690366268L108.41006944444445,85.59962906241415L109.00572916666667,86.56611658930777L109.60138888888889,87.53296677321194L110.1970486111111,88.50000817626713L110.79270833333334,89.46704298555849L111.38836805555556,90.43389976322649L111.98402777777778,91.40038069635628L112.57968749999999,92.3663341283798L113.17534722222223,93.33156884014605L113.77100694444445,94.29589361250399L114.36666666666667,95.25913700759409L114.96232638888888,96.221120993793L115.5579861111111,97.18167413324116L116.15364583333334,98.1406118005514L116.74930555555555,99.09773618280886L117.34496527777777,100.05287584215401L117.940625,101.0058791220188L118.53628472222222,101.95654161572455L119.13194444444444,102.90469847917555L119.72760416666667,103.85015189945696L120.32326388888889,104.79275351688264L120.91892361111111,105.73231540918349L121.51458333333333,106.66866284161804L122.11024305555556,107.60161778256295L122.70590277777778,108.53100879415868L123.3015625,109.45665784478186L123.89722222222221,110.37840998098252L124.49288194444445,111.29607068672775L125.08854166666667,112.20947511792181L125.6842013888889,113.11846172735093L126.2798611111111,114.02285907715557L126.87552083333333,114.92249902635811L127.47118055555556,115.81719035580753L128.06684027777777,116.70679459646342L128.6625,117.5911469042301L129.25815972222222,118.47006595060228L129.85381944444444,119.34338359460233L130.44947916666666,120.2109448827803L131.04513888888889,121.07261134609578L131.6407986111111,121.9281752809882L132.23645833333333,122.77752789035438L132.83211805555555,123.62046806439756L133.42777777777778,124.45685733407734L134.0234375,125.2865473397076L134.61909722222222,126.10937653407453L135.21475694444445,126.92517677620052L135.81041666666667,127.73380630016325L136.40607638888886,128.53513323068617L137.00173611111111,129.32896964550017L137.59739583333334,130.11521004438399L138.19305555555556,130.89366980195044L138.78871527777778,131.66421704292296L139.384375,132.4267264857888L139.98003472222223,133.18103163801132L140.57569444444445,133.92700721807776L141.17135416666665,134.66449992097913L141.76701388888887,135.3933762229979L142.3626736111111,136.11352073326705L142.95833333333334,136.824765310809L143.55399305555557,137.5269962131977L144.1496527777778,138.22008980736135L144.7453125,138.90390927270053L145.34097222222223,139.57831284329293L145.93663194444443,140.24318677671252L146.53229166666665,140.8984189789742L147.12795138888887,141.54386109039186L147.7236111111111,142.1794240951538L148.31927083333335,142.80495633669196L148.91493055555557,143.4203605569899L149.5105902777778,144.02552631050347L150.10625000000002,144.62032337039707L150.7019097222222,145.20465942397712L151.29756944444443,145.7784083655104L151.89322916666666,146.34146716743706L152.48888888888888,146.8937484623864L153.0845486111111,147.43512037508188L153.68020833333335,147.9655120225623L154.27586805555558,148.48479729909448L154.87152777777777,148.99289460685102L155.4671875,149.48971163313837L156.06284722222222,149.97514782305808L156.65850694444444,150.44910097327084L157.25416666666666,150.91151338834317L157.84982638888889,151.36228204071523L158.4454861111111,151.80131049659104L159.04114583333333,152.22853941209615L159.63680555555555,152.64387317765505L160.23246527777778,153.04723843764515L160.828125,153.43856389699505L161.42378472222222,153.81777413953097L162.01944444444445,154.1847925127484L162.61510416666667,154.53956420598553L163.2107638888889,154.88200968196617L163.80642361111111,155.2120774269104L164.4020833333333,155.52969243675471L164.99774305555556,155.83479907661678L165.59340277777778,156.12735098409468L166.1890625,156.40728098521942L166.78472222222223,156.67454271758908L167.38038194444445,156.9290935277939L167.97604166666667,157.17086212076248L168.5717013888889,157.39982706676238L169.1673611111111,157.6159422094468L169.76302083333331,157.81915253209883L170.35868055555557,158.0094411381986L170.9543402777778,158.18675321708434L171.55,158.35105930287392L172.14565972222223,158.50234662014992L172.74131944444446,158.6405645308667L173.33697916666665,158.76570046566195L173.93263888888887,158.87772482986912L174.5282986111111,158.9766207269684L175.12395833333332,159.06236708782382L175.71961805555554,159.1349512400455L176.3152777777778,159.19435208230135L176.91093750000002,159.24056539690065L177.50659722222224,159.27358274524232L178.10225694444443,159.2933956863106L178.69791666666666,159.3" style="fill: none;" fill="none"></path></g><g><path stroke="rgb(51, 187, 238)" stroke-width="2px" d="M30.378645833333334,111.80612139701842L30.974305555555553,111.51106035634874L31.569965277777776,111.21600261256097L32.165625,110.9209448687732L32.76128472222222,110.62588382810353L33.356944444444444,110.33082608431576L33.95260416666667,110.035768340528L34.54826388888889,109.74070729985831L35.14392361111111,109.44564955607055L35.739583333333336,109.15058851540087L36.33524305555556,108.8555307716131L36.930902777777774,108.56047302782534L37.526562500000004,108.26541528403757L38.12222222222222,107.9703542433679L38.71788194444444,107.67529649958013L39.313541666666666,107.38023545891045L39.90920138888889,107.08517771512268L40.50486111111111,106.79011997133492L41.10052083333333,106.49505893066524L41.69618055555556,106.20000118687747L42.29184027777777,106.20247714519499L42.8875,106.20990831702946L43.48315972222222,106.22228810861705L44.07881944444445,106.23961981683968L44.674479166666664,106.26189684793351L45.27013888888889,106.28911590501664L45.86579861111111,106.32126709744333L46.46145833333333,106.35835372209547L47.057118055555556,106.40036588832734L47.65277777777778,106.44729040861128L48.2484375,106.49912398606537L48.844097222222224,106.55585343316196L49.43975694444444,106.61747215613721L50.03541666666667,106.68396367058156L50.631076388888886,106.75532138273118L51.226736111111116,106.83152551129459L51.82239583333333,106.91256286874412L52.41805555555556,106.99842686131595L53.01371527777778,107.08909441083668L53.609375,107.18454573601483L54.20503472222222,107.28476764932273L54.800694444444446,107.38974696323274L55.39635416666667,107.4994507089257L55.99201388888889,107.61386569887398L56.587673611111114,107.73297215178607L57.18333333333334,107.8567502863705L57.77899305555555,107.98516713380812L58.374652777777776,108.11820291280745L58.9703125,108.255837842077L59.56597222222222,108.39804224967955L60.161631944444444,108.54478976055978L60.75729166666667,108.69605070278047L61.35295138888889,108.85180199816821L61.948611111111106,109.01200738102196L62.544270833333336,109.17664707005022L63.13993055555555,109.34568150267003L63.73559027777778,109.51908760070799L64.33125,109.69682250469921L64.92690972222222,109.87885983958839L65.52256944444444,110.06516333967446L66.11822916666667,110.2557033330202L66.71388888888889,110.4504336632788L67.30954861111111,110.64932795539497L67.90520833333333,110.85234664678572L68.50086805555556,111.05945017486809L69.09652777777778,111.27060227394102L69.6921875,111.48575678765772L70.28784722222223,111.70488074719904L70.88350694444443,111.92792799621819L71.47916666666667,112.15486556589602L72.0748263888889,112.38564400300382L72.67048611111112,112.62022044807671L73.26614583333333,112.85855533853172L73.86180555555555,113.10059592425822L74.45746527777779,113.34630593955515L75.05312500000001,113.59563593119381L75.64878472222222,113.84853644594548L76.24444444444444,114.1049679212272L76.84010416666668,114.36487760692833L77.43576388888889,114.62821604982017L78.03142361111111,114.894933796674L78.62708333333333,115.16498469114302L79.22274305555555,115.43831598311661L79.81840277777778,115.71487821936606L80.4140625,115.99461864978073L81.00972222222222,116.27748452425001L81.60538194444445,116.56342309266327L82.20104166666665,116.85237830802797L82.79670138888889,117.1443040139973L83.39236111111111,117.4391375698149L83.98802083333334,117.73682952225207L84.58368055555555,118.03732052743433L85.17934027777778,118.3405644290149L85.775,118.64649199247359L86.37065972222223,118.95504717081783L86.96631944444444,119.26618051081894L87.56197916666666,119.57982607483862L88.1576388888889,119.89593440964816L88.75329861111112,120.21443298384546L89.34895833333333,120.5352756410837L89.94461805555555,120.8583931468427L90.54027777777777,121.18373275101183L91.13593750000001,121.51123181283472L91.73159722222222,121.84082439467309L92.32725694444444,122.17245115265249L92.92291666666667,122.50605603978036L93.5185763888889,122.84156652465461L94.11423611111111,123.17893315404652L94.70989583333333,123.51807680279015L95.30555555555556,123.85894801765679L95.90121527777777,124.20147756412624L96.496875,124.54559950456022L97.09253472222223,124.89125449508427L97.68819444444445,125.23837659806011L98.28385416666666,125.58689328208564L98.87951388888888,125.93675839081405L99.47517361111112,126.28788620531557L100.07083333333334,126.64022067859767L100.66649305555555,126.99369587302206L101.26215277777777,127.34824585095046L101.8578125,127.70379808098076L102.45347222222223,128.06029981300233L103.04913194444444,128.41767192184923L103.64479166666666,128.77585506364701L104.24045138888889,129.13477341011165L104.83611111111112,129.4943742111325L105.43177083333333,129.85458163842557L106.02743055555555,130.21532645747064L106.62309027777778,130.5765394337475L107.21875,130.93816781714557L107.81440972222222,131.30012588873504L108.41006944444445,131.66236254684625L109.00572916666667,132.0247937209904L109.60138888888889,132.38736336417494L110.1970486111111,132.75000224187968L110.79270833333334,133.11264111958442L111.38836805555556,133.47521076276897L111.98402777777778,133.83764193691312L112.57968749999999,134.19987529814242L113.17534722222223,134.5618366666138L113.77100694444445,134.92346175312994L114.36666666666667,135.28467637784777L114.96232638888888,135.64542119689284L115.5579861111111,136.00562697574495L116.15364583333334,136.36522942520676L116.74930555555555,136.72415271699427L117.34496527777777,137.08232761658726L117.940625,137.43970467075704L118.53628472222222,137.7962031058967L119.13194444444444,138.15176192969082L119.72760416666667,138.50630696229635L120.32326388888889,138.8597838051617L120.91892361111111,139.2121182784438L121.51458333333333,139.56324774138628L122.11024305555556,139.91310625635086L122.70590277777778,140.26162788569926L123.3015625,140.6087466917932L123.89722222222221,140.9544033307582L124.49288194444445,141.29852691963313L125.08854166666667,141.64105316922067L125.6842013888889,141.98192273564635L126.2798611111111,142.3210729781538L126.87552083333333,142.6584363106638L127.47118055555556,142.99394679553805L128.06684027777777,143.32754673734306L128.6625,143.65918008908628L129.25815972222222,143.9887743193656L129.85381944444444,144.31626843586562L130.44947916666666,144.64160474315284L131.04513888888889,144.96472884267567L131.6407986111111,145.28556655459104L132.23645833333333,145.60407337099312L132.83211805555555,145.92017511203883L133.42777777777778,146.233821500279L134.0234375,146.54495566450058L134.61909722222222,146.85351661238818L135.21475694444445,147.15944170318542L135.81041666666667,147.4626773625612L136.40607638888886,147.76317413728682L137.00173611111111,148.06086361706255L137.59739583333334,148.3557029424235L138.19305555555556,148.6476261757314L138.78871527777778,148.9365813910961L139.384375,149.2225224321708L139.98003472222223,149.50538748241962L140.57569444444445,149.7851279128343L141.17135416666665,150.0616876764223L141.76701388888887,150.335015671514L142.3626736111111,150.60506986286492L142.95833333333334,150.87178678549827L143.55399305555557,151.13512357994915L144.1496527777778,151.39503408987076L144.7453125,151.65146556515248L145.34097222222223,151.90436690412463L145.93663194444443,152.15369524732233L146.53229166666665,152.39940732317046L147.12795138888887,152.64144790889696L147.7236111111111,152.8797840356827L148.31927083333335,153.11435883231462L148.91493055555557,153.34513520887123L149.5105902777778,153.57207236643882L150.10625000000002,153.79512167600916L150.7019097222222,154.01424769610168L151.29756944444443,154.22940303403885L151.89322916666666,154.44055018778892L152.48888888888888,154.64765536431224L153.0845486111111,154.85067034671084L153.68020833333335,155.04956711148844L154.27586805555558,155.24429867807777L154.87152777777777,155.4348353745416L155.4671875,155.62114175939934L156.06284722222222,155.80318033061923L156.65850694444444,155.98091296800413L157.25416666666666,156.15431741760113L157.84982638888889,156.3233555592131L158.4454861111111,156.4879913331941L159.04114583333333,156.64820248559118L159.63680555555555,156.8039523385931L160.23246527777778,156.95521431108938L160.828125,157.10196140985937L161.42378472222222,157.24416519929656L162.01944444444445,157.38179703773932L162.61510416666667,157.5148365257308L163.2107638888889,157.64325357922354L163.80642361111111,157.7670290350914L164.4020833333333,157.88613456075547L164.99774305555556,158.00054955070374L165.59340277777778,158.11025659327862L166.1890625,158.21523044672796L166.78472222222223,158.31545349333902L167.38038194444445,158.41091007292272L167.97604166666667,158.50157329528594L168.5717013888889,158.5874351757928L169.1673611111111,158.66847830278567L169.76302083333331,158.74468217378018L170.35868055555557,158.81604045258138L170.9543402777778,158.88253245640664L171.55,158.94414723857773L172.14565972222223,159.00087998255623L172.74131944444446,159.05271170551424L173.33697916666665,159.09963768106246L173.93263888888887,159.14164680798132L174.5282986111111,159.17873277583277L175.12395833333332,159.21088765793394L175.71961805555554,159.23810671501707L176.3152777777778,159.2603820300581L176.91093750000002,159.27771202383775L177.50659722222224,159.29009352906343L178.10225694444443,159.29752338226587L178.69791666666666,159.3" style="fill: none;" fill="none"></path></g></g></g></g></g><g><g opacity="0.905925"><span fill="rgb(0, 0, 0)" stroke="none" stroke-width="1px">Alt + Scroll to Zoom</span></g></g></g><g transform="translate(61, 177)" clip-path="url(#clip_1)"><clipPath id="clip_1"><rect width="268" height="23"></rect></clipPath><g><g><line x1="0" y1="0" x2="0" y2="5" style="visibility: inherit;" fill="rgb(0, 0, 0)" stroke="rgb(204, 204, 204)" stroke-width="1px"></line><line x1="29.78298611111111" y1="0" x2="29.78298611111111" y2="5" style="visibility: inherit;" fill="rgb(0, 0, 0)" stroke="rgb(204, 204, 204)" stroke-width="1px"></line><line x1="59.56597222222222" y1="0" x2="59.56597222222222" y2="5" style="visibility: inherit;" fill="rgb(0, 0, 0)" stroke="rgb(204, 204, 204)" stroke-width="1px"></line><line x1="89.34895833333333" y1="0" x2="89.34895833333333" y2="5" style="visibility: inherit;" fill="rgb(0, 0, 0)" stroke="rgb(204, 204, 204)" stroke-width="1px"></line><line x1="119.13194444444444" y1="0" x2="119.13194444444444" y2="5" style="visibility: inherit;" fill="rgb(0, 0, 0)" stroke="rgb(204, 204, 204)" stroke-width="1px"></line><line x1="148.91493055555557" y1="0" x2="148.91493055555557" y2="5" style="visibility: inherit;" fill="rgb(0, 0, 0)" stroke="rgb(204, 204, 204)" stroke-width="1px"></line><line x1="178.69791666666666" y1="0" x2="178.69791666666666" y2="5" style="visibility: inherit;" fill="rgb(0, 0, 0)" stroke="rgb(204, 204, 204)" stroke-width="1px"></line><line x1="208.48090277777777" y1="0" x2="208.48090277777777" y2="5" style="visibility: inherit;" fill="rgb(0, 0, 0)" stroke="rgb(204, 204, 204)" stroke-width="1px"></line><line x1="238.26388888888889" y1="0" x2="238.26388888888889" y2="5" style="visibility: inherit;" fill="rgb(0, 0, 0)" stroke="rgb(204, 204, 204)" stroke-width="1px"></line><line x1="268.046875" y1="0" x2="268.046875" y2="5" style="visibility: inherit;" fill="rgb(0, 0, 0)" stroke="rgb(204, 204, 204)" stroke-width="1px"></line></g><g transform="translate(0, 8)"><text x="0" y="0" dx="0em" dy="0.95em" style="text-anchor: middle; visibility: hidden; font-family: Roboto, sans-serif; font-size: 12px; font-weight: 200;" fill="rgb(33, 33, 33)" stroke="none" stroke-width="1px">-5k</text><text x="29.78298611111111" y="0" dx="0em" dy="0.95em" style="text-anchor: middle; visibility: inherit; font-family: Roboto, sans-serif; font-size: 12px; font-weight: 200;" fill="rgb(33, 33, 33)" stroke="none" stroke-width="1px">0</text><text x="59.56597222222222" y="0" dx="0em" dy="0.95em" style="text-anchor: middle; visibility: inherit; font-family: Roboto, sans-serif; font-size: 12px; font-weight: 200;" fill="rgb(33, 33, 33)" stroke="none" stroke-width="1px">5k</text><text x="89.34895833333333" y="0" dx="0em" dy="0.95em" style="text-anchor: middle; visibility: inherit; font-family: Roboto, sans-serif; font-size: 12px; font-weight: 200;" fill="rgb(33, 33, 33)" stroke="none" stroke-width="1px">10k</text><text x="119.13194444444444" y="0" dx="0em" dy="0.95em" style="text-anchor: middle; visibility: inherit; font-family: Roboto, sans-serif; font-size: 12px; font-weight: 200;" fill="rgb(33, 33, 33)" stroke="none" stroke-width="1px">15k</text><text x="148.91493055555557" y="0" dx="0em" dy="0.95em" style="text-anchor: middle; visibility: inherit; font-family: Roboto, sans-serif; font-size: 12px; font-weight: 200;" fill="rgb(33, 33, 33)" stroke="none" stroke-width="1px">20k</text><text x="178.69791666666666" y="0" dx="0em" dy="0.95em" style="text-anchor: middle; visibility: inherit; font-family: Roboto, sans-serif; font-size: 12px; font-weight: 200;" fill="rgb(33, 33, 33)" stroke="none" stroke-width="1px">25k</text><text x="208.48090277777777" y="0" dx="0em" dy="0.95em" style="text-anchor: middle; visibility: inherit; font-family: Roboto, sans-serif; font-size: 12px; font-weight: 200;" fill="rgb(33, 33, 33)" stroke="none" stroke-width="1px">30k</text><text x="238.26388888888889" y="0" dx="0em" dy="0.95em" style="text-anchor: middle; visibility: inherit; font-family: Roboto, sans-serif; font-size: 12px; font-weight: 200;" fill="rgb(33, 33, 33)" stroke="none" stroke-width="1px">35k</text><text x="268.046875" y="0" dx="0em" dy="0.95em" style="text-anchor: middle; visibility: hidden; font-family: Roboto, sans-serif; font-size: 12px; font-weight: 200;" fill="rgb(33, 33, 33)" stroke="none" stroke-width="1px">40k</text></g><line x1="0" y1="0" x2="268.046875" y2="0" fill="rgb(0, 0, 0)" stroke="rgb(204, 204, 204)" stroke-width="1px"></line></g></g></g></g></svg>