<svg viewBox="0 0 330 200" xmlns="http://www.w3.org/2000/svg"><g><g><g><g><g><line x1="41.171875" y1="177" x2="36.171875" y2="177" style="visibility: inherit;" fill="rgb(0, 0, 0)" stroke="rgb(204, 204, 204)" stroke-width="1px"></line><line x1="41.171875" y1="151.71428571428572" x2="36.171875" y2="151.71428571428572" style="visibility: inherit;" fill="rgb(0, 0, 0)" stroke="rgb(204, 204, 204)" stroke-width="1px"></line><line x1="41.171875" y1="126.42857142857143" x2="36.171875" y2="126.42857142857143" style="visibility: inherit;" fill="rgb(0, 0, 0)" stroke="rgb(204, 204, 204)" stroke-width="1px"></line><line x1="41.171875" y1="101.14285714285714" x2="36.171875" y2="101.14285714285714" style="visibility: inherit;" fill="rgb(0, 0, 0)" stroke="rgb(204, 204, 204)" stroke-width="1px"></line><line x1="41.171875" y1="75.85714285714286" x2="36.171875" y2="75.85714285714286" style="visibility: inherit;" fill="rgb(0, 0, 0)" stroke="rgb(204, 204, 204)" stroke-width="1px"></line><line x1="41.171875" y1="50.57142857142857" x2="36.171875" y2="50.57142857142857" style="visibility: inherit;" fill="rgb(0, 0, 0)" stroke="rgb(204, 204, 204)" stroke-width="1px"></line><line x1="41.171875" y1="25.285714285714295" x2="36.171875" y2="25.285714285714295" style="visibility: inherit;" fill="rgb(0, 0, 0)" stroke="rgb(204, 204, 204)" stroke-width="1px"></line><line x1="41.171875" y1="0" x2="36.171875" y2="0" style="visibility: inherit;" fill="rgb(0, 0, 0)" stroke="rgb(204, 204, 204)" stroke-width="1px"></line></g><g transform="translate(31.171875, 0)"><text x="0" y="177" dx="0em" dy="0.3em" style="text-anchor: end; visibility: hidden; font-family: Roboto, sans-serif; font-size: 12px; font-weight: 200;" fill="rgb(33, 33, 33)" stroke="none" stroke-width="1px">0.5</text><text x="0" y="151.71428571428572" dx="0em" dy="0.3em" style="text-anchor: end; visibility: inherit; font-family: Roboto, sans-serif; font-size: 12px; font-weight: 200;" fill="rgb(33, 33, 33)" stroke="none" stroke-width="1px">1</text><text x="0" y="126.42857142857143" dx="0em" dy="0.3em" style="text-anchor: end; visibility: inherit; font-family: Roboto, sans-serif; font-size: 12px; font-weight: 200;" fill="rgb(33, 33, 33)" stroke="none" stroke-width="1px">1.5</text><text x="0" y="101.14285714285714" dx="0em" dy="0.3em" style="text-anchor: end; visibility: inherit; font-family: Roboto, sans-serif; font-size: 12px; font-weight: 200;" fill="rgb(33, 33, 33)" stroke="none" stroke-width="1px">2</text><text x="0" y="75.85714285714286" dx="0em" dy="0.3em" style="text-anchor: end; visibility: inherit; font-family: Roboto, sans-serif; font-size: 12px; font-weight: 200;" fill="rgb(33, 33, 33)" stroke="none" stroke-width="1px">2.5</text><text x="0" y="50.57142857142857" dx="0em" dy="0.3em" style="text-anchor: end; visibility: inherit; font-family: Roboto, sans-serif; font-size: 12px; font-weight: 200;" fill="rgb(33, 33, 33)" stroke="none" stroke-width="1px">3</text><text x="0" y="25.285714285714295" dx="0em" dy="0.3em" style="text-anchor: end; visibility: inherit; font-family: Roboto, sans-serif; font-size: 12px; font-weight: 200;" fill="rgb(33, 33, 33)" stroke="none" stroke-width="1px">3.5</text><text x="0" y="0" dx="0em" dy="0.3em" style="text-anchor: end; visibility: hidden; font-family: Roboto, sans-serif; font-size: 12px; font-weight: 200;" fill="rgb(33, 33, 33)" stroke="none" stroke-width="1px">4</text></g><line x1="41.171875" y1="0" x2="41.171875" y2="177" fill="rgb(0, 0, 0)" stroke="rgb(204, 204, 204)" stroke-width="1px"></line></g></g><g transform="translate(41, 0)" clip-path="url(#clip_0)"><clipPath id="clip_0"><rect width="288" height="177"></rect></clipPath><g><g><g><line x1="0" y1="0" x2="0" y2="177" fill="rgb(0, 0, 0)" stroke="rgb(66, 66, 66)" stroke-width="1px" opacity="0.25"></line><line x1="32.092013888888886" y1="0" x2="32.092013888888886" y2="177" fill="rgb(0, 0, 0)" stroke="rgb(66, 66, 66)" stroke-width="1px" opacity="0.25"></line><line x1="64.18402777777777" y1="0" x2="64.18402777777777" y2="177" fill="rgb(0, 0, 0)" stroke="rgb(66, 66, 66)" stroke-width="1px" opacity="0.25"></line><line x1="96.27604166666666" y1="0" x2="96.27604166666666" y2="177" fill="rgb(0, 0, 0)" stroke="rgb(66, 66, 66)" stroke-width="1px" opacity="0.25"></line><line x1="128.36805555555554" y1="0" x2="128.36805555555554" y2="177" fill="rgb(0, 0, 0)" stroke="rgb(66, 66, 66)" stroke-width="1px" opacity="0.25"></line><line x1="160.46006944444446" y1="0" x2="160.46006944444446" y2="177" fill="rgb(0, 0, 0)" stroke="rgb(66, 66, 66)" stroke-width="1px" opacity="0.25"></line><line x1="192.55208333333331" y1="0" x2="192.55208333333331" y2="177" fill="rgb(0, 0, 0)" stroke="rgb(66, 66, 66)" stroke-width="1px" opacity="0.25"></line><line x1="224.64409722222223" y1="0" x2="224.64409722222223" y2="177" fill="rgb(0, 0, 0)" stroke="rgb(66, 66, 66)" stroke-width="1px" opacity="0.25"></line><line x1="256.7361111111111" y1="0" x2="256.7361111111111" y2="177" fill="rgb(0, 0, 0)" stroke="rgb(66, 66, 66)" stroke-width="1px" opacity="0.25"></line><line x1="288.828125" y1="0" x2="288.828125" y2="177" fill="rgb(0, 0, 0)" stroke="rgb(66, 66, 66)" stroke-width="1px" opacity="0.25"></line></g><g><line x1="0" y1="177" x2="288.828125" y2="177" fill="rgb(0, 0, 0)" stroke="rgb(66, 66, 66)" stroke-width="1px" opacity="0.25"></line><line x1="0" y1="151.71428571428572" x2="288.828125" y2="151.71428571428572" fill="rgb(0, 0, 0)" stroke="rgb(66, 66, 66)" stroke-width="1px" opacity="0.25"></line><line x1="0" y1="126.42857142857143" x2="288.828125" y2="126.42857142857143" fill="rgb(0, 0, 0)" stroke="rgb(66, 66, 66)" stroke-width="1px" opacity="0.25"></line><line x1="0" y1="101.14285714285714" x2="288.828125" y2="101.14285714285714" fill="rgb(0, 0, 0)" stroke="rgb(66, 66, 66)" stroke-width="1px" opacity="0.25"></line><line x1="0" y1="75.85714285714286" x2="288.828125" y2="75.85714285714286" fill="rgb(0, 0, 0)" stroke="rgb(66, 66, 66)" stroke-width="1px" opacity="0.25"></line><line x1="0" y1="50.57142857142857" x2="288.828125" y2="50.57142857142857" fill="rgb(0, 0, 0)" stroke="rgb(66, 66, 66)" stroke-width="1px" opacity="0.25"></line><line x1="0" y1="25.285714285714295" x2="288.828125" y2="25.285714285714295" fill="rgb(0, 0, 0)" stroke="rgb(66, 66, 66)" stroke-width="1px" opacity="0.25"></line><line x1="0" y1="0" x2="288.828125" y2="0" fill="rgb(0, 0, 0)" stroke="rgb(66, 66, 66)" stroke-width="1px" opacity="0.25"></line></g></g></g><g><g><line x1="0" y1="202.28571428571428" x2="288.828125" y2="202.28571428571428" fill="rgb(0, 0, 0)" stroke="rgb(153, 153, 153)" stroke-width="1.5px"></line></g></g><g><g><line x1="32.092013888888886" y1="0" x2="32.092013888888886" y2="177" fill="rgb(0, 0, 0)" stroke="rgb(153, 153, 153)" stroke-width="1.5px"></line></g></g><g><g><g><g><g><path stroke="rgb(255, 112, 67)" stroke-width="2px" d="M32.73385416666667,96.69159180777413L33.37569444444444,97.71327279729758L34.01753472222222,94.49651622201654L34.659375,94.35884820392378L35.30121527777778,99.97776178782118L35.94305555555555,103.75227049671685L36.584895833333334,107.33712006953077L37.22673611111111,106.67054945648314L37.86857638888889,107.02664163217436L38.510416666666664,109.01889850062285L39.152256944444446,111.83339008079467L39.79409722222222,111.52377048123775L40.4359375,109.09418899639404L41.077777777777776,106.93777108538643L41.71961805555555,107.9124921317341L42.36145833333333,109.60720273922927L43.003298611111106,110.02494165996112L43.64513888888889,111.58275112278304L44.28697916666666,113.43229970564781L44.92881944444444,114.59295673655485L45.57065972222222,116.5724726876149L46.2125,117.46462379354676L46.85434027777777,119.63406023451314L47.496180555555554,120.42918623605182L48.13802083333333,122.44275924484857L48.77986111111111,122.27189519211359L49.421701388888884,124.04681483990086L50.063541666666666,125.83806030222442L50.70538194444444,126.75997825023336L51.34722222222222,126.30714877854429L51.989062499999996,128.30376445894035L52.63090277777778,130.0932316226328L53.27274305555555,130.78288686389703L53.91458333333333,131.7041965259389L54.55642361111111,133.4210221831702L55.19826388888889,134.99971639209596L55.84010416666666,135.93401554656782L56.481944444444444,136.6298017388514L57.12378472222222,137.69613962884037L57.765625,138.82238071734264L58.407465277777774,139.74721577986884L59.049305555555556,141.0681972750743L59.69114583333333,141.20365929359423L60.33298611111111,141.52978574424623L60.974826388888886,142.8431318317065L61.61666666666667,143.91918125291934L62.25850694444444,145.29470371988813L62.900347222222216,146.5986416557984L63.5421875,146.90337630299175L64.18402777777777,147.78665817312984L64.82586805555556,147.8008801036113L65.46770833333333,148.24690515577757L66.10954861111111,147.21215087912393L66.75138888888888,148.99189878899065L67.39322916666667,149.7484727401604L68.03506944444445,150.4007433932762L68.67690972222222,151.8900742007724L69.31875,153.2478112369296L69.96059027777778,154.02894810752832L70.60243055555556,152.77072669285457L71.24427083333333,154.08731560350293L71.8861111111111,154.0355033613579L72.5279513888889,153.90766693355155L73.16979166666667,154.10441940857856L73.81163194444444,154.7573764836725L74.45347222222222,144.49429802964124L75.0953125,118.40518831981925L75.73715277777778,103.43473866244688L76.37899305555555,90.3333300655241L77.02083333333333,78.59210377944886L77.66267361111112,65.20525378913885L78.30451388888889,57.054071444598804L78.94635416666667,50.81543208831954L79.58819444444444,45.34272773669579L80.23003472222223,42.19579778236336L80.871875,39.85452833649469L81.51371527777778,37.66894408354567L82.15555555555555,36.20004139581135L82.79739583333334,36.31770799034014L83.4392361111111,36.15294869509963L84.08107638888889,35.962735880949424L84.72291666666666,36.35742063652013L85.36475694444445,38.28171359512489L86.00659722222221,38.817576483321865L86.6484375,41.14327330453328L87.29027777777777,42.7300724771456L87.93211805555556,43.647066643707745L88.57395833333332,44.76355215163071L89.21579861111111,46.96094760174147L89.85763888888889,49.28805791419642L90.49947916666667,50.91171126283081L91.14131944444443,52.09781801550324L91.78315972222222,54.70145498067484L92.425,58.1080015805851L93.06684027777779,60.79615607972635L93.70868055555555,62.84632454066939L94.35052083333333,64.20324251449914L94.99236111111111,66.63923044503929L95.6342013888889,68.54143994153245L96.27604166666666,70.155008040409L96.91788194444445,72.9351202267532L97.55972222222222,76.07212668454666L98.20156250000001,75.74169599418825L98.84340277777777,77.01454682059097L99.48524305555556,78.75899827944049L100.12708333333333,81.08365029266315L100.76892361111112,83.34782299461845L101.41076388888888,83.40303945117279L102.05260416666667,86.35302077567462L102.69444444444444,87.85299617671669L103.33628472222222,89.51073309347252L103.97812499999999,90.86927840133698L104.61996527777778,92.04287179489712L105.26180555555555,93.24854530111239L105.90364583333333,95.32451088833164L106.5454861111111,97.18459720506124L107.18732638888889,98.61339078143902L107.82916666666667,101.11020321243437L108.47100694444444,103.39037502869161L109.11284722222221,104.0136208588016L109.7546875,105.19565187156134L110.39652777777778,106.29650263882722L111.03836805555555,108.32101647920189L111.68020833333333,109.60292133320387L112.32204861111111,110.52716552526314L112.96388888888889,111.67778963469556L113.60572916666666,112.65657035831654L114.24756944444444,113.72685735652145L114.88940972222223,114.952705135123L115.53125,116.32416051445057L116.17309027777777,117.18235219947321L116.81493055555555,118.88636625948222L117.45677083333334,120.3532645786928L118.09861111111111,121.09285285238079L118.74045138888889,121.87387692362587L119.38229166666666,123.02822253925413L120.02413194444445,123.61029810339218L120.66597222222222,125.27748761368588L121.3078125,126.10093178633394L121.94965277777777,127.28506756039955L122.59149305555556,128.89498312059425L123.23333333333333,130.01190552901593L123.87517361111111,130.3337699672408L124.51701388888888,130.4310032614581L125.15885416666667,130.32568706791116L125.80069444444443,130.57297759489006L126.44253472222222,131.35445807681532L127.084375,131.72093034878284L127.72621527777778,132.8917750473601L128.36805555555554,133.60092778593082L129.00989583333333,133.59092946737826L129.65173611111112,134.9695057136373L130.29357638888888,135.70257944252367L130.93541666666667,136.69650408980954L131.57725694444443,135.74954593477278L132.21909722222222,134.77140438791758L132.8609375,135.06697384592118L133.50277777777777,134.55731870046355L134.14461805555555,135.18104152645776L134.78645833333334,135.579667370576L135.42829861111113,135.24394078962945L136.0701388888889,135.63957968590108L136.71197916666665,135.02821313090996L137.35381944444444,135.80893913667038L137.99565972222223,134.86279190353366L138.6375,135.52778440332472L139.27934027777778,135.60384263279056L139.92118055555557,135.4239098692744L140.56302083333335,136.2797563130565L141.20486111111111,134.97233086530167L141.84670138888887,135.98293220416255L142.48854166666666,136.71990170061324L143.13038194444445,137.05036960757224L143.7722222222222,138.04172327269393L144.4140625,138.67607885505385L145.0559027777778,139.05471154989678L145.69774305555558,139.2632363590078L146.33958333333334,140.4205329757257L146.9814236111111,140.86664342011318L147.62326388888889,141.37839165781435L148.26510416666665,141.46856386932703L148.90694444444443,141.3479771217067L149.54878472222222,142.27542626584253L150.190625,142.5186199647785L150.8324652777778,142.7530420921886L151.47430555555556,143.39715305854853L152.11614583333332,144.15142077568427L152.7579861111111,145.3056059015603L153.39982638888887,144.89954410978012L154.04166666666666,145.728466534497L154.68350694444445,145.95187500540547L155.32534722222223,146.47227989021152L155.96718750000002,147.58217605870263L156.60902777777778,146.87089882201911L157.25086805555554,146.8622587303531L157.89270833333333,146.8829805322835L158.53454861111112,146.6603744917908L159.17638888888888,146.83191150971507L159.81822916666667,147.04453556204123L160.46006944444446,147.176211018216L161.10190972222225,147.54328453979917L161.74375,147.8026430683997L162.38559027777777,147.84799410920246L163.02743055555555,148.6340757102126L163.66927083333334,149.3106809446728L164.3111111111111,149.88009431871737L164.9529513888889,150.470171653147L165.59479166666668,151.1510439243759L166.23663194444447,150.8454394226693L166.8784722222222,151.37811267969678L167.5203125,151.06382481700268L168.16215277777778,151.55922950371922L168.80399305555557,150.6210075131793L169.44583333333333,151.10408929474744L170.08767361111111,150.98225658274634L170.7295138888889,151.6896918340738L171.3713541666667,151.46439389498644L172.01319444444442,151.5860010726102L172.6550347222222,152.1073511519684L173.296875,152.03088831021074L173.9387152777778,151.91180089528575L174.58055555555555,152.19916535141212L175.22239583333334,152.90991008732374L175.86423611111113,153.95382057026313L176.5060763888889,153.64090266474517L177.14791666666665,153.10277142590053L177.78975694444443,153.87528215818364L178.43159722222222,153.8765662283879L179.0734375,154.1433615378221L179.71527777777777,154.2061635142042L180.35711805555556,153.20692546480302L180.99895833333335,153.67227695149666L181.64079861111114,153.51811919815896L182.28263888888887,152.9391524557928L182.92447916666666,152.24245346583564L183.56631944444445,150.8783220881136L184.20815972222223,151.27181400263373L184.85,151.87981300245818L185.49184027777778,152.5064250341268L186.13368055555557,152.92127844560758L186.77552083333333,151.84951527446884L187.4173611111111,150.81235771640064L188.05920138888888,150.12177395670787L188.70104166666667,149.7861733493705L189.34288194444446,149.3459127948199L189.98472222222222,149.3835656612242L190.6265625,149.08647205055019L191.2684027777778,148.5533262676512L191.91024305555555,148.72860586232102L192.55208333333331,148.91273710879986L193.1939236111111,148.87591451184505L193.8357638888889,149.88944872718417L194.47760416666668,150.48982946747566L195.11944444444444,150.63974811245342L195.76128472222223,150.66241705523782L196.40312500000002,151.03782382332713L197.04496527777778,151.5843577505978L197.68680555555554,151.53930814679427L198.32864583333333,151.28239467108722L198.97048611111111,151.64328976899725L199.6123263888889,152.20795175634981L200.25416666666666,153.0935673624462L200.89600694444445,152.90368967570822L201.53784722222224,151.8120448743651L202.1796875,151.34293386253702L202.82152777777776,152.4391646666174L203.46336805555555,153.11686161765692L204.10520833333334,153.96217124523633L204.74704861111113,153.60471967509218L205.38888888888889,153.46498746796635L206.03072916666667,154.41388744379984L206.67256944444443,154.28302552620028L207.31440972222222,154.63944912239896L207.95624999999998,155.23336856646972L208.59809027777777,155.09262138378878L209.23993055555556,155.46991141600043L209.88177083333335,155.5524925906295L210.5236111111111,155.73534148341182L211.1654513888889,156.99768427279938L211.80729166666666,157.48024267183058L212.44913194444445,158.11637397586264L213.0909722222222,158.7472814740687L213.7328125,158.71548510590628L214.37465277777778,158.71564317333056L215.01649305555557,159.13702881213533L215.65833333333333,159.6672168253093L216.30017361111112,160.5769132678709L216.94201388888888,159.35216198038722L217.58385416666667,158.7880095317386L218.22569444444443,158.5140028423016L218.86753472222222,158.78685046016858L219.509375,158.6264032630265L220.1512152777778,159.09225587872078L220.79305555555555,159.28216474639822L221.43489583333334,159.65791019009544L222.0767361111111,159.85013854786598L222.7185763888889,157.8393794811688L223.36041666666665,158.37828283942994L224.00225694444444,158.7911834610932L224.64409722222223,159.00120384490276L225.28593750000002,159.05263406159574L225.92777777777778,160.6001922720858L226.56961805555557,161.07745528031123L227.21145833333333,161.095354921245L227.85329861111111,161.79000921423136L228.49513888888887,161.13995342616877L229.13697916666666,161.99005530827978L229.77881944444445,162.02531164517774L230.42065972222224,162.97102051093177L231.0625,162.95415740816875L231.70434027777776,162.61965375676945L232.34618055555555,162.94247037045233L232.98802083333334,163.39805797631163L233.6298611111111,164.3044971258772L234.27170138888889,163.4281214186671L234.91354166666667,164.1684974725548L235.55538194444446,164.1475194109223L236.19722222222222,164.9201950465079L236.83906249999998,164.28081881519523L237.48090277777777,164.39710632237484L238.12274305555556,164.3115586666686L238.76458333333332,164.7695720291403L239.4064236111111,165.44296808744278L240.0482638888889,165.1128350112534L240.69010416666669,165.55541124729905L241.33194444444445,165.6943520209385L241.9737847222222,166.6903110616939L242.615625,166.97717656640037L243.25746527777778,167.01577697221987L243.89930555555554,167.23564339685365L244.54114583333333,166.97193226529947L245.18298611111112,167.2135673521878L245.8248263888889,167.4738023360658L246.46666666666667,168.02268528962466L247.10850694444443,168.26359651777872L247.75034722222222,168.2933946177819L248.3921875,167.4572747064182L249.03402777777777,167.37648319288863L249.67586805555555,168.14997806389405L250.31770833333334,168.1919704293264L250.95954861111113,168.56357701442494L251.60138888888886,169.18891460215252L252.24322916666665,169.44494861122328L252.88506944444444,169.32186432115662L253.52690972222223,169.82370675588805L254.16875,170.10957371676284L254.81059027777778,170.6384612468715L255.45243055555557,171.10694680566615L256.0942708333333,171.66825227507078L256.7361111111111,171.38096242769467L257.3779513888889,171.32208077157543L258.01979166666666,171.52061814478654L258.6616319444444,171.77004116993155L259.30347222222224,171.2884636524341L259.9453125,171.49609395577633L260.58715277777776,171.55845678055852L261.2289930555556,172.00013978848395L261.87083333333334,171.38676976515734L262.5126736111111,171.303291189763L263.15451388888886,171.1602715400925L263.7963541666667,171.90083598101694L264.43819444444443,171.97986023973496L265.08003472222225,171.20356353421656L265.721875,171.2415924315014L266.36371527777777,171.3617823663593L267.00555555555553,171.1746221330478" style="fill: none;" fill="none"></path></g><g><path stroke="rgb(0, 119, 187)" stroke-width="2px" d="M186.13368055555557,141.74613046646118L263.15451388888886,149.56817530624892" style="fill: none;" fill="none"></path></g><g><path stroke="rgb(204, 51, 17)" stroke-width="2px" d="M39.79409722222222,-1.0715522933312331L40.4359375,1.4075057534687208L41.077777777777776,3.0122357058912965L41.71961805555555,6.312335149763961L42.36145833333333,9.640611432871676L43.003298611111106,12.123779696720394L43.64513888888889,14.879058591366116L44.28697916666666,17.94204759193614L44.92881944444444,21.97894818651983L45.57065972222222,24.46226718563254L46.2125,26.915897389454408L46.85434027777777,30.381329432745005L47.496180555555554,33.057290301396364L48.13802083333333,35.22304231395388L48.77986111111111,37.73081428053487L49.421701388888884,40.495106625392005L50.063541666666666,42.71312959106235L50.70538194444444,45.472988721274845L51.34722222222222,49.18399425934107L51.989062499999996,52.6458594270326L52.63090277777778,55.24498398544988L53.27274305555555,58.291330349327836L53.91458333333333,61.02188245268482L54.55642361111111,60.70368344269317L55.19826388888889,63.63939782254186L55.84010416666666,64.98999300711235L56.481944444444444,67.8287769110628L57.12378472222222,70.08764640967003L57.765625,72.93282984046091L58.407465277777774,76.20078644170718L59.049305555555556,75.8104163996254L59.69114583333333,76.79686518184164L60.33298611111111,77.47239569938145L60.974826388888886,78.35561327404194L61.61666666666667,79.61437513147297L62.25850694444444,80.34169169149406L62.900347222222216,81.34679364408461L63.5421875,81.47999880494314L64.18402777777777,83.444278052566L64.82586805555556,84.84650230660829L65.46770833333333,86.27357726052686L66.10954861111111,87.93533167595946L66.75138888888888,90.0033409560145L67.39322916666667,90.56557238577803L68.03506944444445,92.5811486932309L68.67690972222222,92.76303649140046L69.31875,94.339802392336L69.96059027777778,95.4549931116987L70.60243055555556,96.78538915321738L71.24427083333333,97.6940741677174L71.8861111111111,99.73778508064262L72.5279513888889,101.2727459009481L73.16979166666667,103.43943298931043L73.81163194444444,104.13162697053994L74.45347222222222,105.77506883136316L75.0953125,107.64966531902668L75.73715277777778,109.3023086065485L76.37899305555555,111.5830681053908L77.02083333333333,113.38877423314509L77.66267361111112,114.49868921149805L78.30451388888889,114.9238201164277L78.94635416666667,115.01939478413291L79.58819444444444,116.88324745307246L80.23003472222223,119.08358644299182L80.871875,119.50076696410581L81.51371527777778,119.90287570431107L82.15555555555555,121.56664893735737L82.79739583333334,122.4216042855469L83.4392361111111,123.86780006263356L84.08107638888889,126.02598653984607L84.72291666666666,127.12422195905475L85.36475694444445,128.04551253351397L86.00659722222221,128.6692954007258L86.6484375,130.7076303366679L87.29027777777777,131.71128671254738L87.93211805555556,132.8386377937044L88.57395833333332,134.0763836811324L89.21579861111111,134.1163662318732L89.85763888888889,134.77705493837053L90.49947916666667,134.28566337507453L91.14131944444443,133.69796234149504L91.78315972222222,135.51012444005582L92.425,135.848738870827L93.06684027777779,137.64831082341686L93.70868055555555,137.91622918454496L94.35052083333333,138.8205949391808L94.99236111111111,138.95967127736762L95.6342013888889,139.67066630889784L96.27604166666666,139.97931544923418L96.91788194444445,139.67472001215677L97.55972222222222,141.39319907381233L98.20156250000001,141.56085703439015L98.84340277777777,142.4029012967594L99.48524305555556,142.67133211700374L100.12708333333333,143.20096121316598L100.76892361111112,143.44791926486562L101.41076388888888,142.61687944675583L102.05260416666667,143.86523133284453L102.69444444444444,144.81217712339537L103.33628472222222,145.0708710814539L103.97812499999999,145.12994952799278L104.61996527777778,143.91360588236367L105.26180555555555,144.32349056600313L105.90364583333333,144.96523276821597L106.5454861111111,145.82779303235884L107.18732638888889,146.10162755093074L107.82916666666667,146.62976209504956L108.47100694444444,147.3574285370876L109.11284722222221,147.67857770921688L109.7546875,148.33291406832362L110.39652777777778,148.30896357376145L111.03836805555555,149.63531352024782L111.68020833333333,150.81452396285383L112.32204861111111,150.77770352439217L112.96388888888889,151.8053123041471L113.60572916666666,152.40189585638188L114.24756944444444,152.31191575241772L114.88940972222223,152.63013696972502L115.53125,153.42249771114595L116.17309027777777,153.6605672103763L116.81493055555555,153.51422420926886L117.45677083333334,153.22952280498626L118.09861111111111,153.63095241058315L118.74045138888889,153.89547978344334L119.38229166666666,154.34401666712623L120.02413194444445,153.88751489041968L120.66597222222222,154.74557958623907L121.3078125,153.7933646049988L121.94965277777777,154.5198197846125L122.59149305555556,154.25060267135623L123.23333333333333,155.18589294975965L123.87517361111111,155.40544649102856L124.51701388888888,155.22430271667162L125.15885416666667,155.80955331113296L125.80069444444443,156.34421177981713L126.44253472222222,157.39392481859042L127.084375,157.70794720986933L127.72621527777778,152.49891114458876L128.36805555555554,153.32024231719967L129.00989583333333,153.78660198679958L129.65173611111112,154.1873607663864L130.29357638888888,154.5617573347958L130.93541666666667,155.61668059233628L131.57725694444443,156.2867155572576L132.21909722222222,156.41637693891533L132.8609375,157.55059743850217L133.50277777777777,157.99857667070177L134.14461805555555,158.66857459265904L134.78645833333334,160.2384550179972L135.42829861111113,160.68933106512316L136.0701388888889,161.4462262784794L136.71197916666665,160.0063192389097L137.35381944444444,159.36123176589902L137.99565972222223,158.91747531259313L138.6375,158.8125637265934L139.27934027777778,158.68751525871912L139.92118055555557,158.1783683804253L140.56302083333335,158.18257483794494L141.20486111111111,158.77379146209105L141.84670138888887,159.17146963492388L142.48854166666666,158.77687248831995L143.13038194444445,159.26813409011802L143.7722222222222,160.60390355423314L144.4140625,159.253451615736L145.0559027777778,159.71435080131326L145.69774305555558,159.90313734209357L146.33958333333334,158.82355101301246L146.9814236111111,158.89046193538232L147.62326388888889,158.98244051152597L148.26510416666665,156.33177544861542L148.90694444444443,157.6186118610639L149.54878472222222,158.46290277678625L150.190625,158.8807300633654L150.8324652777778,158.96556867285207L151.47430555555556,159.54649614635431L152.11614583333332,160.0480187412144L152.7579861111111,158.41297743903775L153.39982638888887,159.52813194805088L154.04166666666666,159.82779973401222L154.68350694444445,159.07097083312846L155.32534722222223,159.5266468248064L155.96718750000002,160.01552597276753L156.60902777777778,161.14498592529452L157.25086805555554,162.43407154740441L157.89270833333333,163.15140639792878L158.53454861111112,163.2061952531562L159.17638888888888,164.18671356782764L159.81822916666667,163.44909833902412L160.46006944444446,163.37651679725846L161.10190972222225,164.30818526445378L161.74375,164.15625780462054L162.38559027777777,163.72026863431353L163.02743055555555,163.48563597438383L163.66927083333334,163.5965343986433L164.3111111111111,164.1927542353604L164.9529513888889,164.15845337732264L165.59479166666668,164.4680472035975L166.23663194444447,164.21737655812845L166.8784722222222,163.47430912255317L167.5203125,162.81065636910975L168.16215277777778,164.4295207507764L168.80399305555557,164.85842770040662L169.44583333333333,165.94800836483915L170.08767361111111,165.19307893269115L170.7295138888889,165.21168171568908L171.3713541666667,164.69045003274155L172.01319444444442,164.13777597355232L172.6550347222222,163.87904900699942L173.296875,165.05174825856966L173.9387152777778,165.1159195396356L174.58055555555555,165.9850867305117L175.22239583333334,165.9519458717799L175.86423611111113,166.05547825726765L176.5060763888889,166.76025155175324L177.14791666666665,167.15111307830452L177.78975694444443,167.5612865503236L178.43159722222222,168.12121028053173L179.0734375,168.39355232338497L179.71527777777777,168.22218983136594L180.35711805555556,168.78670684481114L180.99895833333335,168.7717377734791L181.64079861111114,168.25699770944007L182.28263888888887,168.46612180467625L182.92447916666666,168.9563348107711L183.56631944444445,169.37213497631654L184.20815972222223,169.27983711296716L184.85,168.77372102676318L185.49184027777778,168.53842354448065L186.13368055555557,169.05680260763796L186.77552083333333,169.33868073434766L187.4173611111111,168.8654611672648L188.05920138888888,169.91873493750327L188.70104166666667,169.83577200601124L189.34288194444446,170.1047175727148L189.98472222222222,169.75807463763442L190.6265625,169.3855757534259L191.2684027777778,169.55642046732686L191.91024305555555,170.18204070233602L192.55208333333331,170.52213472783117" style="fill: none;" fill="none"></path></g><g><path stroke="rgb(0, 153, 136)" stroke-width="2px" d="M186.13368055555557,158.5816327163151Z" style="fill: none;" fill="none"></path></g><g><path stroke="rgb(51, 187, 238)" stroke-width="2px" d="M32.73385416666667,98.07697248458862L33.37569444444444,94.60182019620828L34.01753472222222,93.4701096104685L34.659375,96.78930695874818L35.30121527777778,99.40965659992095L35.94305555555555,102.73096079058645L36.584895833333334,96.94053230910887L37.22673611111111,95.1084505693249L37.86857638888889,95.99386629542703L38.510416666666664,97.10956116838977L39.152256944444446,97.16129026537577L39.79409722222222,76.32610806531629L40.4359375,60.529818447008694L41.077777777777776,47.442149829863126L41.71961805555555,37.66248782985665L42.36145833333333,29.27280995237057L43.003298611111106,21.69576946453064L43.64513888888889,16.57075235974671L44.28697916666666,11.605264185020562L44.92881944444444,9.655519610717596L45.57065972222222,5.997182978143632L46.2125,2.7369481491249332L46.85434027777777,-0.12491117378577554L56.481944444444444,-0.4673499965537935L57.12378472222222,1.6326732946890585L57.765625,4.2601130845913815L58.407465277777774,6.73431495688478L59.049305555555556,8.712371592036622L59.69114583333333,11.477317475093026L60.33298611111111,10.527692053917118L60.974826388888886,12.705208138696387L61.61666666666667,15.410669751653652L62.25850694444444,17.133264256925205L62.900347222222216,18.797442607925692L63.5421875,20.741611179702574L64.18402777777777,21.026242377027046L64.82586805555556,22.536431497534227L65.46770833333333,22.474393451756107L66.10954861111111,23.822957024973018L66.75138888888888,25.79319517058215L67.39322916666667,27.038901185720107L68.03506944444445,29.474470596686153L68.67690972222222,31.216391387314218L69.31875,31.59188351141753L69.96059027777778,34.08292360192067L70.60243055555556,36.40843267737512L71.24427083333333,37.70271973391523L71.8861111111111,39.94820833218437L72.5279513888889,41.53279035689734L73.16979166666667,42.81237610532473L73.81163194444444,44.300971146882155L74.45347222222222,45.97177235692139L75.0953125,46.47910259118492L75.73715277777778,48.04732126385655L76.37899305555555,49.04525664433804L77.02083333333333,49.936356612637255L77.66267361111112,50.544773850838794L78.30451388888889,52.55983017278494L78.94635416666667,53.64245544781759L79.58819444444444,55.450102521031575L80.23003472222223,56.118543386337414L80.871875,57.48857996552645L81.51371527777778,59.30099254914072L82.15555555555555,60.89535117011335L82.79739583333334,62.50332662393661L83.4392361111111,63.03462370382043L84.08107638888889,64.19406310590493L84.72291666666666,66.09651938947191L85.36475694444445,65.05580069827462L86.00659722222221,64.08920156935385L86.6484375,65.44983519889577L87.29027777777777,67.12756740663265L87.93211805555556,67.18484699474416L88.57395833333332,67.87727875000972L89.21579861111111,68.66694328607323L89.85763888888889,70.63753369593341L90.49947916666667,71.64566386943254L91.14131944444443,73.09218984503491L91.78315972222222,74.28854523469599L92.425,75.06134344759978L93.06684027777779,75.88906306357191L93.70868055555555,76.88374628944956L94.35052083333333,77.32842282405403L94.99236111111111,78.99804889936969L95.6342013888889,78.26461366814137L96.27604166666666,78.55379390265809L96.91788194444445,78.1867214118153L97.55972222222222,79.49752642375809L98.20156250000001,80.23655323399677L98.84340277777777,81.97374857972663L99.48524305555556,82.1081534338373L100.12708333333333,83.62670577041796L100.76892361111112,84.17388652137608L101.41076388888888,85.54907946854253L102.05260416666667,86.16842617736252L102.69444444444444,87.31692710778962L103.33628472222222,87.76161258097665L103.97812499999999,89.17404938249486L104.61996527777778,90.18333594336805L105.26180555555555,91.32490025899399L105.90364583333333,92.8964240575406L106.5454861111111,94.26941436507866L107.18732638888889,94.6146232867059L107.82916666666667,93.83570367524625L108.47100694444444,95.01123899574235L109.11284722222221,96.38073534432543L109.7546875,96.96609547302387L110.39652777777778,97.72339253214123L111.03836805555555,98.00614552179862L111.68020833333333,97.23551836702276L112.32204861111111,96.98830816763066L112.96388888888889,96.91536216443811L113.60572916666666,97.44789552420313L114.24756944444444,97.94950296875749L114.88940972222223,98.48866257889657L115.53125,97.69813940413916L116.17309027777777,98.97564821132383L116.81493055555555,99.65407766101427L117.45677083333334,100.8176251115701L118.09861111111111,100.23999077185476L118.74045138888889,100.929480572551L119.38229166666666,101.00238648156024L120.02413194444445,101.93712206639141L120.66597222222222,103.49411367048766L121.3078125,104.21120592992274L121.94965277777777,104.53918677739902L122.59149305555556,104.87355415689122L123.23333333333333,106.2320728422384L123.87517361111111,107.46268979931746L124.51701388888888,107.69118484140354L125.15885416666667,108.21941669238392L125.80069444444443,108.48251902119095L126.44253472222222,109.53474114337878L127.084375,109.09956546613202L127.72621527777778,109.74677502636118L128.36805555555554,110.3968255430088L129.00989583333333,110.4543936385312L129.65173611111112,110.61017951116374L130.29357638888888,111.15058848674899L130.93541666666667,111.0941505490102L131.57725694444443,110.91886556291516L132.21909722222222,111.890711119584L132.8609375,112.99596685487968L133.50277777777777,114.11229703302953L134.14461805555555,113.04510941608942L134.78645833333334,113.19952022551735L135.42829861111113,113.8549640275223L136.0701388888889,114.32655797764981L136.71197916666665,114.03138616058763L137.35381944444444,114.77307302337752L137.99565972222223,115.73128320938967L138.6375,116.9974323991467L139.27934027777778,117.59609098117075L139.92118055555557,117.73703001855063L140.56302083333335,117.45775120281239L141.20486111111111,117.86985690532762L141.84670138888887,118.15660798817011L142.48854166666666,118.65079811425414L143.13038194444445,118.83498635402518L143.7722222222222,119.81129514813448L144.4140625,119.58779409412983L145.0559027777778,119.23369421097246L145.69774305555558,119.31782438031662L146.33958333333334,118.42767934617996L146.9814236111111,118.42003437765443L147.62326388888889,118.76041209172102L148.26510416666665,119.25841008166834L148.90694444444443,119.24239506104307L149.54878472222222,119.70076348609312L150.190625,119.75522948985031L150.8324652777778,120.26675451241017L151.47430555555556,121.02205427219693L152.11614583333332,121.90714339607612L152.7579861111111,122.55494296350543L153.39982638888887,123.44049904334106L154.04166666666666,123.50236904071033L154.68350694444445,123.97704436816443L155.32534722222223,123.530454603199L155.96718750000002,122.69477311079655L156.60902777777778,122.68858708559614L157.25086805555554,122.79649972687601L157.89270833333333,123.4536847322566L158.53454861111112,123.50155425423374L159.17638888888888,122.18123701569029L159.81822916666667,121.18893622106901L160.46006944444446,121.25717565597249L161.10190972222225,121.82995642171691L161.74375,121.26866576242618L162.38559027777777,121.69525309102012L163.02743055555555,122.15713945066366L163.66927083333334,122.39449961586304L164.3111111111111,122.32379954573908L164.9529513888889,122.98908959374639L165.59479166666668,122.93109042707997L166.23663194444447,123.5165891626517L166.8784722222222,123.22163824302791L167.5203125,123.44453473971501L168.16215277777778,123.88414233099098L168.80399305555557,124.83965510423519L169.44583333333333,125.11153743364018L170.08767361111111,125.7347322498668L170.7295138888889,126.07757733476389L171.3713541666667,125.95740851484993L172.01319444444442,125.52763430679872L172.6550347222222,124.79667739181716L173.296875,124.54750210350275L173.9387152777778,123.6804641838065L174.58055555555555,124.82938833155087L175.22239583333334,124.3830735079309L175.86423611111113,124.54319824341692L176.5060763888889,125.4297137269981L177.14791666666665,125.68051953285354L177.78975694444443,125.77687332493424L178.43159722222222,125.91687253407328L179.0734375,126.59180032503461L179.71527777777777,127.0144834019838L180.35711805555556,126.50828859283887L180.99895833333335,126.04139319041592L181.64079861111114,126.36403709331569L182.28263888888887,124.49256224557597L182.92447916666666,124.9650955185639L183.56631944444445,124.06915000897715L184.20815972222223,124.14278111435667L184.85,124.20727518233551L185.49184027777778,124.16516040324962L186.13368055555557,125.1446859470072L186.77552083333333,125.44956080780999L187.4173611111111,125.3927303713031L188.05920138888888,125.88631340306391L188.70104166666667,126.43592248028162L189.34288194444446,126.31970528018455L189.98472222222222,125.3255684306956L190.6265625,126.36005144870688L191.2684027777778,126.3897595207083L191.91024305555555,125.77111551293515L192.55208333333331,126.28055396884425" style="fill: none;" fill="none"></path></g><g><path stroke="rgb(238, 51, 119)" stroke-width="2px" d="M186.13368055555557,113.83992331368583Z" style="fill: none;" fill="none"></path></g></g></g></g><g opacity="0.2"><g><g><g><path stroke="rgb(255, 112, 67)" stroke-width="2px" d="M32.73385416666667,96.69159180777413L33.37569444444444,98.62563392094204L34.01753472222222,89.05875328608921L34.659375,94.0280910219465L35.30121527777778,117.0508074760437L35.94305555555555,117.36457116263253L36.584895833333334,122.08337903022766L37.22673611111111,103.62675435202462L37.86857638888889,108.79668719427926L38.510416666666664,119.64137445177352L39.152256944444446,127.7475653375898L39.79409722222222,109.68390185492379L40.4359375,94.0319493157523L41.077777777777776,93.07379027775356L41.71961805555555,114.37903547286987L42.36145833333333,121.16069820949009L43.003298611111106,112.94114582879203L43.64513888888889,122.68520654950822L44.28697916666666,126.85517815181187L44.92881944444444,123.15145724160331L45.57065972222222,131.37497643062045L46.2125,124.21884216581071L46.85434027777777,136.2381568295615L47.496180555555554,126.57368547575814L48.13802083333333,138.13622638157437L48.77986111111111,120.93011692592076L49.421701388888884,138.0786895751953L50.063541666666666,140.0833625793457L50.70538194444444,134.1305216380528L51.34722222222222,122.6698638030461L51.989062499999996,144.40824467795235L52.63090277777778,144.5804692677089L53.27274305555555,136.38466950825284L53.91458333333333,139.20961577551705L54.55642361111111,147.44370307241167L55.19826388888889,147.92423548017229L55.84010416666666,143.59886506625583L56.481944444444444,142.34849452972412L57.12378472222222,146.47487344060625L57.765625,148.10791437966483L58.407465277777774,147.38221754346574L59.049305555555556,151.9863557134356L59.69114583333333,142.32444650786263L60.33298611111111,144.23060641969954L60.974826388888886,153.72865871020724L61.61666666666667,152.84450958456313L62.25850694444444,156.71156593731473L62.900347222222216,157.42773761068074L63.5421875,149.43550504956926L64.18402777777777,155.1295539481299L64.82586805555556,147.91915941238403L65.46770833333333,151.95774405343192L66.10954861111111,138.60032486915588L66.75138888888888,163.80841510636466L67.39322916666667,156.04867790426525L68.03506944444445,155.83367749622892L68.67690972222222,164.29773718970162L69.31875,164.5613068853106L69.96059027777778,160.53896023545948L70.60243055555556,142.28309644971574L71.24427083333333,165.06293632302967L71.8861111111111,153.6035233906337L72.5279513888889,152.84172739301408L73.16979166666667,155.74515979630607L73.81163194444444,160.20292394501823L74.45347222222222,58.89546837125506L75.0953125,-99.20495673588343L79.58819444444444,-0.31953907012939453L80.23003472222223,15.938225882393981L80.871875,20.31880004065377L81.51371527777778,19.431862694876525L82.15555555555555,23.94289541244507L82.79739583333334,37.29958513804844L83.4392361111111,34.778081621442524L84.08107638888889,34.37544454847064L84.72291666666666,39.651034355163574L85.36475694444445,54.33996881757464L86.00659722222221,43.28940541403634L86.6484375,60.551616873059956L87.29027777777777,55.9722923551287L87.93211805555556,51.299657412937705L88.57395833333332,54.0810170173645L89.21579861111111,65.29909065791539L89.85763888888889,68.70882163728986L90.49947916666667,64.46187707356044L91.14131944444443,61.996487617492676L91.78315972222222,76.43022005898612L92.425,86.53757531302315L93.06684027777779,83.2304026058742L93.70868055555555,79.95624242510114L94.35052083333333,75.52758428028652L94.99236111111111,86.96913753237042L95.6342013888889,84.41664709363666L96.27604166666666,83.6213321685791L96.91788194444445,96.1370826448713L97.55972222222222,102.25265315600804L98.20156250000001,72.98401614597866L98.84340277777777,87.63740607670375L99.48524305555556,93.31771884645735L100.12708333333333,100.48458399091447L100.76892361111112,102.24402625220162L101.41076388888888,83.86386210577828L102.05260416666667,110.97283724376133L102.69444444444444,100.37142746789115L103.33628472222222,103.34581027712142L103.97812499999999,102.20737848963057L104.61996527777778,101.83741031374251L105.26180555555555,103.31082037517002L105.90364583333333,112.6500496183123L106.5454861111111,112.70846056938171L107.18732638888889,110.53778447423662L107.82916666666667,121.9480493749891L108.47100694444444,122.42018999372209L109.11284722222221,109.21509504318237L109.7546875,115.06062718800136L110.39652777777778,115.48396641867501L111.03836805555555,125.2171756880624L111.68020833333333,120.30142603601729L112.32204861111111,118.2407113143376L112.96388888888889,121.28065497534615L113.60572916666666,120.82526779174805L114.24756944444444,122.65924746649605L114.88940972222223,125.18337341717312L115.53125,127.77003989900862L116.17309027777777,124.34464062963212L116.81493055555555,133.10771206447055L117.45677083333334,132.59569236210416L118.09861111111111,127.26530272620064L118.74045138888889,128.39214154652188L119.38229166666666,132.6621514729091L120.02413194444445,128.46818007741655L120.66597222222222,139.19150590896606L121.3078125,132.97322641100203L121.94965277777777,137.1676198073796L122.59149305555556,142.3310056073325L123.23333333333333,139.33350920677185L123.87517361111111,133.0199841090611L124.51701388888888,131.24249226706368L125.15885416666667,129.4467398439135L125.80069444444443,132.6368133340563L126.44253472222222,137.8765330655234L127.084375,134.77943239893233L127.72621527777778,142.66340364728654L128.36805555555554,139.5193704536983L129.00989583333333,133.50748556000846L129.65173611111112,146.4748191833496L130.29357638888888,141.82066185133797L130.93541666666667,144.99159458705356L131.57725694444443,127.84642808777946L132.21909722222222,126.60803634779793L132.8609375,137.53373571804593L133.50277777777777,130.30384172712053L134.14461805555555,140.38650390080045L134.78645833333334,138.90651665415083L135.42829861111113,132.442035811288L136.0701388888889,138.94150052751814L136.71197916666665,129.9258736201695L137.35381944444444,142.32471779414584L137.99565972222223,126.96644169943673L138.6375,141.07767503602165L139.27934027777778,136.23860897336687L139.92118055555557,133.92222802979606L140.56302083333335,143.42247472490584L141.20486111111111,124.06082694871085L141.84670138888887,144.41720315388272L142.48854166666666,142.87049756731307L143.13038194444445,139.80838680267334L143.7722222222222,146.31535710607255L144.4140625,143.97028010232108L145.0559027777778,142.2147021634238L145.69774305555558,141.00354153769356L146.33958333333334,150.07909257071358L146.9814236111111,144.58978945868355L147.62326388888889,145.64933722359794L148.26510416666665,142.22112260546004L148.90694444444443,140.34158492088318L149.54878472222222,150.01572612353732L150.190625,144.5482645715986L150.8324652777778,144.7094809668405L151.47430555555556,148.77277074541365L152.11614583333332,150.44638405527388L152.7579861111111,154.93819764682223L153.39982638888887,141.5106358868735L154.04166666666666,152.64648265498025L154.68350694444445,147.8163961683001L155.32534722222223,150.8154720578875L155.96718750000002,156.84514127458843L156.60902777777778,140.93472525051664L157.25086805555554,146.79015030179704L157.89270833333333,147.05592043059212L158.53454861111112,144.80255024773734L159.17638888888888,148.26352419172014L159.81822916666667,148.8190521853311L160.46006944444446,148.27514730181014L161.10190972222225,150.6068046774183L161.74375,149.9671960217612L162.38559027777777,148.22648457118441L163.02743055555555,155.19455112729756L163.66927083333334,154.95748911585125L164.3111111111111,154.63230126244682L164.9529513888889,155.3948357616152L165.59479166666668,156.83346390724182L166.23663194444447,148.29492708614896L166.8784722222222,155.8236941610064L167.5203125,148.44084293501717L168.16215277777778,155.69377515997203L168.80399305555557,142.79079968588692L169.44583333333333,155.13579051835197L170.08767361111111,149.96546581813266L170.7295138888889,157.59380098751615L171.3713541666667,149.58410361834933L172.01319444444442,152.60090957369124L172.6550347222222,156.45843172073364L173.296875,151.39274515424455L173.9387152777778,150.9179218155997L174.58055555555555,154.59745001792908L175.22239583333334,158.8416395187378L175.86423611111113,162.66608282497953L176.5060763888889,151.02935416357857L177.14791666666665,148.6116387503488L177.78975694444443,160.32249789578574L178.43159722222222,153.88728281429837L179.0734375,156.3699803352356L179.71527777777777,154.73029589653015L180.35711805555556,144.86749015535628L180.99895833333335,157.55600477967945L181.64079861111114,152.2315502847944L182.28263888888887,148.10721506391252L182.92447916666666,146.42794694219316L183.56631944444445,139.49356208528792L184.20815972222223,154.55581661633084L184.85,156.95404764584134L185.49184027777778,157.73600021430423L186.13368055555557,156.38355972085682L186.77552083333333,142.90480021068026L187.4173611111111,142.1564539841243L188.05920138888888,144.3583038875035L188.70104166666667,146.98531968253L189.34288194444446,145.6715887274061L189.98472222222222,149.6978087425232L190.6265625,146.60698986053467L191.2684027777778,144.10380118233817L191.91024305555555,150.19145332063948L192.55208333333331,150.44945863315036L193.1939236111111,148.56860068866183L193.8357638888889,158.3481968981879L194.47760416666668,155.5004836831774L195.11944444444444,151.89093829904283L195.76128472222223,150.85160739081246L196.40312500000002,154.1708915233612L197.04496527777778,156.1456175361361L197.68680555555554,151.1633334159851L198.32864583333333,149.13824762616838L198.97048611111111,154.65524605342318L199.6123263888889,156.9205046040671L200.25416666666666,160.48473312173573L200.89600694444445,151.3190095424652L201.53784722222224,142.70140181268965L202.1796875,147.42782981055123L202.82152777777776,161.58808156422208L203.46336805555555,158.77278103147236L204.10520833333334,161.0169515950339L204.74704861111113,150.6215023653848L205.38888888888889,152.29881119728088L206.03072916666667,162.33321154117584L206.67256944444443,153.19087886810303L207.31440972222222,157.61408717291695L207.95624999999998,160.19009813240598L208.59809027777777,153.91797433580672L209.23993055555556,158.61869645118713L209.88177083333335,156.2416980947767L210.5236111111111,157.26136074747356L211.1654513888889,167.53293764591217L211.80729166666666,161.50757585253032L212.44913194444445,163.42539504596164L213.0909722222222,164.0127057347979L213.7328125,158.4501191547939L214.37465277777778,158.71696237155368L215.01649305555557,162.653826713562L215.65833333333333,164.09205697263988L216.30017361111112,168.1690527370998L216.94201388888888,149.13063955307007L217.58385416666667,154.07970918927873L218.22569444444443,156.22719935008456L218.86753472222222,161.06398057937622L219.509375,157.28734394482206L220.1512152777778,162.98016602652413L220.79305555555555,160.867105109351L221.43489583333334,162.79380440711975L222.0767361111111,161.4544368982315L222.7185763888889,141.05799773761203L223.36041666666665,162.87585946491788L224.00225694444444,162.23716715403964L224.64409722222223,160.7539907864162L225.28593750000002,159.48186007567813L225.92777777777778,173.5157949072974L226.56961805555557,165.06059421811787L227.21145833333333,161.24474164417813L227.85329861111111,167.58745111737935L228.49513888888887,155.7147214753287L229.13697916666666,169.0848308290754L229.77881944444445,162.3195537839617L230.42065972222224,170.86371225970132L231.0625,162.81342141968864L231.70434027777776,159.8279550586428L232.34618055555555,165.63663145474027L232.98802083333334,167.20029846259524L233.6298611111111,171.86945189748494L234.27170138888889,156.1140699556896L234.91354166666667,170.3475237914494L235.55538194444446,163.97244082178386L236.19722222222222,171.36878703321727L236.83906249999998,158.94471624919345L237.48090277777777,165.36761794771465L238.12274305555556,163.59759552138192L238.76458333333332,168.59205738135745L239.4064236111111,171.0629931347711L240.0482638888889,162.3576122352055L240.69010416666669,169.24906151635307L241.33194444444445,166.85392315047127L241.9737847222222,175.00238043921334L242.615625,169.3712970869882L243.25746527777778,167.33792802265714L243.89930555555554,169.0706033706665L244.54114583333333,164.77105338232857L245.18298611111112,169.2302041053772L245.8248263888889,169.64567000525338L246.46666666666667,172.60354956558774L247.10850694444443,170.27419209480286L247.75034722222222,168.5420834336962L248.3921875,160.47918983868192L249.03402777777777,166.70221383231026L249.67586805555555,174.60540722097667L250.31770833333334,168.5424300772803L250.95954861111113,171.66492916856495L251.60138888888886,174.40785353524345L252.24322916666665,171.58175580842155L252.88506944444444,168.29462814331055L253.52690972222223,174.01198053359985L254.16875,172.49536059583934L254.81059027777778,175.0524478299277L255.45243055555557,175.01683095523288L256.0942708333333,176.3527923141207L256.7361111111111,168.98330043043407L257.3779513888889,170.830666576113L258.01979166666666,173.1775702408382L258.6616319444444,173.8516744545528L259.30347222222224,167.2693167073386L259.9453125,173.22893377712796L260.58715277777776,172.07892409392764L261.2289930555556,175.68633535930087L261.87083333333334,166.26770966393607L262.5126736111111,170.60659616334098L263.15451388888886,169.966658949852L263.7963541666667,178.0814345393862L264.43819444444443,172.6393804550171L265.08003472222225,164.72475084236692L265.721875,171.5589737892151L266.36371527777777,172.36486285073417L267.00555555555553,169.61262130737305" style="fill: none;" fill="none"></path></g><g><path stroke="rgb(0, 119, 187)" stroke-width="2px" d="M186.13368055555557,141.74613046646118L263.15451388888886,156.5532613481794" style="fill: none;" fill="none"></path></g><g><path stroke="rgb(204, 51, 17)" stroke-width="2px" d="M36.584895833333334,-22.776738166809082L37.22673611111111,3.222073214394714L37.86857638888889,9.866754463740763L38.510416666666664,3.3004327501569417L39.152256944444446,15.841430936540874L39.79409722222222,18.547879355294373L40.4359375,16.77647638320923L41.077777777777776,13.329319953918457L41.71961805555555,28.20602069582257L42.36145833333333,32.330753803253174L43.003298611111106,29.458591665540425L43.64513888888889,34.51583821432931L44.28697916666666,40.17132527487618L44.92881944444444,51.74641166414533L45.57065972222222,43.0321295601981L46.2125,45.49162306104388L46.85434027777777,56.90451642445156L47.496180555555554,53.736326694488525L48.13802083333333,52.102568353925435L48.77986111111111,57.424095971243716L49.421701388888884,62.348605155944824L50.063541666666666,60.352480684007915L50.70538194444444,67.53749186652047L51.34722222222222,78.99209097453526L51.989062499999996,80.56887919562203L52.63090277777778,76.28707735879081L53.27274305555555,83.03553465434483L53.91458333333333,83.2662365095956L54.55642361111111,58.104698998587466L55.19826388888889,87.67362580980573L55.84010416666666,76.07007244655064L56.481944444444444,91.16084820883614L57.12378472222222,88.68401650020054L57.765625,96.39054843357631L58.407465277777774,103.17949369975499L59.049305555555556,72.58393519265312L59.69114583333333,84.9585565158299L60.33298611111111,83.06681094850812L60.974826388888886,85.6760665348598L61.61666666666667,90.0552179472787L62.25850694444444,86.3784327507019L62.900347222222216,89.6940816470555L63.5421875,82.58683919906616L64.18402777777777,99.77371747153146L64.82586805555556,96.50835902350289L65.46770833333333,98.14655440194267L66.10954861111111,101.76541696275984L66.75138888888888,107.21965180124556L67.39322916666667,95.24743243626186L68.03506944444445,109.36941473824638L68.67690972222222,94.27834960392543L69.31875,107.47838054384505L69.96059027777778,104.74901747703552L70.60243055555556,107.87461526053292L71.24427083333333,105.26924208232334L71.8861111111111,116.77704344476973L72.5279513888889,114.07172237123763L73.16979166666667,121.5076733657292L73.81163194444444,109.90440334592546L74.45347222222222,119.4821354321071L75.0953125,123.28573792321342L75.73715277777778,123.08790390832084L76.37899305555555,130.6091593674251L77.02083333333333,128.45270470210482L77.66267361111112,123.75845125743321L78.30451388888889,118.4707259110042L78.94635416666667,115.81681057385036L79.58819444444444,132.43456036703927L80.23003472222223,137.44292715617587L80.871875,122.98175259998867L81.51371527777778,123.25817523683821L82.15555555555555,135.44987726211548L82.79739583333334,129.55583912985665L83.4392361111111,135.93587156704496L84.08107638888889,144.03566009657723L84.72291666666666,136.28891147886003L85.36475694444445,135.73369697162082L86.00659722222221,133.8748252732413L86.6484375,147.71788910457065L87.29027777777777,140.08704001562936L87.93211805555556,142.2467199734279L88.57395833333332,144.40580912998746L89.21579861111111,134.4500365938459L89.85763888888889,140.29079410008023L90.49947916666667,130.1847651345389L91.14131944444443,128.79329558781217L91.78315972222222,150.63360173361642L92.425,138.67466936792647L93.06684027777779,152.66680802617753L93.70868055555555,140.15217283793856L94.35052083333333,146.3681011881147L94.99236111111111,140.12035397120883L95.6342013888889,145.6043941293444L96.27604166666666,142.55520262037004L96.91788194444445,137.13266004834855L97.55972222222222,155.73511617524284L98.20156250000001,142.96008232661654L98.84340277777777,149.43036869594027L99.48524305555556,144.9115832192557L100.12708333333333,147.6211062158857L100.76892361111112,145.50896767207553L101.41076388888888,135.68123020444597L102.05260416666667,154.28366824558805L102.69444444444444,152.71515727043152L103.33628472222222,147.22986919539315L103.97812499999999,145.62300436837333L104.61996527777778,133.7622836657933L105.26180555555555,147.74429430280412L105.90364583333333,150.32106787817818L106.5454861111111,153.02652760914395L107.18732638888889,148.38698959350586L107.82916666666667,151.03745658057076L108.47100694444444,153.43037341322218L109.11284722222221,150.35881887163436L109.7546875,153.79386387552535L110.39652777777778,148.10907789639066L111.03836805555555,160.7047462974276L111.68020833333333,160.65596299512046L112.32204861111111,150.47040796279907L112.96388888888889,160.3815177338464L113.60572916666666,157.38085632664817L114.24756944444444,151.56096073559354L114.88940972222223,155.2859444618225L115.53125,160.03537452220917L116.17309027777777,155.64744549138206L116.81493055555555,152.29287605626243L117.45677083333334,150.8534641947065L118.09861111111111,156.98120038849967L118.74045138888889,156.10317027568817L119.38229166666666,158.08741240842002L120.02413194444445,150.07764571053642L120.66597222222222,161.9068097897938L121.3078125,145.84637546539307L121.94965277777777,160.5826644556863L122.59149305555556,152.00377229281833L123.23333333333333,162.99163239342826L123.87517361111111,157.23779501233784L124.51701388888888,153.7125141620636L125.15885416666667,160.69393403189522L125.80069444444443,160.80636109624592L126.44253472222222,166.15461342675346L127.084375,160.32871336596352L127.72621527777778,109.02536947386605L128.36805555555554,160.17490308625358L129.00989583333333,157.67874373708455L129.65173611111112,157.53201101507457L130.29357638888888,157.68639401027133L130.93541666666667,164.42085293361117L131.57725694444443,161.878689459392L132.21909722222222,157.4985041448048L132.8609375,167.01656832013813L133.50277777777777,161.73731916291374L134.14461805555555,164.26023939677646L134.78645833333334,173.34035406793865L135.42829861111113,164.4522497994559L136.0701388888889,167.76311802864075L136.71197916666665,147.98915127345492L137.35381944444444,153.97746440342496L137.99565972222223,155.2139752251761L138.6375,157.93699320725034L139.27934027777778,157.64388646398274L139.92118055555557,153.92913324492318L140.56302083333335,158.21768106733052L141.20486111111111,163.70796382427216L141.84670138888887,162.490409885134L142.48854166666666,155.48364584786552L143.13038194444445,163.36810239723752L143.7722222222222,171.75196082251412L144.4140625,147.98285743168424L145.0559027777778,163.56092063018252L145.69774305555558,161.47871099199565L146.33958333333334,149.81354549952914L146.9814236111111,159.44888673509868L147.62326388888889,159.75007479531425L148.26510416666665,134.20986986160278L148.90694444444443,168.35828396252225L149.54878472222222,165.50918115888325L150.190625,162.36783068520683L150.8324652777778,159.67361426353455L151.47430555555556,164.39479739325387L152.11614583333332,164.2336231981005L152.7579861111111,144.76725891658236L153.39982638888887,168.83498219081332L154.04166666666666,162.32876546042306L154.68350694444445,152.75463243893216L155.32534722222223,163.32962495940072L155.96718750000002,164.0956108229501L156.60902777777778,170.57122646059307L157.25086805555554,173.19251510075162L157.89270833333333,169.13813556943623L158.53454861111112,163.6634517737797L159.17638888888888,172.36991781847817L159.81822916666667,157.29311329977853L160.46006944444446,162.77076617309024L161.10190972222225,172.08369873251232L161.74375,162.8883024624416L162.38559027777777,160.08159266199382L163.02743055555555,161.52744003704618L163.66927083333334,164.52206984588076L164.3111111111111,169.16868240492684L164.9529513888889,163.8721854686737L165.59479166666668,167.05185362270902L166.23663194444447,162.125330890928L166.8784722222222,157.27282108579365L167.5203125,157.27194694110324L168.16215277777778,177.9402300289699L168.80399305555557,168.43799691540855L169.44583333333333,175.04142456395286L170.08767361111111,158.8925931113107L170.7295138888889,165.36693671771457L171.3713541666667,160.34035757609774L172.01319444444442,159.52527190957753L172.6550347222222,161.71976694038938L173.296875,174.83885509627206L173.9387152777778,165.65147985730854L174.58055555555555,173.2389773981912L175.22239583333334,165.675359078816L175.86423611111113,166.91953825950623L176.5060763888889,172.6421445608139L177.14791666666665,170.41316301482064L177.78975694444443,170.98451001303536L178.43159722222222,172.79421860831124L179.0734375,170.66646301746368L179.71527777777777,166.79203370639254L180.35711805555556,173.49804977008273L180.99895833333335,168.64680898189545L181.64079861111114,163.96108296939303L182.28263888888887,170.21142850603374L182.92447916666666,173.0475517681667L183.56631944444445,172.84231766632627L184.20815972222223,168.50953812258584L184.85,164.54978023256572L185.49184027777778,166.57467913627625L186.13368055555557,173.38308768612998L186.77552083333333,171.69117762361256L187.4173611111111,164.9160679578781L188.05920138888888,178.70914126294L188.70104166666667,169.14338043757846L189.34288194444446,172.3492819752012L189.98472222222222,166.86506397383553L190.6265625,166.2767766543797L191.2684027777778,170.98225532259258L191.91024305555555,175.4033385515213L192.55208333333331,173.3604895387377" style="fill: none;" fill="none"></path></g><g><path stroke="rgb(0, 153, 136)" stroke-width="2px" d="M186.13368055555557,158.5816327163151Z" style="fill: none;" fill="none"></path></g><g><path stroke="rgb(51, 187, 238)" stroke-width="2px" d="M32.73385416666667,98.07697248458862L33.37569444444444,91.49850920268467L34.01753472222222,91.55701058251518L34.659375,104.76391410827637L35.30121527777778,107.37157814843314L35.94305555555555,114.70883519308907L36.584895833333334,73.12163666316441L37.22673611111111,86.74252305712018L37.86857638888889,100.39504746028355L38.510416666666664,103.0583131313324L39.152256944444446,97.45378569194249L39.79409722222222,-47.483877182006836L50.063541666666666,-10.002964292253784L50.70538194444444,1.514512947627482L51.34722222222222,-6.074618339538574L51.989062499999996,-3.1498869487217607L52.63090277777778,2.0399040494646403L53.27274305555555,-20.972792897905638L53.91458333333333,10.091560363769531L54.55642361111111,9.79436322620937L55.19826388888889,1.6881723403930664L55.84010416666666,11.116781370980407L56.481944444444444,15.398534979139058L57.12378472222222,18.92132602419171L57.765625,25.922598021371034L58.407465277777774,27.160157816750672L59.049305555555556,25.061378615243104L59.69114583333333,34.35395867483956L60.33298611111111,2.663356099809916L60.974826388888886,30.75331449508667L61.61666666666667,37.85121263776507L62.25850694444444,31.43083088738578L62.900347222222216,32.61830520629883L63.5421875,36.89627286366054L64.18402777777777,23.39243745803833L64.82586805555556,35.09619794573102L65.46770833333333,21.958249364580425L66.10954861111111,35.04648624147687L66.75138888888888,42.19555500575474L67.39322916666667,37.412247317177915L68.03506944444445,49.76096984318325L68.67690972222222,45.728389671870644L69.31875,34.72071361541748L69.96059027777778,54.84330735887799L70.60243055555556,55.79220649174282L71.24427083333333,48.49242312567574L71.8861111111111,58.66977024078369L72.5279513888889,54.74552372523716L73.16979166666667,53.482981477464946L73.81163194444444,56.71559265681675L74.45347222222222,59.907028606959756L75.0953125,50.71076120649066L75.73715277777778,61.128684997558594L76.37899305555555,57.3700316292899L77.02083333333333,57.37027277265277L77.66267361111112,55.62065710340228L78.30451388888889,69.37162828445435L78.94635416666667,62.6752097266061L79.58819444444444,70.53245626177106L80.23003472222223,61.69592653002057L80.871875,68.92026819501605L81.51371527777778,74.42423282350812L82.15555555555555,74.1993545804705L82.79739583333334,75.9211905343192L83.4392361111111,67.46813903536115L84.08107638888889,73.86937400272915L84.72291666666666,81.97236973898751L85.36475694444445,56.37098673411778L86.00659722222221,56.02283600398472L86.6484375,76.80455895832607L87.29027777777777,81.12864528383527L87.93211805555556,67.6628623008728L88.57395833333332,73.65586566925049L89.21579861111111,75.25700936998639L89.85763888888889,87.08298131397792L90.49947916666667,80.05899361201695L91.14131944444443,85.16419151851109L91.78315972222222,84.27278096335274L92.425,81.51078517096383L93.06684027777779,82.79687506811959L93.70868055555555,85.184990133558L94.35052083333333,81.03953075408936L94.99236111111111,92.93216678074428L95.6342013888889,72.14360741206578L96.27604166666666,80.96719980239868L96.91788194444445,75.12324714660645L97.55972222222222,90.4371166910444L98.20156250000001,86.4042592048645L98.84340277777777,96.47189814703805L99.48524305555556,83.22986003330776L100.12708333333333,96.30014378683907L100.76892361111112,88.74051639011928L101.41076388888888,97.02609382356917L102.05260416666667,91.33734103611538L102.69444444444444,96.90203762054443L103.33628472222222,91.47285154887608L103.97812499999999,100.9619152205331L104.61996527777778,98.60660770961216L105.26180555555555,100.85213470458984L105.90364583333333,106.01200584002903L106.5454861111111,105.72808364459446L107.18732638888889,97.4956602369036L107.82916666666667,87.33501229967389L108.47100694444444,104.82199951580593L109.11284722222221,107.81025409698486L109.7546875,101.8513845716204L110.39652777777778,104.04363094057356L111.03836805555555,100.36594145638603L111.68020833333333,90.80402837480818L112.32204861111111,94.92514433179582L112.96388888888889,96.30657025745937L113.60572916666666,101.8923066002982L114.24756944444444,102.13581316811698L114.88940972222223,102.98837552751814L115.53125,91.1005985396249L116.17309027777777,109.63746970040458L116.81493055555555,105.31610829489571L117.45677083333334,110.52834974016463L118.09861111111111,95.41917473929269L118.74045138888889,106.68381919179643L119.38229166666666,101.61084406716483L120.02413194444445,109.73823145457676L120.66597222222222,116.48844306809562L121.3078125,110.19590950012207L121.94965277777777,107.2764470917838L122.59149305555556,107.66411519050598L123.23333333333333,117.56998913628715L123.87517361111111,117.73316482135228L124.51701388888888,109.59815730367387L125.15885416666667,112.62793074335372L125.80069444444443,110.67831679752895L126.44253472222222,118.31637004443577L127.084375,105.46767895562309L127.72621527777778,115.1482526574816L128.36805555555554,115.82201324190413L129.00989583333333,110.9348451069423L129.65173611111112,111.91033632414681L130.29357638888888,115.66073053223747L130.93541666666667,110.62313113893782L131.57725694444443,109.45597314834595L132.21909722222222,120.00153412137712L132.8609375,122.22020377431596L133.50277777777777,123.42895899500166L134.14461805555555,104.13858113970076L134.78645833333334,114.48820107323783L135.42829861111113,119.32516316005162L136.0701388888889,118.26238407407487L136.71197916666665,111.5679428918021L137.35381944444444,120.9630390235356L137.99565972222223,123.72830833707536L138.6375,127.564453125L139.27934027777778,122.59237238339016L139.92118055555557,118.91327823911394L140.56302083333335,115.12694764137268L141.20486111111111,121.30920634950911L141.84670138888887,120.54977355684554L142.48854166666666,122.77520728111267L143.13038194444445,120.37218352726528L143.7722222222222,127.9593675817762L144.4140625,117.72250025612968L145.0559027777778,116.2784493991307L145.69774305555558,120.01995747429984L146.33958333333334,110.99871192659651L146.9814236111111,118.35623104231698L147.62326388888889,121.60113450459072L148.26510416666665,123.41459890774318L148.90694444444443,119.10873699188232L149.54878472222222,123.52621211324418L150.190625,120.20979155812944L150.8324652777778,124.53583717346191L151.47430555555556,127.32563076700484L152.11614583333332,129.29391523769925L152.7579861111111,127.96134495735168L153.39982638888887,130.83116800444466L154.04166666666666,124.01872331755501L154.68350694444445,127.93858705248152L155.32534722222223,119.8033082485199L155.96718750000002,115.7203472001212L156.60902777777778,122.63695979118347L157.25086805555554,123.69711644308907L157.89270833333333,128.93841566358293L158.53454861111112,123.90106344223022L159.17638888888888,111.16214081219265L159.81822916666667,112.90739781515938L160.46006944444446,121.82668794904436L161.10190972222225,126.61026692390442L161.74375,116.58424932616097L162.38559027777777,125.25546322550093L163.02743055555555,126.0119480405535L163.66927083333334,124.37545875140599L164.3111111111111,121.73375129699707L164.9529513888889,128.54146354539054L165.59479166666668,122.44704130717686L166.23663194444447,128.40304122652327L166.8784722222222,120.76003851209367L167.5203125,125.30478307179042L168.16215277777778,127.55301690101624L168.80399305555557,132.81416824885775L169.44583333333333,127.38061145373753L170.08767361111111,130.93578805242265L170.7295138888889,128.93889192172458L171.3713541666667,124.9545042514801L172.01319444444442,121.94082713127136L172.6550347222222,118.69626126970564L173.296875,122.46793637956893L173.9387152777778,116.4443439756121L174.58055555555555,134.41807304109847L175.22239583333334,120.65822175570896L175.86423611111113,125.87956636292594L176.5060763888889,132.82838967868258L177.14791666666665,127.77369322095598L177.78975694444443,126.58102226257324L178.43159722222222,127.08527714865548L179.0734375,132.22460889816284L179.71527777777777,130.54210945538114L180.35711805555556,122.28369079317366L180.99895833333335,122.14478015899658L181.64079861111114,129.0567567689078L182.28263888888887,108.87361795561654L182.92447916666666,128.90876105853488L183.56631944444445,116.5917729990823L184.20815972222223,124.7572911807469L184.85,124.74552941322327L185.49184027777778,123.81367911611284L186.13368055555557,133.31960473741805L186.77552083333333,127.99398371151516L187.4173611111111,124.9184352329799L188.05920138888888,130.00565590177263L188.70104166666667,131.02284683500017L189.34288194444446,125.34978042330061L189.98472222222222,117.02870668683732L190.6265625,134.9936340195792L191.2684027777778,126.63769698143005L191.91024305555555,120.60803982189724L192.55208333333331,130.53222257750375" style="fill: none;" fill="none"></path></g><g><path stroke="rgb(238, 51, 119)" stroke-width="2px" d="M186.13368055555557,113.83992331368583Z" style="fill: none;" fill="none"></path></g></g></g></g></g></g><g transform="translate(41, 177)" clip-path="url(#clip_1)"><clipPath id="clip_1"><rect width="288" height="23"></rect></clipPath><g><g><line x1="0" y1="0" x2="0" y2="5" style="visibility: inherit;" fill="rgb(0, 0, 0)" stroke="rgb(204, 204, 204)" stroke-width="1px"></line><line x1="32.092013888888886" y1="0" x2="32.092013888888886" y2="5" style="visibility: inherit;" fill="rgb(0, 0, 0)" stroke="rgb(204, 204, 204)" stroke-width="1px"></line><line x1="64.18402777777777" y1="0" x2="64.18402777777777" y2="5" style="visibility: inherit;" fill="rgb(0, 0, 0)" stroke="rgb(204, 204, 204)" stroke-width="1px"></line><line x1="96.27604166666666" y1="0" x2="96.27604166666666" y2="5" style="visibility: inherit;" fill="rgb(0, 0, 0)" stroke="rgb(204, 204, 204)" stroke-width="1px"></line><line x1="128.36805555555554" y1="0" x2="128.36805555555554" y2="5" style="visibility: inherit;" fill="rgb(0, 0, 0)" stroke="rgb(204, 204, 204)" stroke-width="1px"></line><line x1="160.46006944444446" y1="0" x2="160.46006944444446" y2="5" style="visibility: inherit;" fill="rgb(0, 0, 0)" stroke="rgb(204, 204, 204)" stroke-width="1px"></line><line x1="192.55208333333331" y1="0" x2="192.55208333333331" y2="5" style="visibility: inherit;" fill="rgb(0, 0, 0)" stroke="rgb(204, 204, 204)" stroke-width="1px"></line><line x1="224.64409722222223" y1="0" x2="224.64409722222223" y2="5" style="visibility: inherit;" fill="rgb(0, 0, 0)" stroke="rgb(204, 204, 204)" stroke-width="1px"></line><line x1="256.7361111111111" y1="0" x2="256.7361111111111" y2="5" style="visibility: inherit;" fill="rgb(0, 0, 0)" stroke="rgb(204, 204, 204)" stroke-width="1px"></line><line x1="288.828125" y1="0" x2="288.828125" y2="5" style="visibility: inherit;" fill="rgb(0, 0, 0)" stroke="rgb(204, 204, 204)" stroke-width="1px"></line></g><g transform="translate(0, 8)"><text x="0" y="0" dx="0em" dy="0.95em" style="text-anchor: middle; visibility: hidden; font-family: Roboto, sans-serif; font-size: 12px; font-weight: 200;" fill="rgb(33, 33, 33)" stroke="none" stroke-width="1px">-5k</text><text x="32.092013888888886" y="0" dx="0em" dy="0.95em" style="text-anchor: middle; visibility: inherit; font-family: Roboto, sans-serif; font-size: 12px; font-weight: 200;" fill="rgb(33, 33, 33)" stroke="none" stroke-width="1px">0</text><text x="64.18402777777777" y="0" dx="0em" dy="0.95em" style="text-anchor: middle; visibility: inherit; font-family: Roboto, sans-serif; font-size: 12px; font-weight: 200;" fill="rgb(33, 33, 33)" stroke="none" stroke-width="1px">5k</text><text x="96.27604166666666" y="0" dx="0em" dy="0.95em" style="text-anchor: middle; visibility: inherit; font-family: Roboto, sans-serif; font-size: 12px; font-weight: 200;" fill="rgb(33, 33, 33)" stroke="none" stroke-width="1px">10k</text><text x="128.36805555555554" y="0" dx="0em" dy="0.95em" style="text-anchor: middle; visibility: inherit; font-family: Roboto, sans-serif; font-size: 12px; font-weight: 200;" fill="rgb(33, 33, 33)" stroke="none" stroke-width="1px">15k</text><text x="160.46006944444446" y="0" dx="0em" dy="0.95em" style="text-anchor: middle; visibility: inherit; font-family: Roboto, sans-serif; font-size: 12px; font-weight: 200;" fill="rgb(33, 33, 33)" stroke="none" stroke-width="1px">20k</text><text x="192.55208333333331" y="0" dx="0em" dy="0.95em" style="text-anchor: middle; visibility: inherit; font-family: Roboto, sans-serif; font-size: 12px; font-weight: 200;" fill="rgb(33, 33, 33)" stroke="none" stroke-width="1px">25k</text><text x="224.64409722222223" y="0" dx="0em" dy="0.95em" style="text-anchor: middle; visibility: inherit; font-family: Roboto, sans-serif; font-size: 12px; font-weight: 200;" fill="rgb(33, 33, 33)" stroke="none" stroke-width="1px">30k</text><text x="256.7361111111111" y="0" dx="0em" dy="0.95em" style="text-anchor: middle; visibility: inherit; font-family: Roboto, sans-serif; font-size: 12px; font-weight: 200;" fill="rgb(33, 33, 33)" stroke="none" stroke-width="1px">35k</text><text x="288.828125" y="0" dx="0em" dy="0.95em" style="text-anchor: middle; visibility: hidden; font-family: Roboto, sans-serif; font-size: 12px; font-weight: 200;" fill="rgb(33, 33, 33)" stroke="none" stroke-width="1px">40k</text></g><line x1="0" y1="0" x2="288.828125" y2="0" fill="rgb(0, 0, 0)" stroke="rgb(204, 204, 204)" stroke-width="1px"></line></g></g></g></g></svg>