<svg viewBox="0 0 330 200" xmlns="http://www.w3.org/2000/svg"><g><g><g><g><g><line x1="51.5625" y1="177" x2="46.5625" y2="177" style="visibility: inherit;" fill="rgb(0, 0, 0)" stroke="rgb(204, 204, 204)" stroke-width="1px"></line><line x1="51.5625" y1="160.90909090909093" x2="46.5625" y2="160.90909090909093" style="visibility: inherit;" fill="rgb(0, 0, 0)" stroke="rgb(204, 204, 204)" stroke-width="1px"></line><line x1="51.5625" y1="144.8181818181818" x2="46.5625" y2="144.8181818181818" style="visibility: inherit;" fill="rgb(0, 0, 0)" stroke="rgb(204, 204, 204)" stroke-width="1px"></line><line x1="51.5625" y1="128.72727272727272" x2="46.5625" y2="128.72727272727272" style="visibility: inherit;" fill="rgb(0, 0, 0)" stroke="rgb(204, 204, 204)" stroke-width="1px"></line><line x1="51.5625" y1="112.63636363636364" x2="46.5625" y2="112.63636363636364" style="visibility: inherit;" fill="rgb(0, 0, 0)" stroke="rgb(204, 204, 204)" stroke-width="1px"></line><line x1="51.5625" y1="96.54545454545453" x2="46.5625" y2="96.54545454545453" style="visibility: inherit;" fill="rgb(0, 0, 0)" stroke="rgb(204, 204, 204)" stroke-width="1px"></line><line x1="51.5625" y1="80.45454545454547" x2="46.5625" y2="80.45454545454547" style="visibility: inherit;" fill="rgb(0, 0, 0)" stroke="rgb(204, 204, 204)" stroke-width="1px"></line><line x1="51.5625" y1="64.36363636363636" x2="46.5625" y2="64.36363636363636" style="visibility: inherit;" fill="rgb(0, 0, 0)" stroke="rgb(204, 204, 204)" stroke-width="1px"></line><line x1="51.5625" y1="48.27272727272729" x2="46.5625" y2="48.27272727272729" style="visibility: inherit;" fill="rgb(0, 0, 0)" stroke="rgb(204, 204, 204)" stroke-width="1px"></line><line x1="51.5625" y1="32.181818181818194" x2="46.5625" y2="32.181818181818194" style="visibility: inherit;" fill="rgb(0, 0, 0)" stroke="rgb(204, 204, 204)" stroke-width="1px"></line><line x1="51.5625" y1="16.090909090909115" x2="46.5625" y2="16.090909090909115" style="visibility: inherit;" fill="rgb(0, 0, 0)" stroke="rgb(204, 204, 204)" stroke-width="1px"></line><line x1="51.5625" y1="0" x2="46.5625" y2="0" style="visibility: inherit;" fill="rgb(0, 0, 0)" stroke="rgb(204, 204, 204)" stroke-width="1px"></line></g><g transform="translate(41.5625, 0)"><text x="0" y="177" dx="0em" dy="0.3em" style="text-anchor: end; visibility: hidden; font-family: Roboto, sans-serif; font-size: 12px; font-weight: 200;" fill="rgb(33, 33, 33)" stroke="none" stroke-width="1px">0.2</text><text x="0" y="160.90909090909093" dx="0em" dy="0.3em" style="text-anchor: end; visibility: inherit; font-family: Roboto, sans-serif; font-size: 12px; font-weight: 200;" fill="rgb(33, 33, 33)" stroke="none" stroke-width="1px">0.25</text><text x="0" y="144.8181818181818" dx="0em" dy="0.3em" style="text-anchor: end; visibility: hidden; font-family: Roboto, sans-serif; font-size: 12px; font-weight: 200;" fill="rgb(33, 33, 33)" stroke="none" stroke-width="1px">0.3</text><text x="0" y="128.72727272727272" dx="0em" dy="0.3em" style="text-anchor: end; visibility: inherit; font-family: Roboto, sans-serif; font-size: 12px; font-weight: 200;" fill="rgb(33, 33, 33)" stroke="none" stroke-width="1px">0.35</text><text x="0" y="112.63636363636364" dx="0em" dy="0.3em" style="text-anchor: end; visibility: hidden; font-family: Roboto, sans-serif; font-size: 12px; font-weight: 200;" fill="rgb(33, 33, 33)" stroke="none" stroke-width="1px">0.4</text><text x="0" y="96.54545454545453" dx="0em" dy="0.3em" style="text-anchor: end; visibility: inherit; font-family: Roboto, sans-serif; font-size: 12px; font-weight: 200;" fill="rgb(33, 33, 33)" stroke="none" stroke-width="1px">0.45</text><text x="0" y="80.45454545454547" dx="0em" dy="0.3em" style="text-anchor: end; visibility: hidden; font-family: Roboto, sans-serif; font-size: 12px; font-weight: 200;" fill="rgb(33, 33, 33)" stroke="none" stroke-width="1px">0.5</text><text x="0" y="64.36363636363636" dx="0em" dy="0.3em" style="text-anchor: end; visibility: inherit; font-family: Roboto, sans-serif; font-size: 12px; font-weight: 200;" fill="rgb(33, 33, 33)" stroke="none" stroke-width="1px">0.55</text><text x="0" y="48.27272727272729" dx="0em" dy="0.3em" style="text-anchor: end; visibility: hidden; font-family: Roboto, sans-serif; font-size: 12px; font-weight: 200;" fill="rgb(33, 33, 33)" stroke="none" stroke-width="1px">0.6</text><text x="0" y="32.181818181818194" dx="0em" dy="0.3em" style="text-anchor: end; visibility: inherit; font-family: Roboto, sans-serif; font-size: 12px; font-weight: 200;" fill="rgb(33, 33, 33)" stroke="none" stroke-width="1px">0.65</text><text x="0" y="16.090909090909115" dx="0em" dy="0.3em" style="text-anchor: end; visibility: hidden; font-family: Roboto, sans-serif; font-size: 12px; font-weight: 200;" fill="rgb(33, 33, 33)" stroke="none" stroke-width="1px">0.7</text><text x="0" y="0" dx="0em" dy="0.3em" style="text-anchor: end; visibility: hidden; font-family: Roboto, sans-serif; font-size: 12px; font-weight: 200;" fill="rgb(33, 33, 33)" stroke="none" stroke-width="1px">0.75</text></g><line x1="51.5625" y1="0" x2="51.5625" y2="177" fill="rgb(0, 0, 0)" stroke="rgb(204, 204, 204)" stroke-width="1px"></line></g></g><g transform="translate(51, 0)" clip-path="url(#clip_0)"><clipPath id="clip_0"><rect width="278" height="177"></rect></clipPath><g><g><g><line x1="0" y1="0" x2="0" y2="177" fill="rgb(0, 0, 0)" stroke="rgb(66, 66, 66)" stroke-width="1px" opacity="0.25"></line><line x1="30.9375" y1="0" x2="30.9375" y2="177" fill="rgb(0, 0, 0)" stroke="rgb(66, 66, 66)" stroke-width="1px" opacity="0.25"></line><line x1="61.875" y1="0" x2="61.875" y2="177" fill="rgb(0, 0, 0)" stroke="rgb(66, 66, 66)" stroke-width="1px" opacity="0.25"></line><line x1="92.8125" y1="0" x2="92.8125" y2="177" fill="rgb(0, 0, 0)" stroke="rgb(66, 66, 66)" stroke-width="1px" opacity="0.25"></line><line x1="123.75" y1="0" x2="123.75" y2="177" fill="rgb(0, 0, 0)" stroke="rgb(66, 66, 66)" stroke-width="1px" opacity="0.25"></line><line x1="154.6875" y1="0" x2="154.6875" y2="177" fill="rgb(0, 0, 0)" stroke="rgb(66, 66, 66)" stroke-width="1px" opacity="0.25"></line><line x1="185.625" y1="0" x2="185.625" y2="177" fill="rgb(0, 0, 0)" stroke="rgb(66, 66, 66)" stroke-width="1px" opacity="0.25"></line><line x1="216.5625" y1="0" x2="216.5625" y2="177" fill="rgb(0, 0, 0)" stroke="rgb(66, 66, 66)" stroke-width="1px" opacity="0.25"></line><line x1="247.5" y1="0" x2="247.5" y2="177" fill="rgb(0, 0, 0)" stroke="rgb(66, 66, 66)" stroke-width="1px" opacity="0.25"></line><line x1="278.4375" y1="0" x2="278.4375" y2="177" fill="rgb(0, 0, 0)" stroke="rgb(66, 66, 66)" stroke-width="1px" opacity="0.25"></line></g><g><line x1="0" y1="177" x2="278.4375" y2="177" fill="rgb(0, 0, 0)" stroke="rgb(66, 66, 66)" stroke-width="1px" opacity="0.25"></line><line x1="0" y1="160.90909090909093" x2="278.4375" y2="160.90909090909093" fill="rgb(0, 0, 0)" stroke="rgb(66, 66, 66)" stroke-width="1px" opacity="0.25"></line><line x1="0" y1="144.8181818181818" x2="278.4375" y2="144.8181818181818" fill="rgb(0, 0, 0)" stroke="rgb(66, 66, 66)" stroke-width="1px" opacity="0.25"></line><line x1="0" y1="128.72727272727272" x2="278.4375" y2="128.72727272727272" fill="rgb(0, 0, 0)" stroke="rgb(66, 66, 66)" stroke-width="1px" opacity="0.25"></line><line x1="0" y1="112.63636363636364" x2="278.4375" y2="112.63636363636364" fill="rgb(0, 0, 0)" stroke="rgb(66, 66, 66)" stroke-width="1px" opacity="0.25"></line><line x1="0" y1="96.54545454545453" x2="278.4375" y2="96.54545454545453" fill="rgb(0, 0, 0)" stroke="rgb(66, 66, 66)" stroke-width="1px" opacity="0.25"></line><line x1="0" y1="80.45454545454547" x2="278.4375" y2="80.45454545454547" fill="rgb(0, 0, 0)" stroke="rgb(66, 66, 66)" stroke-width="1px" opacity="0.25"></line><line x1="0" y1="64.36363636363636" x2="278.4375" y2="64.36363636363636" fill="rgb(0, 0, 0)" stroke="rgb(66, 66, 66)" stroke-width="1px" opacity="0.25"></line><line x1="0" y1="48.27272727272729" x2="278.4375" y2="48.27272727272729" fill="rgb(0, 0, 0)" stroke="rgb(66, 66, 66)" stroke-width="1px" opacity="0.25"></line><line x1="0" y1="32.181818181818194" x2="278.4375" y2="32.181818181818194" fill="rgb(0, 0, 0)" stroke="rgb(66, 66, 66)" stroke-width="1px" opacity="0.25"></line><line x1="0" y1="16.090909090909115" x2="278.4375" y2="16.090909090909115" fill="rgb(0, 0, 0)" stroke="rgb(66, 66, 66)" stroke-width="1px" opacity="0.25"></line><line x1="0" y1="0" x2="278.4375" y2="0" fill="rgb(0, 0, 0)" stroke="rgb(66, 66, 66)" stroke-width="1px" opacity="0.25"></line></g></g></g><g><g><line x1="0" y1="241.36363636363637" x2="278.4375" y2="241.36363636363637" fill="rgb(0, 0, 0)" stroke="rgb(153, 153, 153)" stroke-width="1.5px"></line></g></g><g><g><line x1="30.9375" y1="0" x2="30.9375" y2="177" fill="rgb(0, 0, 0)" stroke="rgb(153, 153, 153)" stroke-width="1.5px"></line></g></g><g><g><g><g><g><path stroke="rgb(255, 112, 67)" stroke-width="2px" d="M31.55625,5.710784521969887L32.175,13.682655440062394L32.793749999999996,10.79685005603216L33.4125,3.432665201544955L34.03125,19.596551368656876L34.65,31.072223322412377L35.268750000000004,39.352824850673656L35.887499999999996,29.795079355240688L36.50625,32.57432005724155L37.125,39.651590543560104L37.743750000000006,48.121716205590566L38.3625,49.18262808164104L38.98125,37.5022536625343L39.6,26.943666364131218L40.21874999999999,31.76361949871647L40.8375,38.37021254373446L41.45625,40.587359951343316L42.075,47.34762352121565L42.693749999999994,54.69815073420374L43.3125,59.864347971761184L43.93125,63.78286595708182L44.550000000000004,68.25277757267949L45.168749999999996,74.15144489743966L45.7875,75.47785648135613L46.40625,80.71332310490097L47.025,77.86434663350482L47.64375,81.0746956145752L48.2625,84.82131134432584L48.88125,88.66893122182765L49.5,87.38198458678077L50.11875,92.89499071211988L50.737500000000004,97.02860546299803L51.356249999999996,98.51466967472538L51.975,100.60016318244716L52.59375,104.12207996186042L53.212500000000006,107.03487066180114L53.83125,109.7723770455637L54.45,111.27235928540915L55.06875,113.51261387649396L55.6875,115.26883190598299L56.30625,116.87358417471405L56.925000000000004,118.21090567648817L57.54375,116.5647518505783L58.1625,115.21396752204252L58.78125,119.48864596175764L59.400000000000006,119.25190717434158L60.01875,122.45491625469559L60.637499999999996,120.6669393381826L61.25625,121.78292264328796L61.875,126.44593921268789L62.49375,125.32370367254148L63.1125,127.38693085002116L63.73125,122.71436751257724L64.35,126.62054733621383L64.96875,129.06813886479537L65.58749999999999,131.53835971395642L66.20625,134.59574403497876L66.825,137.94975580896633L67.44375000000001,139.08935799968688L68.0625,131.1213174865707L68.68125,133.20571967478614L69.3,133.45647707332085L69.91875,135.82965951732814L70.53750000000001,137.10463692392165L71.15625,138.32146813337627L71.77499999999999,121.45018955329031L72.39375,57.15969707254767L73.0125,54.98690723444491L73.63125,51.10946887741573L74.25,46.2925646585591L74.86875,19.254225539207454L75.48750000000001,21.298487750567038L76.10624999999999,19.585343475795682L76.725,20.249545694432364L77.34375,23.956831876356276L77.9625,27.85274858080179L78.58125,30.642104337692054L79.2,31.421070655304366L79.81875000000001,37.45681412524887L80.43749999999999,42.34167358547776L81.05624999999999,45.15483727973892L81.675,45.178658876368615L82.29375,52.39099853443799L82.9125,54.064278115768005L83.53125,60.39912889591603L84.15,64.10125535401431L84.76875000000001,63.58707568372946L85.38749999999999,65.03758191884751L86.00625,69.42941934284984L86.625,72.84358644241367L87.24375,75.27138330825791L87.8625,72.88535208263504L88.48125,78.4602041547265L89.10000000000001,82.39331597140225L89.71875,85.32656595405045L90.33749999999999,88.16617029785795L90.95625,87.99476859931079L91.575,90.10554973418698L92.19375000000001,91.25549473610559L92.8125,92.48802669849957L93.43125,96.38968238569534L94.05,101.12672744086176L94.66875,93.5164941790528L95.2875,93.91992605695638L95.90625,95.68506477879414L96.525,98.10956019425743L97.14375000000001,101.40156494022662L97.7625,99.12114997668797L98.38125,103.05638257941496L99,103.28175503081162L99.61874999999999,101.9019291019695L100.2375,102.20081791402843L100.85625,101.27578536098332L101.47500000000001,101.00693986451964L102.09374999999999,103.23955909696075L102.71249999999999,105.2709353915661L103.33125,106.93993481385358L103.95,110.85624596907844L104.56875,113.7723160023649L105.1875,113.98586488449415L105.80625,114.27680926368494L106.42500000000001,114.81853316632724L107.04374999999999,117.27419309111265L107.6625,118.50938912523402L108.28125,119.42999528252628L108.9,119.4879603957811L109.51875,120.31318869019738L110.1375,120.13480449679624L110.75625000000001,120.76542428805142L111.375,121.71910460142551L111.99374999999999,122.81741179427732L112.6125,124.13215264586323L113.23125,125.20836513558237L113.85000000000001,125.2028150269696L114.46875,124.95231280887609L115.0875,127.17740350029467L115.70625,127.21825934363437L116.325,128.10474905852865L116.94375,129.30529885989267L117.5625,130.0990835236286L118.18125,132.25613910572793L118.80000000000001,134.01357287863235L119.41875,134.71222289775565L120.0375,134.72074190412016L120.65625,131.53627687916307L121.27499999999999,130.51919505666876L121.89375,132.53865673650125L122.5125,132.30315815411194L123.13125000000001,132.35533458259957L123.75,133.5209215615368L124.36874999999999,130.47585913982684L124.9875,132.36660842870364L125.60625,133.38479654845978L126.225,134.58743753366906L126.84375,131.61231937760056L127.4625,128.88829724669765L128.08125,128.60525079859733L128.7,126.87046312458804L129.31875,127.79166085050478L129.9375,125.96509348744222L130.55625,125.56576434581604L131.17499999999998,127.26001727271253L131.79375,125.92988318817886L132.4125,127.80329532987416L133.03125,123.35962529011569L133.65,125.38133621524281L134.26875,126.09311754395965L134.88750000000002,124.79552726826613L135.50625,127.59813969095168L136.125,123.95861133823665L136.74375,125.7943547166875L137.3625,127.4072337771823L137.98125000000002,128.09542662261558L138.6,130.3493350850316L139.21875,131.45143013362326L139.8375,133.3335753635389L140.45625,131.26159373367125L141.07500000000002,134.14729008116134L141.69375,134.3435308980081L142.3125,135.21862649814378L142.93125,134.78687536245374L143.54999999999998,133.55568392180186L144.16875,135.9225907762979L144.7875,136.2799916329028L145.40625,135.10890537982127L146.025,137.04854990276036L146.64374999999998,138.92556323995805L147.2625,141.78313300381117L147.88125,141.57345742365655L148.5,143.72098348644946L149.11875,145.00965485866104L149.7375,146.28516734451762L150.35625000000002,149.17941251799107L150.97500000000002,147.82237298628888L151.59375,147.67385506739197L152.21249999999998,147.4180369069417L152.83124999999998,145.27658059862836L153.45,145.87615264314857L154.06875,146.46449313033395L154.6875,146.67248073895215L155.30625,146.29203161112056L155.925,146.47247289454296L156.54375,147.0585439360287L157.1625,148.54372299809444L157.78125,150.11359988565826L158.4,150.9105500149492L159.01875,152.07318863398893L159.63750000000002,152.97383628931084L160.25625000000002,152.35962031136825L160.87499999999997,154.66192459381065L161.49374999999998,153.884894405185L162.11249999999998,154.96322153905285L162.73125,151.1358857270473L163.35,152.3412322489365L163.96875,152.4870885553551L164.5875,153.65425994629945L165.20625,154.15842417977294L165.825,155.0056345621496L166.44375,156.0462557908875L167.0625,155.35973129237158L167.68125,155.62231569660406L168.3,155.46269965730045L168.91875000000002,156.85640848495092L169.53750000000002,158.64354411089775L170.15625,158.22734101929368L170.77499999999998,156.69852819829592L171.39374999999998,158.32701380128657L172.0125,159.18964352227306L172.63125,159.11081524677803L173.25,160.3718973198555L173.86875,158.18503175374522L174.4875,158.03715366328584L175.10625000000002,158.19515714431049L175.725,156.54075606743098L176.34375,154.9054751153144L176.9625,153.46718389869847L177.58125,155.20977873103018L178.20000000000002,156.98161086928852L178.81875,158.50474718010696L179.4375,159.47236232277075L180.05624999999998,157.24745872372904L180.67499999999998,155.86654055405356L181.29375,153.17409264860413L181.9125,151.91743881851747L182.53125,150.19005893179178L183.15,149.17802517775974L183.76875,148.73733222405875L184.38750000000002,146.60521196733833L185.00625,146.83979115534697L185.625,146.44009545246462L186.24375,145.2488560083209L186.8625,146.0533904002864L187.48125,147.43843411886806L188.1,148.37249737757696L188.71875,148.28178509348066L189.3375,148.82226766842612L189.95624999999998,150.81927816363904L190.575,150.98269820503717L191.19375,150.84326252844428L191.8125,150.3661258290123L192.43125,151.52797269967792L193.05,150.8407961541719L193.66875000000002,149.62659393465987L194.28750000000002,142.97482173890697L194.90625,142.4997954065392L195.525,143.89679186196338L196.14374999999998,145.65370945859405L196.7625,148.57372640535672L197.38125,146.42516019694494L198,146.55650802285174L198.61875,149.05176352200283L199.23749999999998,149.1758238059763L199.85625,150.1194974408217L200.475,151.8845417038504L201.09375,151.7962092986105L201.7125,152.71405892082242L202.33125,152.23204565057242L202.95000000000002,153.2645614716729L203.56875000000002,155.71940977387655L204.18749999999997,156.84473248613153L204.80624999999998,157.6384184049901L205.42499999999998,158.4671220339113L206.04375,158.22946098339364L206.6625,158.77316308753797L207.28125,159.05265862916147L207.9,159.43830307941232L208.51875,160.17073837641883L209.1375,156.01486680832136L209.75625,155.04610949183345L210.375,152.5762480761537L210.99375,153.4331541538981L211.6125,154.06386544305974L212.23125000000002,155.64124851246598L212.85000000000002,156.5705521667709L213.46875000000003,157.66783160180526L214.08749999999998,157.0622582348147L214.70624999999998,151.48711984306368L215.325,153.09590435739884L215.94375,152.85712984828015L216.5625,152.9247688380231L217.18125,154.0582128753351L217.8,157.4530198974485L218.41875000000002,158.1794829667482L219.0375,158.2714773278984L219.65625,160.0799468129569L220.275,156.53352560167332L220.89375,158.23492226653136L221.51250000000002,158.06850755457066L222.13125,158.88838271196022L222.75,158.81925437122752L223.36874999999998,157.37734578316218L223.98749999999998,158.7750005337932L224.60625,159.6759081821534L225.225,161.35056172020862L225.84375,158.58324886253524L226.4625,160.53482407414802L227.08125,160.80550645267064L227.70000000000002,162.18515415712636L228.31875,161.7336512118697L228.9375,161.8945029949953L229.55625,162.05245338042738L230.175,163.88185367202152L230.79375,165.49758503550902L231.4125,165.25324526363852L232.03125,165.27359225914608L232.65,165.0927310865496L233.26874999999998,167.74635511947528L233.8875,168.38328788871763L234.50625,167.65887764348895L235.125,168.19542552796196L235.74375,167.25216878292338L236.3625,167.93278704010316L236.98125000000002,168.46319734020878L237.60000000000002,170.43675628696596L238.21875,170.94998769665153L238.8375,170.64013880784336L239.45624999999998,167.86536888894167L240.075,167.70350725848215L240.69375,168.66777082429672L241.3125,168.70871974857246L241.93125,169.7550614871471L242.54999999999998,171.36021899869823L243.16875,171.39228169483357L243.7875,171.62855222136866L244.40625,172.66883010311363L245.025,173.63867040393254L245.64375,173.89609805343514L246.26250000000002,175.2752393708417L246.88125000000002,176.33799885311745L247.5,176.42578720953992L248.11874999999998,175.73136628929933L248.73749999999998,176.46086889307412L249.35625,176.79648081109056L249.975,174.50225397259368L250.59375,175.12455215789223L251.2125,175.41639519648385L251.83125,176.73423976709452L252.45,175.55281411741834L253.06875,175.60937937286388L253.6875,174.71027228698028L254.30625,176.00470552185777L254.925,176.13870641632778L255.54375000000002,173.90252102923597L256.1625,172.71207295081686L256.78125,173.32770326579472L257.4,173.71787938280815L258.01875,175.79922229171058" style="fill: none;" fill="none"></path></g><g><path stroke="rgb(0, 119, 187)" stroke-width="2px" d="M179.4375,130.03912194208667L253.6875,133.53578321555216" style="fill: none;" fill="none"></path></g><g><path stroke="rgb(204, 51, 17)" stroke-width="2px" d="M37.125,-7.273813125844977L37.743750000000006,1.6407870036178407L38.3625,4.860928192521923L38.98125,9.835305234523348L39.6,11.24145362028952L40.21874999999999,14.961511357800767L40.8375,19.22566753823219L41.45625,20.713920943928468L42.075,24.461127093660863L42.693749999999994,28.493596463592656L43.3125,34.48525539911934L43.93125,35.61709292926143L44.550000000000004,35.04604160843676L45.168749999999996,39.30410117801479L45.7875,40.68410829756656L46.40625,40.043439144953474L47.025,40.650376925067626L47.64375,43.44351480000356L48.2625,44.677321895222214L48.88125,45.4641488952553L49.5,47.42106231004849L50.11875,50.92207811348713L50.737500000000004,53.23311562288394L51.356249999999996,56.12697209681093L51.975,58.12400108763742L52.59375,49.658472251603015L53.212500000000006,52.76560720936606L53.83125,52.03180392414959L54.45,54.19360075378829L55.06875,55.38570754402364L55.6875,58.12063395310178L56.30625,61.748083687128315L56.925000000000004,57.94056111220982L57.54375,59.693476819768556L58.1625,59.68535132607848L58.78125,60.9861042889621L59.400000000000006,64.13298108556343L60.01875,62.46631083199054L60.637499999999996,64.30370873787602L61.25625,60.58355605259332L61.875,64.9022474345971L62.49375,64.26048189608076L63.1125,65.53389351582396L63.73125,69.04067467984135L64.35,72.44408704615262L64.96875,73.73356872649543L65.58749999999999,77.16451586183688L66.20625,74.96585771677134L66.825,75.99734636639373L67.44375000000001,77.03222167761795L68.0625,76.00379404654775L68.68125,75.11972108600712L69.3,76.80294536000744L69.91875,79.66584978932907L70.53750000000001,83.08023557977897L71.15625,82.79720331437325L71.77499999999999,85.12788511080494L72.39375,86.20110156821947L73.0125,87.10881136310823L73.63125,90.54152980886545L74.25,94.22173484209007L74.86875,95.58323159609402L75.48750000000001,94.11868001231788L76.10624999999999,91.70395259712785L76.725,95.16970231963069L77.34375,99.92632831129397L77.9625,97.42365477482988L78.58125,99.13881278530026L79.2,102.3783681708604L79.81875000000001,101.97638720236463L80.43749999999999,103.09044975638689L81.05624999999999,107.48352391354997L81.675,109.89261860335057L82.29375,109.414505569727L82.9125,109.0948620462527L83.53125,112.77743143572978L84.15,113.39939860501748L84.76875000000001,114.80165204276872L85.38749999999999,115.83729029469195L86.00625,114.72383317092002L86.625,115.76438430083108L87.24375,112.5343960631005L87.8625,108.29613444596815L88.48125,111.84402761463168L89.10000000000001,112.92961131622006L89.71875,116.30023994349396L90.33749999999999,114.9874560544143L90.95625,115.83104205065881L91.575,116.56999809995921L92.19375000000001,115.69000533759422L92.8125,114.71280576897456L93.43125,113.14788554324932L94.05,116.23575042931473L94.66875,115.56469121710579L95.2875,115.93796369778586L95.90625,116.70647205850274L96.525,118.53987322514139L97.14375000000001,118.86208772940157L97.7625,116.08460211649339L98.38125,119.12830685659017L99,121.65243285390648L99.61874999999999,122.37408882406382L100.2375,122.8493105677571L100.85625,117.6544447187142L101.47500000000001,117.07354574599431L102.09374999999999,120.13027458539858L102.71249999999999,121.4029840626063L103.33125,123.74632616892275L103.95,124.55258409328255L104.56875,126.82324396299413L105.1875,125.38697157827207L105.80625,126.74131508528573L106.42500000000001,126.97279105253125L107.04374999999999,129.24232466961283L107.6625,131.60002834281195L108.28125,130.50583588961746L108.9,133.07188212153702L109.51875,134.14264713180003L110.1375,134.01557748222714L110.75625000000001,134.39818485522696L111.375,136.1995091695479L111.99374999999999,136.05976242018477L112.6125,135.66347950061984L113.23125,134.08300396041247L113.85000000000001,134.91536438956237L114.46875,134.4668544951901L115.0875,135.90132100149782L115.70625,135.25582024992113L116.325,137.22182163741357L116.94375,134.0971224122819L117.5625,135.69377842363895L118.18125,133.88444665868732L118.80000000000001,136.529643084489L119.41875,136.9934430192489L120.0375,136.258576929619L120.65625,138.7144984515533L121.27499999999999,139.5204562715177L121.89375,141.6056847316129L122.5125,142.47938490302926L123.13125000000001,134.1900683501365L123.75,135.69969172439727L124.36874999999999,135.7559482372479L124.9875,135.51615951651533L125.60625,135.6277934428029L126.225,137.76292450671744L126.84375,139.97424403577233L127.4625,139.07668186687062L128.08125,141.93310291098288L128.7,142.5460060113581L129.31875,142.99920579225596L129.9375,146.94660089058064L130.55625,147.26501894317056L131.17499999999998,149.14825738053915L131.79375,145.42652496223266L132.4125,143.70034506003387L133.03125,142.91018539789923L133.65,142.10361236933346L134.26875,141.96336958297056L134.88750000000002,141.65236882831695L135.50625,142.73923063764198L136.125,144.48080953376595L136.74375,146.2538972188059L137.3625,144.23981571910434L137.98125000000002,144.17927131063183L138.6,147.57997111764467L139.21875,140.44941824141668L139.8375,141.88448468455084L140.45625,142.36842890042638L141.07500000000002,140.59716259432676L141.69375,139.93242140246306L142.3125,140.51170052318375L142.93125,132.6492413784012L143.54999999999998,136.4848779346843L144.16875,138.4753474640427L144.7875,140.10718298471235L145.40625,141.04462895269305L146.025,143.1223235906854L146.64374999999998,143.95590673519698L147.2625,141.43569135276385L147.88125,144.36131349911784L148.5,145.39430070625758L149.11875,143.3292771725509L149.7375,143.4801108516882L150.35625000000002,144.9150451925387L150.97500000000002,147.0147569024854L151.59375,148.7628117778133L152.21249999999998,151.04206428392098L152.83124999999998,151.57569983759564L153.45,154.44494827358918L154.06875,152.6274631454812L154.6875,152.3907114466277L155.30625,154.4903582791881L155.925,154.30275157431777L156.54375,153.03784703319485L157.1625,152.60337812329172L157.78125,151.8486630132104L158.4,152.88796217116862L159.01875,152.40609662206896L159.63750000000002,153.55892762555328L160.25625000000002,152.20412122142034L160.87499999999997,149.74247726637319L161.49374999999998,148.03190575203107L162.11249999999998,151.69002325596392L162.73125,153.3350924086646L163.35,155.60445752003795L163.96875,154.9218174826392L164.5875,154.67404892611887L165.20625,152.99164717615824L165.825,151.48930859377487L166.44375,150.31303348531515L167.0625,153.4677026361883L167.68125,153.1342260173311L168.3,155.3406282295535L168.91875000000002,155.16592271355086L169.53750000000002,155.8755290503045L170.15625,157.7833914089038L170.77499999999998,158.91501729893227L171.39374999999998,160.59545715780567L172.0125,161.60241459020048L172.63125,162.80745523447638L173.25,162.47455019989607L173.86875,164.26888525558556L174.4875,164.28736141180232L175.10625000000002,163.02640150822117L175.725,164.49420690546083L176.34375,165.88520570064958L176.9625,166.73426685173652L177.58125,165.729033010967L178.20000000000002,163.91754293745294L178.81875,162.76562421154884L179.4375,164.29532919480397L180.05624999999998,165.54398639863788L180.67499999999998,164.23008923452412L181.29375,165.6455946732644L181.9125,165.66978245199374L182.53125,166.0219085722302L183.15,165.42752277463833L183.76875,164.843201973209L184.38750000000002,165.6743248500284L185.00625,166.14340457660296L185.625,167.13646967501566" style="fill: none;" fill="none"></path></g><g><path stroke="rgb(0, 153, 136)" stroke-width="2px" d="M179.4375,142.4767540259795Z" style="fill: none;" fill="none"></path></g><g><path stroke="rgb(51, 187, 238)" stroke-width="2px" d="M33.4125,-14.364867077054774L34.03125,1.5061468914905771L34.65,16.436618184493355L35.268750000000004,-8.087900986855285L35.887499999999996,-3.7425662096018524L36.50625,0.9595581385417621L37.125,9.373962903668374L37.743750000000006,15.389049953461678L38.3625,8.002850320475758L38.98125,0.5389201394081824L39.6,-1.2610379099016382L40.21874999999999,0.07670630977011428L40.8375,2.781480234387404L41.45625,3.830674089730592L42.075,5.618755568158931L42.693749999999994,6.265932139857805L43.3125,8.162476949230273L43.93125,9.203880360606135L44.550000000000004,10.316541416561602L45.168749999999996,11.623672109681797L45.7875,13.36341170616657L46.40625,14.749498868250303L47.025,6.46554706972019L47.64375,9.521443085045773L48.2625,12.580174103721722L48.88125,16.618443516476688L49.5,18.23556831608454L50.11875,19.551650261432982L50.737500000000004,24.617196883885786L51.356249999999996,20.48232800003235L51.975,25.19908780653245L52.59375,28.20444077697909L53.212500000000006,28.217213717911342L53.83125,32.32436922189652L54.45,34.87576832882698L55.06875,37.272484127080105L55.6875,40.97654841733969L56.30625,45.43866836160379L56.925000000000004,50.24758030203684L57.54375,55.223801507420866L58.1625,42.64736185059926L58.78125,46.96429777120824L59.400000000000006,52.63464440694478L60.01875,52.74686950687882L60.637499999999996,57.41731033728074L61.25625,59.91501422047438L61.875,61.31963708412118L62.49375,61.36102735014864L63.1125,57.62539849351811L63.73125,60.818786802818714L64.35,61.584002908712826L64.96875,61.81437010183071L65.58749999999999,66.32848123901739L66.20625,68.17377713034021L66.825,67.59154412193358L67.44375000000001,72.02403806638164L68.0625,73.537089008847L68.68125,74.13337295993234L69.3,76.84454894922698L69.91875,78.14976883076972L70.53750000000001,79.73594244726672L71.15625,81.87441713401886L71.77499999999999,83.77607961839685L72.39375,82.10427163161256L73.0125,84.70009906610433L73.63125,82.1975236573275L74.25,83.73513199069563L74.86875,82.24438852293505L75.48750000000001,85.15322825386347L76.10624999999999,85.2501426591996L76.725,86.25850834193238L77.34375,83.78981001197931L77.9625,84.47191320102476L78.58125,87.96250858213175L79.2,88.25026841892591L79.81875000000001,88.19362597202168L80.43749999999999,88.6123994966241L81.05624999999999,89.70762574684575L81.675,92.68685360818144L82.29375,90.91576877235941L82.9125,86.98093976228436L83.53125,87.8263527163149L84.15,90.48474753157805L84.76875000000001,83.03271939464913L85.38749999999999,84.47568184724308L86.00625,84.15053140692986L86.625,86.42501392155296L87.24375,87.43039447953295L87.8625,88.55418318511555L88.48125,90.52591205187905L89.10000000000001,90.04946037970255L89.71875,91.1350090362967L90.33749999999999,92.00788157831443L90.95625,92.60480456709517L91.575,94.68967173161829L92.19375000000001,90.542700057207L92.8125,88.81621706785278L93.43125,86.08232938744248L94.05,87.97527931162116L94.66875,89.37371302071638L95.2875,91.06166038817398L95.90625,89.76234562853547L96.525,93.13183218160783L97.14375000000001,92.71622479471311L97.7625,95.6983367137971L98.38125,96.65972220347312L99,98.77807664062445L99.61874999999999,99.1449802379981L100.2375,102.6384017149537L100.85625,102.7358395372658L101.47500000000001,103.52019045873128L102.09374999999999,106.94467465059444L102.71249999999999,108.34472919639406L103.33125,108.05892159282082L103.95,105.38818877087793L104.56875,105.4477010153927L105.1875,108.50172057940964L105.80625,109.76630873350916L106.42500000000001,109.300282706883L107.04374999999999,106.57643942576624L107.6625,104.87179289767515L108.28125,104.55459562017211L108.9,104.02595559606073L109.51875,105.15437613661283L110.1375,106.07060922375088L110.75625000000001,106.57027685755715L111.375,102.6942687791083L111.99374999999999,103.44712342969883L112.6125,104.43792529752183L113.23125,106.16379789271102L113.85000000000001,101.6588343306686L114.46875,102.65368796033661L115.0875,103.65803768181476L115.70625,105.2945020209149L116.325,108.1970080697478L116.94375,109.84042753287342L117.5625,110.02340692420759L118.18125,108.40038201479545L118.80000000000001,111.59732119846893L119.41875,113.83179410556116L120.0375,111.89412092976539L120.65625,113.50741207051963L121.27499999999999,114.26961095606038L121.89375,115.21091581377661L122.5125,116.12351464162214L123.13125000000001,117.10175388775582L123.75,117.44754915541083L124.36874999999999,118.56405361937875L124.9875,118.5385242242074L125.60625,121.51013780064952L126.225,118.97725276096304L126.84375,119.16211447836334L127.4625,120.40808754958744L128.08125,122.97761376061764L128.7,125.08318766588373L129.31875,121.22026650455452L129.9375,120.27486144559444L130.55625,121.15590447720025L131.17499999999998,121.13595283760024L131.79375,120.84698465596001L132.4125,121.58718741111159L133.03125,124.04065929271218L133.65,125.0842985150906L134.26875,126.57154363856725L134.88750000000002,127.98369351249491L135.50625,127.72525674282704L136.125,128.33072141408644L136.74375,128.7402933718249L137.3625,127.75764954919978L137.98125000000002,128.3745931685591L138.6,130.846446745157L139.21875,130.38357327963993L139.8375,128.0991893638139L140.45625,127.71142490870585L141.07500000000002,122.55851222869101L141.69375,123.19026640075296L142.3125,123.19061037689346L142.93125,124.2308994743419L143.54999999999998,123.6929370636812L144.16875,124.06416235627447L144.7875,123.0324295305762L145.40625,125.04743826836754L146.025,127.9646871285111L146.64374999999998,129.86619720372676L147.2625,130.84609753228662L147.88125,132.08703728623362L148.5,132.21822094226914L149.11875,133.70296130223997L149.7375,133.7063828684468L150.35625000000002,132.0100311332866L150.97500000000002,132.67752850660403L151.59375,133.2405580472169L152.21249999999998,134.35784242312766L152.83124999999998,133.42176911419045L153.45,126.08577080846248L154.06875,120.77369110662255L154.6875,121.23613661622767L155.30625,124.02222829351501L155.925,124.52466562708415L156.54375,125.83977227605092L157.1625,127.76524751495951L157.78125,127.81016038001282L158.4,128.2615013023738L159.01875,128.92141807602522L159.63750000000002,128.58122261059555L160.25625000000002,130.5471899644078L160.87499999999997,129.53782374052648L161.49374999999998,130.26133493146375L162.11249999999998,131.0800124535876L162.73125,134.17200205652478L163.35,134.32177356410867L163.96875,135.34607423173532L164.5875,135.64341973538563L165.20625,135.5976559150732L165.825,135.42677479146062L166.44375,132.86980142513514L167.0625,131.77299992912714L167.68125,130.06544846867052L168.3,133.3352104614919L168.91875000000002,130.8540306446L169.53750000000002,130.82860826743388L170.15625,134.048023447759L170.77499999999998,136.6132420846551L171.39374999999998,133.20897344529212L172.0125,132.98591719387633L172.63125,134.69915883239358L173.25,135.3318132588955L173.86875,134.75337346602737L174.4875,134.53097076614205L175.10625000000002,135.96095430822348L175.725,125.35533506415447L176.34375,127.03561631850177L176.9625,126.39843361605105L177.58125,127.18448537246461L178.20000000000002,127.59529548669992L178.81875,128.4400475422226L179.4375,131.07958534530212L180.05624999999998,131.6711213205093L180.67499999999998,131.1443026319942L181.29375,133.37642668119543L181.9125,135.28182511672333L182.53125,134.83347429412643L183.15,131.56952078948794L183.76875,134.38771784457978L184.38750000000002,134.86583695070973L185.00625,132.15054746586094L185.625,134.1646405530232" style="fill: none;" fill="none"></path></g><g><path stroke="rgb(238, 51, 119)" stroke-width="2px" d="M179.4375,95.60292899608612Z" style="fill: none;" fill="none"></path></g></g></g></g><g opacity="0.2"><g><g><g><path stroke="rgb(255, 112, 67)" stroke-width="2px" d="M31.55625,5.710784521969887L32.175,20.801536169919125L32.793749999999996,5.918543230403552L33.4125,-14.260311451825213L34.03125,68.71045264330778L34.65,72.4578205021945L35.268750000000004,73.41503360054712L35.887499999999996,-13.848937316374338L36.50625,46.38923374089329L37.125,77.38675247539176L37.743750000000006,96.01493613286453L38.3625,55.48693982037632L38.98125,-34.91046439517626L39.6,-40.93930331143467L40.21874999999999,63.7403947656805L40.8375,83.40990397063169L41.45625,56.06510021469811L42.075,95.52779365669599L42.693749999999994,108.04372608661652L43.3125,97.9590654373169L43.93125,93.08491685173728L44.550000000000004,102.09318751638587L45.168749999999996,119.2977511882782L45.7875,85.72797401384875L46.40625,121.5177156166597L47.025,55.491620193828254L47.64375,106.4545570720326L48.2625,114.61715714498001L48.88125,119.42985664714469L49.5,77.04477830366656L50.11875,137.36228552731603L50.737500000000004,130.4936840317466L51.356249999999996,110.58535109866752L51.975,117.58956833319232L52.59375,132.88837600838056L53.212500000000006,130.88142611763695L53.83125,132.23046703772113L54.45,123.60076953064313L55.06875,131.95573487065056L55.6875,129.74834415045652L56.30625,130.1216614788229L56.925000000000004,129.26411731676623L57.54375,102.94478530233557L58.1625,104.02742857282813L58.78125,154.91885548288172L59.400000000000006,117.28826929222456L60.01875,149.03995156288147L60.637499999999996,105.81793996420774L61.25625,131.0559522563761L61.875,165.21051236174324L62.49375,115.99042475223541L63.1125,144.55256678841332L63.73125,83.82658188993281L64.35,159.13974669846624L64.96875,149.44992542266846L65.58749999999999,152.11347991769964L66.20625,160.0669114156203L66.825,165.8974338932471L67.44375000000001,148.58682811260223L68.0625,64.7054532441226L68.68125,150.58214420622045L69.3,135.54714462973854L69.91875,155.61798626726323L70.53750000000001,147.7368128299713L71.15625,148.46962695771998L71.77499999999999,-19.264091036536474L72.39375,-479.08947164362115L73.0125,36.862487034364186L73.63125,18.763885714791062L74.25,6.108002445914525L74.86875,-206.320337598974L75.48750000000001,38.35395325313917L76.10624999999999,5.291929461739284L76.725,25.791408907283454L77.34375,54.889942841096364L77.9625,60.36057049577887L78.58125,53.91721161929044L79.2,37.921095436269596L79.81875000000001,87.82249867916109L80.43749999999999,83.10436573895542L81.05624999999999,68.63017656586389L81.675,45.37744825536556L82.29375,112.57808723232962L82.9125,68.02796212109654L83.53125,113.26455799016087L84.15,94.99638904224744L84.76875000000001,59.29609244520015L85.38749999999999,77.14256741783838L86.00625,106.08105751601133L86.625,101.33631933819166L87.24375,95.53251239386472L87.8625,52.97269691120496L88.48125,124.98537361621857L89.10000000000001,115.21737667647275L89.71875,109.80627991936423L90.33749999999999,111.86441659927368L90.95625,86.56431263143367L91.575,107.7213941379027L92.19375000000001,100.85255286910318L92.8125,102.77434489943765L93.43125,128.95170238885015L94.05,140.66070199012756L94.66875,30.003668286583665L95.2875,97.28685639121316L95.90625,110.41643565351313L96.525,118.3437606421384L97.14375000000001,128.8757901841944L97.7625,80.08938041600315L98.38125,135.8988631855358L99,105.16265890815042L99.61874999999999,90.38623078302905L100.2375,104.69527374614371L100.85625,93.5556780208241L101.47500000000001,98.76321689649063L102.09374999999999,121.87249367887324L102.71249999999999,122.22434650767936L103.33125,120.86903311989524L103.95,143.54091557589445L104.56875,138.1091983209957L105.1875,115.7680974223397L105.80625,116.704968159849L106.42500000000001,119.33964436704463L107.04374999999999,137.768605243076L107.6625,128.81807197224012L108.28125,127.11317880587146L108.9,119.97172496535562L109.51875,127.20036994327201L110.1375,118.64604754881427L110.75625000000001,126.02844471281226L111.375,129.67832077633253L111.99374999999999,131.98365406556562L112.6125,135.10470547459343L113.23125,134.19021037491888L113.85000000000001,125.15649497509003L114.46875,122.86167334426536L115.0875,145.74754861268133L115.70625,127.55923374132678L116.325,135.5032085830515L116.94375,139.32483900677076L117.5625,136.72384614294225L118.18125,150.25847911834717L118.80000000000001,148.68075208230454L119.41875,140.5430116978559L120.0375,134.7918397730047L120.65625,104.95938875458457L121.27499999999999,122.03083992004395L121.89375,149.392667575316L122.5125,130.3377355228771L123.13125000000001,132.79078830372205L123.75,143.248670372096L124.36874999999999,105.06239533424377L124.9875,148.14641264351934L125.60625,141.88238496130163L126.225,144.62443162094465L126.84375,106.78259562362327L127.4625,106.15416916933927L128.08125,126.2430033900521L128.7,112.39228216084568L129.31875,135.47978753393346L129.9375,110.7209380648353L130.55625,122.23304548046805L131.17499999999998,141.3999036767266L131.79375,114.82885772531684L132.4125,143.43840772455388L133.03125,86.27366911281239L133.65,142.25411978634924L134.26875,132.03349812464282L134.88750000000002,113.966105688702L135.50625,150.9881666031751L136.125,93.5838561708277L136.74375,141.11509144306183L137.3625,140.86799074303022L137.98125000000002,133.83894259279424L138.6,149.15999163280836L139.21875,140.6492887843739L139.8375,149.04157242991707L140.45625,113.96926110441035L141.07500000000002,158.23071842843837L141.69375,135.98131640390918L142.3125,142.52199443903837L142.93125,131.18356916037473L143.54999999999998,123.28041331334549L144.16875,155.67630870775744L144.7875,139.2627856948159L145.40625,125.3352603045377L146.025,153.23642427271062L146.64374999999998,154.5907306129282L147.2625,165.63182269985026L147.88125,139.82354814356023L148.5,161.64379444989294L149.11875,155.76464116573334L149.7375,156.93033229220998L150.35625000000002,173.3341876485131L150.97500000000002,136.49680007587781L151.59375,146.43435505303472L152.21249999999998,145.28303113850683L152.83124999999998,127.40442655303262L153.45,150.88005764917895L154.06875,151.3746618682688L154.6875,148.4083025563847L155.30625,143.11688141389328L155.925,147.9783987457102L156.54375,151.94977234710348L157.1625,160.93872208486903L157.78125,163.21546960960734L158.4,157.56173193454742L159.01875,161.7763315005736L159.63750000000002,160.490456440232L160.25625000000002,147.23350004716355L160.87499999999997,173.87648276307365L161.49374999999998,147.39996021444148L162.11249999999998,163.9627180858092L162.73125,119.19372797012329L163.35,162.4008064920252L163.96875,153.70437529954046L164.5875,163.39523239569232L165.20625,158.36607521230525L165.825,162.07627822052348L166.44375,164.73106660626152L167.0625,149.63013898242605L167.68125,157.81379114497793L168.3,154.1305770115419L168.91875000000002,168.48801580342382L169.53750000000002,173.55861059644005L170.15625,154.75379559126768L170.77499999999998,143.9393707297065L171.39374999999998,171.91801981492478L172.0125,166.388973810456L172.63125,158.4529306671836L173.25,170.89662901379845L173.86875,139.93390137499028L174.4875,156.80299352515829L175.10625000000002,159.51382171023977L175.725,142.73346483707428L176.34375,141.25775651498276L176.9625,141.46350112828344L177.58125,169.75311691110784L178.20000000000002,171.76895759322426L178.81875,171.21652966195887L179.4375,167.5478793545203L180.05624999999998,138.67887074297124L180.67499999999998,144.3416814370589L181.29375,130.70347601717168L181.9125,141.429664330049L182.53125,135.77370155941358L183.15,140.7317995483225L183.76875,145.05939944223925L184.38750000000002,128.81097468462858L185.00625,148.797540827231L185.625,143.10431729663503L186.24375,135.3070165352388L186.8625,152.76786901734093L187.48125,158.99772421880203L188.1,156.16799728436905L188.71875,147.5247190215371L189.3375,153.33302411166105L189.95624999999998,167.48591715639287L190.575,152.34656827016312L191.19375,149.6795610406182L191.8125,146.3840410384265L192.43125,161.2245077978481L193.05,145.1057619940151L193.66875000000002,139.4931118596684L194.28750000000002,87.46049864725634L194.90625,138.5353233055635L195.525,155.55583704601634L196.14374999999998,160.3165824846788L196.7625,172.94358746571976L197.38125,128.49366838281804L198,147.65270997177473L198.61875,169.87665287472984L199.23749999999998,150.21120542829686L199.85625,157.9952035708861L200.475,166.6152382167903L201.09375,151.05900520628148L201.7125,160.37424315105784L202.33125,148.20926200259817L202.95000000000002,161.8817262216048L203.56875000000002,176.20706896890295L204.18749999999997,166.236444467848L204.80624999999998,164.26235789602453L205.42499999999998,165.38331213322553L206.04375,156.2459907206622L206.6625,163.31078905950892L207.28125,161.3852709531784L207.9,162.65681236982346L208.51875,166.283492771062L209.1375,121.3308171792464L209.75625,146.9610601121729L210.375,131.9632925228639L210.99375,160.58471609245646L211.6125,159.32765218344602L212.23125000000002,168.80576328797775L212.85000000000002,164.32632939382034L213.46875000000003,166.8255001577464L214.08749999999998,152.00826742432335L214.70624999999998,104.95816111564636L215.325,166.52248913591558L215.94375,150.86436688899994L216.5625,153.4892699393359L217.18125,163.5177037661726L217.8,185.78538130630147L218.41875000000002,164.24239437688482L219.0375,159.03924335132945L219.65625,175.17306130040777L220.275,126.93582334301688L220.89375,172.43442901156166L221.51250000000002,156.67964458465576L222.13125,165.7308922030709L222.75,158.24232345277613L223.36874999999998,145.34347317435524L223.98749999999998,170.43953971429306L224.60625,167.19469818201932L225.225,175.32687582752922L225.84375,135.48782473260707L226.4625,176.82226953181353L227.08125,163.06456592949957L227.70000000000002,173.69941023263064L228.31875,157.96550046313894L228.9375,163.2369389046322L229.55625,163.37067482146352L230.175,179.1496523672884L230.79375,178.98214678872716L231.4125,163.21403576569125L232.03125,165.443404100158L232.65,163.58330092646858L233.26874999999998,189.89295569333166L233.8875,173.69899782267484L234.50625,161.61309868097305L235.125,172.67334385351703L235.74375,159.37994192947042L236.3625,173.61308707432315L236.98125000000002,172.88989264856684L237.60000000000002,186.90767347812653L238.21875,175.23331151767212L238.8375,168.05420368909836L239.45624999999998,144.70770965922964L240.075,166.35264337062836L240.69375,176.71531628478658L241.3125,169.0504710511728L241.93125,178.48761450160634L242.54999999999998,184.75653355771846L243.16875,171.65987036444923L243.7875,173.60041745684364L244.40625,181.35077541524714L245.025,181.73275814815L245.64375,176.04453628713435L246.26250000000002,186.78526924415067L247.5,177.15845078229904L248.11874999999998,169.9358720671047L248.73749999999998,182.549147632989L249.35625,179.597428874536L249.975,155.35510848868978L250.59375,180.31812486323446L251.83125,187.73269959471443L252.45,165.6928785551678L253.06875,176.0814613645727L253.6875,167.206509411335L254.30625,186.80777915499428L254.925,177.25705032998866L255.54375000000002,155.23977756500244L256.1625,162.77683805335653L256.78125,178.4656272964044L257.4,176.97420903227547L258.01875,193.1696822697466" style="fill: none;" fill="none"></path></g><g><path stroke="rgb(0, 119, 187)" stroke-width="2px" d="M179.4375,130.03912194208667L253.6875,136.65830173275688" style="fill: none;" fill="none"></path></g><g><path stroke="rgb(204, 51, 17)" stroke-width="2px" d="M32.793749999999996,-113.41914458708331L33.4125,14.957169185985217L34.03125,21.0201901739294L34.65,6.579147252169517L35.268750000000004,-97.03841296109283L35.887499999999996,38.32669583233921L36.50625,61.42713936892423L37.125,-5.019163435155685L37.743750000000006,52.047229788520134L38.3625,23.996140415018267L38.98125,40.67405657334763L39.6,20.28182289817119L40.21874999999999,39.64130531657828L40.8375,48.29606392166833L41.45625,31.103306683627057L42.075,51.16733876141636L42.693749999999994,57.75876240296799L43.3125,78.66679625077683L43.93125,44.080792990597814L44.550000000000004,30.722776976498714L45.168749999999996,71.89377795566215L45.7875,51.34839632294396L46.40625,35.05016586997294L47.025,45.41659842837943L47.64375,65.52505569024521L48.2625,54.489464001222096L48.88125,51.7546680840579L49.5,63.1396765058691L50.11875,79.16088255968961L50.737500000000004,71.94290269504896L51.356249999999996,79.63256445798008L51.975,74.3927329236811L52.59375,-19.486236138777294L53.212500000000006,78.2032282785936L53.83125,46.01179231296888L54.45,71.96148991584779L55.06875,65.19984646276995L55.6875,80.66931513222782L56.30625,91.6945965723558L56.925000000000004,26.470676877281907L57.54375,74.19677105816929L58.1625,59.61805993860419L58.78125,71.76725441759284L59.400000000000006,90.2348571473902L60.01875,48.632916537198156L60.637499999999996,79.56314531239597L61.25625,29.671726226806662L61.875,100.80437763170764L62.49375,58.92312039028516L63.1125,76.12842256372626L63.73125,98.22614404288205L64.35,100.77771484851837L64.96875,84.47144719687375L65.58749999999999,105.74177839539267L66.20625,56.648765802383444L66.825,84.59234085949986L67.44375000000001,85.65689563751222L68.0625,67.43155977942727L68.68125,67.74972926486625L69.3,90.83667836406015L69.91875,103.53762940926987L70.53750000000001,111.55317176472059L71.15625,80.43676387179981L71.77499999999999,104.56685120409186L72.39375,95.1528362794356L73.0125,94.68051178888842L73.63125,119.17726034467871L74.25,124.92349294098942L74.86875,106.94188177585602L75.48750000000001,81.89979298548266L76.10624999999999,71.55696370384912L76.725,124.08666518601505L77.34375,139.61499338800257L77.9625,76.54115861112422L78.58125,113.45053569837052L79.2,129.41058998758143L79.81875000000001,98.62202882766724L80.43749999999999,112.38696878606623L81.05624999999999,144.1429286111485L81.675,129.996327215975L82.29375,105.42464473030783L82.9125,106.4274051514539L83.53125,143.50911205465144L84.15,118.58986388553275L84.76875000000001,126.50387666442178L85.38749999999999,124.480056329207L86.00625,105.4315885630521L86.625,124.44824321703479L87.24375,85.5785952914845L87.8625,72.92566602880305L88.48125,141.45312374288386L89.10000000000001,121.98942628773777L89.71875,144.43013857711446L90.33749999999999,104.03146635402335L90.95625,122.87130263718693L91.575,122.737067992037L92.19375000000001,108.34587872028351L92.8125,106.55741019682452L93.43125,100.08754199201411L94.05,142.00615590268916L94.66875,109.96422334150836L95.2875,119.05319208448584L95.90625,123.12023520469666L96.525,133.84095668792725L97.14375000000001,121.55120714144275L97.7625,92.90440597317435L98.38125,144.53031583265826L99,142.71817689592189L99.61874999999999,128.3968575434251L100.2375,126.81539963592185L100.85625,74.29929809136826L101.47500000000001,112.22549590197477L102.09374999999999,145.64104134386236L102.71249999999999,132.02473201534966L103.33125,143.30333866856316L103.95,131.28143500198019L104.56875,145.7736743038351L105.1875,113.40015454725787L105.80625,138.04437323050067L106.42500000000001,128.90463969924232L107.04374999999999,148.1833664937453L107.6625,151.27692070874303L108.28125,121.37393799695103L108.9,154.48756098747253L109.51875,143.07902601632208L110.1375,132.9550809209997L110.75625000000001,137.59134568951347L111.375,151.23298466205597L111.99374999999999,134.8934652588584L112.6125,132.3561849377372L113.23125,120.89268435131422L113.85000000000001,141.86207137324593L114.46875,130.72368410500616L115.0875,147.87308075211266L115.70625,129.86860481175512L116.325,153.6296619610353L116.94375,108.01902944391425L117.5625,149.01913924650714L118.18125,118.78413774750449L118.80000000000001,158.60590598799965L119.41875,140.86422150785273L120.0375,130.12553621422163L120.65625,159.21111280267888L121.27499999999999,146.2468140233647L121.89375,159.00857155973262L122.5125,149.7711064598777L123.13125000000001,65.00914042646235L123.75,148.2986974174326L124.36874999999999,136.22545350681654L124.9875,133.5149322314696L125.60625,136.55946720730176L126.225,155.5822888287631L126.84375,158.42946166341954L127.4625,131.58581273122266L128.08125,165.77220513062045L128.7,147.6611691713333L129.31875,146.78151791745967L129.9375,179.8907482624054L130.55625,149.92247050458735L131.17499999999998,164.8653779788451L131.79375,114.36571175401862L132.4125,129.29400265216827L133.03125,136.31567537784576L133.65,135.37211976268074L134.26875,140.79293213107368L134.88750000000002,139.0568204901435L135.50625,151.80995578115636L136.125,159.01566884734413L136.74375,161.0517224127596L137.3625,127.43070569905369L137.98125000000002,143.6739801276814L138.6,175.96151240847328L139.21875,80.93929019841282L139.8375,153.86125412854284L140.45625,146.40732781453568L141.07500000000002,125.81453821875833L141.69375,134.3846281008287L142.3125,145.34624495289543L142.93125,67.03077402981846L143.54999999999998,168.49631195718592L144.16875,155.0873968817971L144.7875,153.72614670883524L145.40625,148.86836024847898L146.025,160.46233583580363L146.64374999999998,150.91282026334244L147.2625,120.40249195965855L147.88125,168.77795438874853L148.5,154.01539954272184L149.11875,126.09501535242255L149.7375,144.73893772472036L150.35625000000002,156.89071216366509L150.97500000000002,164.5385191115466L151.59375,163.3517183498903L152.21249999999998,170.0642370635813L152.83124999999998,156.0293124480681L153.45,178.39110577648336L154.06875,137.45910595763814L154.6875,150.4148304462433L155.30625,172.01357903805646L155.925,152.7370245890184L156.54375,142.4812138080597L157.1625,148.97738993167877L157.78125,145.5499658801339L158.4,161.56173925508153L159.01875,148.3845458247445L159.63750000000002,163.18021814931524L160.25625000000002,140.89718553152952L160.87499999999997,129.1981029510498L161.49374999999998,133.75582760030574L162.11249999999998,182.21991980617696L162.73125,167.06450131806463L163.35,174.54411214048213L163.96875,149.22464408657768L164.5875,152.6062234965238L165.20625,138.95066808570516L165.825,138.95109967751938L166.44375,140.49608328125694L167.0625,179.79592274535787L167.68125,150.3510987216776L168.3,173.75480743971738L168.91875000000002,153.70786639777097L169.53750000000002,161.79775763641703L170.15625,173.70601838285273L170.77499999999998,168.35933430628344L171.39374999999998,174.62006270885468L172.0125,170.00627428293228L172.63125,172.8644766861742L173.25,159.6961932290684L173.86875,179.2440367015925L174.4875,164.441559612751L175.10625000000002,152.5026894157583L175.725,176.74420895901594L176.34375,177.49419564550573L176.9625,173.82035664536735L177.58125,157.339558059519L178.20000000000002,148.79921923984182L178.81875,153.15194736827505L179.4375,177.06193246624687L180.05624999999998,175.96502268856221L180.67499999999998,153.26457364992663L181.29375,177.45911202647468L181.9125,165.87164868008006L182.53125,168.96068077195775L183.15,160.4669011181051L183.76875,159.96658070520922L184.38750000000002,172.61070549488068L185.00625,170.05824752829292L185.625,175.42438680475408" style="fill: none;" fill="none"></path></g><g><path stroke="rgb(0, 153, 136)" stroke-width="2px" d="M179.4375,142.4767540259795Z" style="fill: none;" fill="none"></path></g><g><path stroke="rgb(51, 187, 238)" stroke-width="2px" d="M32.793749999999996,-38.2665990699421L33.4125,44.56820401278409L34.03125,49.73015720194037L34.65,70.28152357448234L35.268750000000004,-108.96937543695623L35.887499999999996,16.09975576400759L36.50625,24.33264775709673L37.125,54.23856529322538L37.743750000000006,49.400574510747745L38.3625,-35.88854735547847L39.6,-12.833277095447869L40.21874999999999,8.951636227694419L40.8375,21.22096668590201L41.45625,11.155017939480874L42.075,18.36235187270427L42.693749999999994,10.962738990783691L43.3125,22.147296992215267L43.93125,16.991328542882755L44.550000000000004,18.740176937796868L45.168749999999996,21.62798653949393L45.7875,26.807606220245383L46.40625,25.552441315217457L47.025,-58.5874954136935L47.64375,33.68025508793919L48.2625,36.90545439720156L48.88125,48.90357255935671L49.5,31.22488130222669L50.11875,30.167020992799245L50.737500000000004,65.6270456314087L51.356249999999996,-13.103491934863019L51.975,63.62401843070986L52.59375,52.75154926560143L53.212500000000006,28.321783759377244L53.83125,66.01885427128187L54.45,55.84581320936031L55.06875,57.00368772853507L55.6875,71.51549252596769L56.30625,82.27582454681398L56.925000000000004,89.99413441527976L57.54375,96.3961180231788L58.1625,-61.504595713181935L58.78125,82.74475384842268L59.400000000000006,99.66752642934973L60.01875,53.67833993651652L60.637499999999996,96.20493244041099L61.25625,80.66916167736055L61.875,72.99654299562629L62.49375,61.70525713400408L63.1125,26.545716307379998L63.73125,87.39601883021268L64.35,67.9544764215296L64.96875,63.73270284045829L65.58749999999999,103.92770209095694L66.20625,83.54699671268465L66.825,62.74002248590644L67.44375000000001,108.96454160863703L68.0625,86.14879521456632L68.68125,79.10423853180627L69.3,99.44873815233058L69.91875,89.03309453617445L70.53750000000001,92.963217551058L71.15625,99.70892087979752L71.77499999999999,99.63682586496527L72.39375,68.15966476093641L73.0125,106.35330563241786L73.63125,61.3210445100611L74.25,96.5624822811647L74.86875,69.80746312574908L75.48750000000001,109.42194261334159L76.10624999999999,86.05873638933356L76.725,94.67194708910856L77.34375,63.191314068707555L77.9625,90.1634334976023L78.58125,117.08894101056187L79.2,90.65145833925769L79.81875000000001,87.72096910259943L80.43749999999999,92.10693939165637L81.05624999999999,98.84708957238632L81.675,117.54827938296579L82.29375,76.13603776151484L82.9125,54.14440155029299L83.53125,94.8814705285159L84.15,112.66969019716437L84.76875000000001,20.84331425753509L85.38749999999999,96.51771182363684L86.00625,81.43702106042343L86.625,105.40657541968606L87.24375,95.82077736204322L87.8625,97.93277670036665L88.48125,106.9810607216575L89.10000000000001,86.07319951057436L89.71875,100.19455758008091L90.33749999999999,99.29254027930173L90.95625,97.5865057923577L91.575,112.08924716169184L92.19375000000001,55.93345512043348L92.8125,74.40754131837326L93.43125,63.266142498363166L94.05,103.773278539831L94.66875,101.04463999921626L95.2875,105.14880001544952L95.90625,78.91861568797718L96.525,121.25267987901515L97.14375000000001,89.2476723952727L97.7625,120.58629252693869L98.38125,104.68320835720411L99,116.45734954964033L99.61874999999999,102.20707020976327L100.2375,131.7936769398776L100.85625,103.54903302409433L101.47500000000001,110.06620369174264L102.09374999999999,135.52464430982417L102.71249999999999,120.02927054058424L103.33125,105.67363484339282L103.95,83.09884136373347L104.56875,105.94437718391418L105.1875,133.9899038184773L105.80625,120.32028810544449L106.42500000000001,105.41092970154502L107.04374999999999,83.84382638064298L107.6625,90.64517628062858L108.28125,101.90733449025589L108.9,99.61403781717475L109.51875,114.57193591377951L110.1375,113.71729780327192L110.75625000000001,110.74039806019178L111.375,70.34591707316312L111.99374999999999,109.73029098727487L112.6125,112.70695095712489L113.23125,120.56757103313102L113.85000000000001,64.06134562058884L114.46875,110.9565296498212L115.0875,112.04013201323423L115.70625,118.95209409973837L116.325,132.4207223003561L116.94375,123.5560662096197L117.5625,111.55051507733084L118.18125,94.85495160926475L118.80000000000001,138.27831517566335L119.41875,132.48024360700086L120.0375,95.72270051999527L120.65625,126.97160709987989L121.27499999999999,120.63076566566123L121.89375,123.06685209274292L122.5125,123.73987636782907L123.13125000000001,125.26593706824563L123.75,120.33348522403024L124.36874999999999,127.8821699185805L124.9875,118.3254611492157L125.60625,146.3106128844348L126.225,97.83831563862888L126.84375,120.7049323212017L127.4625,130.806722370061L128.08125,144.42235074260017L128.7,142.6558742198077L129.31875,88.98112129081382L129.9375,112.3847053267739L130.55625,128.50890836932442L131.17499999999998,120.96944055773996L131.79375,118.43531565232712L132.4125,127.76476735418494L133.03125,144.51683098619634L133.65,133.79429681734607L134.26875,138.98378556424922L134.88750000000002,139.76920593868604L135.50625,125.56839661164719L136.125,133.38380504738203L136.74375,132.15849670496854L137.3625,119.55670627680692L137.98125000000002,133.52347774939105L138.6,151.476028399034L139.21875,126.52052651752128L139.8375,109.03419093652207L140.45625,124.4752225008878L141.07500000000002,79.55336256460711L141.69375,128.46275681799108L142.3125,123.19348113103348L142.93125,132.91293837807396L143.54999999999998,119.20321339910682L144.16875,127.16233231804587L144.7875,114.42179950800809L145.40625,141.86428687789223L146.025,152.31144628741524L146.64374999999998,145.73580931533468L147.2625,139.02414419434288L147.88125,142.44366532022303L148.5,133.31305276263845L149.11875,146.09429906715047L149.7375,133.73493855649775L150.35625000000002,117.85262833942069L150.97500000000002,138.24832434004003L151.59375,137.93948682871732L152.21249999999998,143.68246810002762L152.83124999999998,125.60949374328962L153.45,64.86103729768234L154.06875,76.44016612659803L154.6875,125.09561175649817L155.30625,147.27437658743426L155.925,128.7179043076255L156.54375,136.81538197127256L157.1625,143.83486796509138L157.78125,128.18499391729182L158.4,132.02829984101385L159.01875,134.4289477846839L159.63750000000002,125.74202120304108L160.25625000000002,146.95474928075618L160.87499999999997,121.11386076970535L161.49374999999998,136.2996105714278L162.11249999999998,137.91252672672272L162.73125,159.97711154547605L163.35,135.5717357722196L163.96875,143.8946769996123L164.5875,138.12500417232513L165.20625,135.2157204801386L165.825,134.00063606825742L166.44375,111.52982744303617L167.0625,122.61932015419006L167.68125,115.81457506526603L168.3,160.62397176569158L168.91875000000002,110.14661404219541L169.53750000000002,130.61643833463842L170.15625,160.91660060665825L170.77499999999998,158.02202939987183L171.39374999999998,104.79764732447538L172.0125,131.1243355816061L172.63125,148.9975212920796L173.25,140.61181702397087L173.86875,129.92583388631994L174.4875,132.67484356056562L175.10625000000002,147.8953029350801L175.725,36.84301744807853L176.34375,141.0588981888511L176.9625,121.08063779094003L177.58125,133.74471171335742L178.20000000000002,131.02383223446935L178.81875,135.49017451026222L179.4375,153.1086251410571L180.05624999999998,136.60795894536108L180.67499999999998,126.74758217551492L181.29375,152.00527505441147L181.9125,151.18388869545677L182.53125,131.09163051301783L183.15,104.32923593304373L183.76875,157.90781102397224L184.38750000000002,138.85612070560455L185.00625,109.48929970914668L185.625,150.97384734587237" style="fill: none;" fill="none"></path></g><g><path stroke="rgb(238, 51, 119)" stroke-width="2px" d="M179.4375,95.60292899608612Z" style="fill: none;" fill="none"></path></g></g></g></g></g></g><g transform="translate(51, 177)" clip-path="url(#clip_1)"><clipPath id="clip_1"><rect width="278" height="23"></rect></clipPath><g><g><line x1="0" y1="0" x2="0" y2="5" style="visibility: inherit;" fill="rgb(0, 0, 0)" stroke="rgb(204, 204, 204)" stroke-width="1px"></line><line x1="30.9375" y1="0" x2="30.9375" y2="5" style="visibility: inherit;" fill="rgb(0, 0, 0)" stroke="rgb(204, 204, 204)" stroke-width="1px"></line><line x1="61.875" y1="0" x2="61.875" y2="5" style="visibility: inherit;" fill="rgb(0, 0, 0)" stroke="rgb(204, 204, 204)" stroke-width="1px"></line><line x1="92.8125" y1="0" x2="92.8125" y2="5" style="visibility: inherit;" fill="rgb(0, 0, 0)" stroke="rgb(204, 204, 204)" stroke-width="1px"></line><line x1="123.75" y1="0" x2="123.75" y2="5" style="visibility: inherit;" fill="rgb(0, 0, 0)" stroke="rgb(204, 204, 204)" stroke-width="1px"></line><line x1="154.6875" y1="0" x2="154.6875" y2="5" style="visibility: inherit;" fill="rgb(0, 0, 0)" stroke="rgb(204, 204, 204)" stroke-width="1px"></line><line x1="185.625" y1="0" x2="185.625" y2="5" style="visibility: inherit;" fill="rgb(0, 0, 0)" stroke="rgb(204, 204, 204)" stroke-width="1px"></line><line x1="216.5625" y1="0" x2="216.5625" y2="5" style="visibility: inherit;" fill="rgb(0, 0, 0)" stroke="rgb(204, 204, 204)" stroke-width="1px"></line><line x1="247.5" y1="0" x2="247.5" y2="5" style="visibility: inherit;" fill="rgb(0, 0, 0)" stroke="rgb(204, 204, 204)" stroke-width="1px"></line><line x1="278.4375" y1="0" x2="278.4375" y2="5" style="visibility: inherit;" fill="rgb(0, 0, 0)" stroke="rgb(204, 204, 204)" stroke-width="1px"></line></g><g transform="translate(0, 8)"><text x="0" y="0" dx="0em" dy="0.95em" style="text-anchor: middle; visibility: hidden; font-family: Roboto, sans-serif; font-size: 12px; font-weight: 200;" fill="rgb(33, 33, 33)" stroke="none" stroke-width="1px">-5k</text><text x="30.9375" y="0" dx="0em" dy="0.95em" style="text-anchor: middle; visibility: inherit; font-family: Roboto, sans-serif; font-size: 12px; font-weight: 200;" fill="rgb(33, 33, 33)" stroke="none" stroke-width="1px">0</text><text x="61.875" y="0" dx="0em" dy="0.95em" style="text-anchor: middle; visibility: inherit; font-family: Roboto, sans-serif; font-size: 12px; font-weight: 200;" fill="rgb(33, 33, 33)" stroke="none" stroke-width="1px">5k</text><text x="92.8125" y="0" dx="0em" dy="0.95em" style="text-anchor: middle; visibility: inherit; font-family: Roboto, sans-serif; font-size: 12px; font-weight: 200;" fill="rgb(33, 33, 33)" stroke="none" stroke-width="1px">10k</text><text x="123.75" y="0" dx="0em" dy="0.95em" style="text-anchor: middle; visibility: inherit; font-family: Roboto, sans-serif; font-size: 12px; font-weight: 200;" fill="rgb(33, 33, 33)" stroke="none" stroke-width="1px">15k</text><text x="154.6875" y="0" dx="0em" dy="0.95em" style="text-anchor: middle; visibility: inherit; font-family: Roboto, sans-serif; font-size: 12px; font-weight: 200;" fill="rgb(33, 33, 33)" stroke="none" stroke-width="1px">20k</text><text x="185.625" y="0" dx="0em" dy="0.95em" style="text-anchor: middle; visibility: inherit; font-family: Roboto, sans-serif; font-size: 12px; font-weight: 200;" fill="rgb(33, 33, 33)" stroke="none" stroke-width="1px">25k</text><text x="216.5625" y="0" dx="0em" dy="0.95em" style="text-anchor: middle; visibility: inherit; font-family: Roboto, sans-serif; font-size: 12px; font-weight: 200;" fill="rgb(33, 33, 33)" stroke="none" stroke-width="1px">30k</text><text x="247.5" y="0" dx="0em" dy="0.95em" style="text-anchor: middle; visibility: inherit; font-family: Roboto, sans-serif; font-size: 12px; font-weight: 200;" fill="rgb(33, 33, 33)" stroke="none" stroke-width="1px">35k</text><text x="278.4375" y="0" dx="0em" dy="0.95em" style="text-anchor: middle; visibility: hidden; font-family: Roboto, sans-serif; font-size: 12px; font-weight: 200;" fill="rgb(33, 33, 33)" stroke="none" stroke-width="1px">40k</text></g><line x1="0" y1="0" x2="278.4375" y2="0" fill="rgb(0, 0, 0)" stroke="rgb(204, 204, 204)" stroke-width="1px"></line></g></g></g></g></svg>