<svg viewBox="0 0 330 200" xmlns="http://www.w3.org/2000/svg"><g><g><g><g><g><line x1="41.171875" y1="177" x2="36.171875" y2="177" style="visibility: inherit;" fill="rgb(0, 0, 0)" stroke="rgb(204, 204, 204)" stroke-width="1px"></line><line x1="41.171875" y1="163.3846153846154" x2="36.171875" y2="163.3846153846154" style="visibility: inherit;" fill="rgb(0, 0, 0)" stroke="rgb(204, 204, 204)" stroke-width="1px"></line><line x1="41.171875" y1="149.76923076923077" x2="36.171875" y2="149.76923076923077" style="visibility: inherit;" fill="rgb(0, 0, 0)" stroke="rgb(204, 204, 204)" stroke-width="1px"></line><line x1="41.171875" y1="136.15384615384616" x2="36.171875" y2="136.15384615384616" style="visibility: inherit;" fill="rgb(0, 0, 0)" stroke="rgb(204, 204, 204)" stroke-width="1px"></line><line x1="41.171875" y1="122.53846153846153" x2="36.171875" y2="122.53846153846153" style="visibility: inherit;" fill="rgb(0, 0, 0)" stroke="rgb(204, 204, 204)" stroke-width="1px"></line><line x1="41.171875" y1="108.92307692307693" x2="36.171875" y2="108.92307692307693" style="visibility: inherit;" fill="rgb(0, 0, 0)" stroke="rgb(204, 204, 204)" stroke-width="1px"></line><line x1="41.171875" y1="95.30769230769232" x2="36.171875" y2="95.30769230769232" style="visibility: inherit;" fill="rgb(0, 0, 0)" stroke="rgb(204, 204, 204)" stroke-width="1px"></line><line x1="41.171875" y1="81.6923076923077" x2="36.171875" y2="81.6923076923077" style="visibility: inherit;" fill="rgb(0, 0, 0)" stroke="rgb(204, 204, 204)" stroke-width="1px"></line><line x1="41.171875" y1="68.07692307692307" x2="36.171875" y2="68.07692307692307" style="visibility: inherit;" fill="rgb(0, 0, 0)" stroke="rgb(204, 204, 204)" stroke-width="1px"></line><line x1="41.171875" y1="54.46153846153847" x2="36.171875" y2="54.46153846153847" style="visibility: inherit;" fill="rgb(0, 0, 0)" stroke="rgb(204, 204, 204)" stroke-width="1px"></line><line x1="41.171875" y1="40.84615384615386" x2="36.171875" y2="40.84615384615386" style="visibility: inherit;" fill="rgb(0, 0, 0)" stroke="rgb(204, 204, 204)" stroke-width="1px"></line><line x1="41.171875" y1="27.230769230769234" x2="36.171875" y2="27.230769230769234" style="visibility: inherit;" fill="rgb(0, 0, 0)" stroke="rgb(204, 204, 204)" stroke-width="1px"></line><line x1="41.171875" y1="13.615384615384626" x2="36.171875" y2="13.615384615384626" style="visibility: inherit;" fill="rgb(0, 0, 0)" stroke="rgb(204, 204, 204)" stroke-width="1px"></line><line x1="41.171875" y1="0" x2="36.171875" y2="0" style="visibility: inherit;" fill="rgb(0, 0, 0)" stroke="rgb(204, 204, 204)" stroke-width="1px"></line></g><g transform="translate(31.171875, 0)"><text x="0" y="177" dx="0em" dy="0.3em" style="text-anchor: end; visibility: hidden; font-family: Roboto, sans-serif; font-size: 12px; font-weight: 200;" fill="rgb(33, 33, 33)" stroke="none" stroke-width="1px">0</text><text x="0" y="163.3846153846154" dx="0em" dy="0.3em" style="text-anchor: end; visibility: inherit; font-family: Roboto, sans-serif; font-size: 12px; font-weight: 200;" fill="rgb(33, 33, 33)" stroke="none" stroke-width="1px">0.2</text><text x="0" y="149.76923076923077" dx="0em" dy="0.3em" style="text-anchor: end; visibility: hidden; font-family: Roboto, sans-serif; font-size: 12px; font-weight: 200;" fill="rgb(33, 33, 33)" stroke="none" stroke-width="1px">0.4</text><text x="0" y="136.15384615384616" dx="0em" dy="0.3em" style="text-anchor: end; visibility: inherit; font-family: Roboto, sans-serif; font-size: 12px; font-weight: 200;" fill="rgb(33, 33, 33)" stroke="none" stroke-width="1px">0.6</text><text x="0" y="122.53846153846153" dx="0em" dy="0.3em" style="text-anchor: end; visibility: hidden; font-family: Roboto, sans-serif; font-size: 12px; font-weight: 200;" fill="rgb(33, 33, 33)" stroke="none" stroke-width="1px">0.8</text><text x="0" y="108.92307692307693" dx="0em" dy="0.3em" style="text-anchor: end; visibility: inherit; font-family: Roboto, sans-serif; font-size: 12px; font-weight: 200;" fill="rgb(33, 33, 33)" stroke="none" stroke-width="1px">1</text><text x="0" y="95.30769230769232" dx="0em" dy="0.3em" style="text-anchor: end; visibility: hidden; font-family: Roboto, sans-serif; font-size: 12px; font-weight: 200;" fill="rgb(33, 33, 33)" stroke="none" stroke-width="1px">1.2</text><text x="0" y="81.6923076923077" dx="0em" dy="0.3em" style="text-anchor: end; visibility: inherit; font-family: Roboto, sans-serif; font-size: 12px; font-weight: 200;" fill="rgb(33, 33, 33)" stroke="none" stroke-width="1px">1.4</text><text x="0" y="68.07692307692307" dx="0em" dy="0.3em" style="text-anchor: end; visibility: hidden; font-family: Roboto, sans-serif; font-size: 12px; font-weight: 200;" fill="rgb(33, 33, 33)" stroke="none" stroke-width="1px">1.6</text><text x="0" y="54.46153846153847" dx="0em" dy="0.3em" style="text-anchor: end; visibility: inherit; font-family: Roboto, sans-serif; font-size: 12px; font-weight: 200;" fill="rgb(33, 33, 33)" stroke="none" stroke-width="1px">1.8</text><text x="0" y="40.84615384615386" dx="0em" dy="0.3em" style="text-anchor: end; visibility: hidden; font-family: Roboto, sans-serif; font-size: 12px; font-weight: 200;" fill="rgb(33, 33, 33)" stroke="none" stroke-width="1px">2</text><text x="0" y="27.230769230769234" dx="0em" dy="0.3em" style="text-anchor: end; visibility: inherit; font-family: Roboto, sans-serif; font-size: 12px; font-weight: 200;" fill="rgb(33, 33, 33)" stroke="none" stroke-width="1px">2.2</text><text x="0" y="13.615384615384626" dx="0em" dy="0.3em" style="text-anchor: end; visibility: hidden; font-family: Roboto, sans-serif; font-size: 12px; font-weight: 200;" fill="rgb(33, 33, 33)" stroke="none" stroke-width="1px">2.4</text><text x="0" y="0" dx="0em" dy="0.3em" style="text-anchor: end; visibility: hidden; font-family: Roboto, sans-serif; font-size: 12px; font-weight: 200;" fill="rgb(33, 33, 33)" stroke="none" stroke-width="1px">2.6</text></g><line x1="41.171875" y1="0" x2="41.171875" y2="177" fill="rgb(0, 0, 0)" stroke="rgb(204, 204, 204)" stroke-width="1px"></line></g></g><g transform="translate(41, 0)" clip-path="url(#clip_0)"><clipPath id="clip_0"><rect width="288" height="177"></rect></clipPath><g><g><g><line x1="0" y1="0" x2="0" y2="177" fill="rgb(0, 0, 0)" stroke="rgb(66, 66, 66)" stroke-width="1px" opacity="0.25"></line><line x1="32.092013888888886" y1="0" x2="32.092013888888886" y2="177" fill="rgb(0, 0, 0)" stroke="rgb(66, 66, 66)" stroke-width="1px" opacity="0.25"></line><line x1="64.18402777777777" y1="0" x2="64.18402777777777" y2="177" fill="rgb(0, 0, 0)" stroke="rgb(66, 66, 66)" stroke-width="1px" opacity="0.25"></line><line x1="96.27604166666666" y1="0" x2="96.27604166666666" y2="177" fill="rgb(0, 0, 0)" stroke="rgb(66, 66, 66)" stroke-width="1px" opacity="0.25"></line><line x1="128.36805555555554" y1="0" x2="128.36805555555554" y2="177" fill="rgb(0, 0, 0)" stroke="rgb(66, 66, 66)" stroke-width="1px" opacity="0.25"></line><line x1="160.46006944444446" y1="0" x2="160.46006944444446" y2="177" fill="rgb(0, 0, 0)" stroke="rgb(66, 66, 66)" stroke-width="1px" opacity="0.25"></line><line x1="192.55208333333331" y1="0" x2="192.55208333333331" y2="177" fill="rgb(0, 0, 0)" stroke="rgb(66, 66, 66)" stroke-width="1px" opacity="0.25"></line><line x1="224.64409722222223" y1="0" x2="224.64409722222223" y2="177" fill="rgb(0, 0, 0)" stroke="rgb(66, 66, 66)" stroke-width="1px" opacity="0.25"></line><line x1="256.7361111111111" y1="0" x2="256.7361111111111" y2="177" fill="rgb(0, 0, 0)" stroke="rgb(66, 66, 66)" stroke-width="1px" opacity="0.25"></line><line x1="288.828125" y1="0" x2="288.828125" y2="177" fill="rgb(0, 0, 0)" stroke="rgb(66, 66, 66)" stroke-width="1px" opacity="0.25"></line></g><g><line x1="0" y1="177" x2="288.828125" y2="177" fill="rgb(0, 0, 0)" stroke="rgb(66, 66, 66)" stroke-width="1px" opacity="0.25"></line><line x1="0" y1="163.3846153846154" x2="288.828125" y2="163.3846153846154" fill="rgb(0, 0, 0)" stroke="rgb(66, 66, 66)" stroke-width="1px" opacity="0.25"></line><line x1="0" y1="149.76923076923077" x2="288.828125" y2="149.76923076923077" fill="rgb(0, 0, 0)" stroke="rgb(66, 66, 66)" stroke-width="1px" opacity="0.25"></line><line x1="0" y1="136.15384615384616" x2="288.828125" y2="136.15384615384616" fill="rgb(0, 0, 0)" stroke="rgb(66, 66, 66)" stroke-width="1px" opacity="0.25"></line><line x1="0" y1="122.53846153846153" x2="288.828125" y2="122.53846153846153" fill="rgb(0, 0, 0)" stroke="rgb(66, 66, 66)" stroke-width="1px" opacity="0.25"></line><line x1="0" y1="108.92307692307693" x2="288.828125" y2="108.92307692307693" fill="rgb(0, 0, 0)" stroke="rgb(66, 66, 66)" stroke-width="1px" opacity="0.25"></line><line x1="0" y1="95.30769230769232" x2="288.828125" y2="95.30769230769232" fill="rgb(0, 0, 0)" stroke="rgb(66, 66, 66)" stroke-width="1px" opacity="0.25"></line><line x1="0" y1="81.6923076923077" x2="288.828125" y2="81.6923076923077" fill="rgb(0, 0, 0)" stroke="rgb(66, 66, 66)" stroke-width="1px" opacity="0.25"></line><line x1="0" y1="68.07692307692307" x2="288.828125" y2="68.07692307692307" fill="rgb(0, 0, 0)" stroke="rgb(66, 66, 66)" stroke-width="1px" opacity="0.25"></line><line x1="0" y1="54.46153846153847" x2="288.828125" y2="54.46153846153847" fill="rgb(0, 0, 0)" stroke="rgb(66, 66, 66)" stroke-width="1px" opacity="0.25"></line><line x1="0" y1="40.84615384615386" x2="288.828125" y2="40.84615384615386" fill="rgb(0, 0, 0)" stroke="rgb(66, 66, 66)" stroke-width="1px" opacity="0.25"></line><line x1="0" y1="27.230769230769234" x2="288.828125" y2="27.230769230769234" fill="rgb(0, 0, 0)" stroke="rgb(66, 66, 66)" stroke-width="1px" opacity="0.25"></line><line x1="0" y1="13.615384615384626" x2="288.828125" y2="13.615384615384626" fill="rgb(0, 0, 0)" stroke="rgb(66, 66, 66)" stroke-width="1px" opacity="0.25"></line><line x1="0" y1="0" x2="288.828125" y2="0" fill="rgb(0, 0, 0)" stroke="rgb(66, 66, 66)" stroke-width="1px" opacity="0.25"></line></g></g></g><g><g><line x1="0" y1="177" x2="288.828125" y2="177" fill="rgb(0, 0, 0)" stroke="rgb(153, 153, 153)" stroke-width="1.5px"></line></g></g><g><g><line x1="32.092013888888886" y1="0" x2="32.092013888888886" y2="177" fill="rgb(0, 0, 0)" stroke="rgb(153, 153, 153)" stroke-width="1.5px"></line></g></g><g><g><g><g><g><path stroke="rgb(255, 112, 67)" stroke-width="2px" d="M32.73385416666667,138.12125729139035L33.37569444444444,138.05193341281898L34.01753472222222,138.15607905258057L34.659375,138.32433250780167L35.30121527777778,138.55126872097216L35.94305555555555,138.82044232644176L36.584895833333334,139.12011526766847L37.22673611111111,139.39727060930113L37.86857638888889,139.6872020034531L38.510416666666664,140.00984514403612L39.152256944444446,140.36079116786706L39.79409722222222,140.58128821583063L40.4359375,140.5518626978382L41.077777777777776,140.30540635091876L41.71961805555555,140.20141665328956L42.36145833333333,140.12630548176696L43.003298611111106,140.16685182429356L43.64513888888889,140.31421657424448L44.28697916666666,140.54691215366924L44.92881944444444,140.82094373344825L45.57065972222222,141.13803324847925L46.2125,141.51618204853446L46.85434027777777,141.9468070701926L47.496180555555554,142.4177670763611L48.13802083333333,142.91963874920742L48.77986111111111,143.44722992733188L49.421701388888884,143.99669146117284L50.063541666666666,144.5619217582117L50.70538194444444,145.13754976696669L51.34722222222222,145.72005767000397L51.989062499999996,146.2939161960634L52.63090277777778,146.87131425305085L53.27274305555555,147.44580706385779L53.91458333333333,148.01845243404793L54.55642361111111,148.587065241372L55.19826388888889,149.15028739906862L55.84010416666666,149.7088213296186L56.481944444444444,150.25939460370626L57.12378472222222,150.80116966159065L57.765625,151.33327358210818L58.407465277777774,151.8510022406815L59.049305555555556,152.3522766412197L59.69114583333333,152.82477067872833L60.33298611111111,153.28355399952733L60.974826388888886,153.7342799216157L61.61666666666667,154.17927898227316L62.25850694444444,154.6111004462606L62.900347222222216,155.03332267851633L63.5421875,155.43780836660386L64.18402777777777,155.83438868853324L64.82586805555556,156.21925448944606L65.46770833333333,156.59256879729026L66.10954861111111,156.9578120228872L66.75138888888888,157.31675565702798L67.39322916666667,157.66654730677507L68.03506944444445,158.0069565131888L68.67690972222222,158.33584461144073L69.31875,158.65196807369048L69.96059027777778,158.9314863796188L70.60243055555556,159.2018205178043L71.24427083333333,159.4567385069459L71.8861111111111,159.70908817485184L72.5279513888889,159.95687445158597L73.16979166666667,160.20255712730457L73.81163194444444,160.42742454847627L74.45347222222222,153.0420455921325L75.0953125,134.1313887408518L75.73715277777778,117.81244569973984L76.37899305555555,103.08274700070022L77.02083333333333,90.40468928343513L77.66267361111112,79.63738728568201L78.30451388888889,70.55854974055548L78.94635416666667,62.95889314180821L79.58819444444444,56.60322749656418L80.23003472222223,51.41808562018549L80.871875,47.266681357912326L81.51371527777778,44.02429366021752L82.15555555555555,41.580553068499235L82.79739583333334,39.831804174559366L83.4392361111111,38.69062035903277L84.08107638888889,38.07981807486707L84.72291666666666,37.92811463183676L85.36475694444445,38.173585844085366L86.00659722222221,38.76163792085892L86.6484375,39.63199249910725L87.29027777777777,40.74896698966059L87.93211805555556,42.08215200429317L88.57395833333332,43.59663140071168L89.21579861111111,45.26334926467198L89.85763888888889,47.053003960988555L90.49947916666667,48.942984859426154L91.14131944444443,50.9147240487211L91.78315972222222,52.94866213661264L92.425,55.03008988214333L93.06684027777779,57.14638179604113L93.70868055555555,59.28833010896866L94.35052083333333,61.44324285738473L94.99236111111111,63.599824377380024L95.6342013888889,65.75211932622794L96.27604166666666,67.89464458432224L96.91788194444445,70.01653896428844L97.55972222222222,72.11878595537657L98.20156250000001,74.19579191635476L98.84340277777777,76.24259818189911L99.48524305555556,78.25687111714498L100.12708333333333,80.23613600380574L100.76892361111112,82.18092515570508L101.41076388888888,84.08840027122437L102.05260416666667,85.95620995357933L102.69444444444444,87.78521546852544L103.33628472222222,89.57281844224758L103.97812499999999,91.32009463499425L104.61996527777778,93.02705123675193L105.26180555555555,94.69306597066169L105.90364583333333,96.31862819268541L106.5454861111111,97.90339510985896L107.18732638888889,99.44667505297585L107.82916666666667,100.95016537409612L108.47100694444444,102.41409577592017L109.11284722222221,103.8367792446652L109.7546875,105.22119255872474L110.39652777777778,106.56791949006463L111.03836805555555,107.87773924269567L111.68020833333333,109.15121652163505L112.32204861111111,110.38824602475076L112.96388888888889,111.58970973857033L113.60572916666666,112.75769388981303L114.24756944444444,113.87517620097297L114.88940972222223,114.95986097345896L115.53125,116.01634472720242L116.17309027777777,117.0460563372461L116.81493055555555,118.04691388507221L117.45677083333334,119.01759789528663L118.09861111111111,119.9600396306451L118.74045138888889,120.87695492732276L119.38229166666666,121.77005958572227L120.02413194444445,122.6382742579355L120.66597222222222,123.4818281962485L121.3078125,124.30188608138027L121.94965277777777,125.09949665628606L122.59149305555556,125.8738528051394L123.23333333333333,126.62719180098433L123.87517361111111,127.35930071417754L124.51701388888888,128.07174563229495L125.15885416666667,128.765879917224L125.80069444444443,129.44120755375903L126.44253472222222,130.09780834572717L127.084375,130.73592852996364L127.72621527777778,131.35499910169065L128.36805555555554,131.95689381816746L129.00989583333333,132.54239545363873L129.65173611111112,133.11083798236876L130.29357638888888,133.6634141376927L130.93541666666667,134.20061548656403L131.57725694444443,134.24953842725313L132.21909722222222,134.32995860152738L132.8609375,134.44484691640562L133.50277777777777,134.5910193566661L134.14461805555555,134.76294679643158L134.78645833333334,134.95872226081863L135.42829861111113,135.17314337889613L136.0701388888889,135.40286478456352L136.71197916666665,135.64611171387165L137.35381944444444,135.89991255089564L137.99565972222223,136.16213030967586L138.6375,136.43101947700393L139.27934027777778,136.7051637186582L139.92118055555557,136.98263700119492L140.56302083333335,137.26147580514382L141.20486111111111,137.54169987419326L141.84670138888887,137.82154933114356L142.48854166666666,138.1008432649435L143.13038194444445,138.37818880459085L143.7722222222222,138.6533863047237L144.4140625,138.92605124938814L145.0559027777778,139.19520724016132L145.69774305555558,139.46045647124666L146.33958333333334,139.72190088727663L146.9814236111111,139.9784488348632L147.62326388888889,140.23055086073362L148.26510416666665,140.4778008711485L148.90694444444443,140.7202634516022L149.54878472222222,140.95673847489752L150.190625,141.18767796105777L150.8324652777778,141.41192318886783L151.47430555555556,141.63103708325139L152.11614583333332,141.8449491306078L152.7579861111111,142.05372769992266L153.39982638888887,142.25738109256022L154.04166666666666,142.45587395550072L154.68350694444445,142.64916299579968L155.32534722222223,142.8372442867764L155.96718750000002,143.0200702532451L156.60902777777778,143.19747857854424L157.25086805555554,143.36960804659572L157.89270833333333,143.53665640101957L158.53454861111112,143.69876071703547L159.17638888888888,143.85594571366732L159.81822916666667,144.00803808670898L160.46006944444446,144.15535697641167L161.10190972222225,144.29797115637388L161.74375,144.43594225850595L162.38559027777777,144.5692126519541L163.02743055555555,144.69779057128906L163.66927083333334,144.8219123967609L164.3111111111111,144.9415723460261L164.9529513888889,145.05692047265248L165.59479166666668,145.1681033655216L166.23663194444447,145.2751153807857L166.8784722222222,145.37815336939286L167.5203125,145.47718363029068L168.16215277777778,145.5723091427666L168.80399305555557,145.66362729449912L169.44583333333333,145.7511655708488L170.08767361111111,145.83507616339494L170.7295138888889,145.91542876768477L171.3713541666667,145.99231753363006L172.01319444444442,146.0658330497118L172.6550347222222,146.13602950974328L173.296875,146.20298266176096L173.9387152777778,146.26678706754865L174.58055555555555,146.327501771601L175.22239583333334,146.38523355531314L175.86423611111113,146.44002936407142L176.5060763888889,146.49195521676202L177.14791666666665,146.5411082755613L177.78975694444443,146.58758312142444L178.43159722222222,146.6314355596613L179.0734375,146.67275884181234L179.71527777777777,146.71163363645917L180.35711805555556,146.74813501986318L180.99895833333335,146.7823311205607L181.64079861111114,146.814308176513L182.28263888888887,146.84414254695847L182.92447916666666,146.87192195852643L183.56631944444445,146.89773039535865L184.20815972222223,146.92164242111983L184.85,146.94373439007722L185.49184027777778,146.96409467568193L186.13368055555557,146.9828037150347L186.77552083333333,147.0152156115642L187.4173611111111,147.08109005745163L188.05920138888888,147.17920738097249L188.70104166666667,147.2966643239909L189.34288194444446,147.43405889511268L189.98472222222222,147.5911687849366L190.6265625,147.76811306943907L191.2684027777778,147.9627926966979L191.91024305555555,148.17272450141604L192.55208333333331,148.3955429636535L193.1939236111111,148.62992999541396L193.8357638888889,148.87239569928553L194.47760416666668,149.12177173556108L195.11944444444444,149.37585770320555L195.76128472222223,149.63223688606075L196.40312500000002,149.89294093557632L197.04496527777778,150.1537058977594L197.68680555555554,150.41730896147521L198.32864583333333,150.68175447383052L198.97048611111111,150.94729398774916L199.6123263888889,151.21187880499355L200.25416666666666,151.47340069833766L200.89600694444445,151.73272946686222L201.53784722222224,151.99191288549454L202.1796875,152.24914688349162L202.82152777777776,152.50560196133068L203.46336805555555,152.75850242776116L204.10520833333334,153.0094614632412L204.74704861111113,153.25883528838622L205.38888888888889,153.5059466643395L206.03072916666667,153.749741663812L206.67256944444443,153.9896855165868L207.31440972222222,154.22629341168263L207.95624999999998,154.46018974774745L208.59809027777777,154.69094414986532L209.23993055555556,154.91513025319324L209.88177083333335,155.13663227559485L210.5236111111111,155.35495611763884L211.1654513888889,155.56962125578718L211.80729166666666,155.78257264588385L212.44913194444445,155.9896981586254L213.0909722222222,156.19413351066726L213.7328125,156.3960119832648L214.37465277777778,156.59237690805185L215.01649305555557,156.7862142237939L215.65833333333333,156.9773747554999L216.30017361111112,157.16594476485352L216.94201388888888,157.3507334954948L217.58385416666667,157.52619236761691L218.22569444444443,157.68685004949424L218.86753472222222,157.84479771315353L219.509375,158.00112464485503L220.1512152777778,158.15666507572715L220.79305555555555,158.3117560677063L221.43489583333334,158.46464605957604L222.0767361111111,158.61665838127365L222.7185763888889,158.76611204024678L223.36041666666665,158.91182817578843L224.00225694444444,159.05146988717578L224.64409722222223,159.18673577651657L225.28593750000002,159.32098641533074L225.92777777777778,159.45414254663154L226.56961805555557,159.5875401176493L227.21145833333333,159.71885531996207L227.85329861111111,159.84901552285947L228.49513888888887,159.97858521496323L229.13697916666666,160.1077019332236L229.77881944444445,160.2360350034073L230.42065972222224,160.3628988110092L231.0625,160.48723433724322L231.70434027777776,160.60952941229644L232.34618055555555,160.73016279173356L232.98802083333334,160.85003040076077L233.6298611111111,160.9679902403413L234.27170138888889,161.08488467756746L234.91354166666667,161.19862427750485L235.55538194444446,161.30983164296612L236.19722222222222,161.41884436874727L236.83906249999998,161.52545518363138L237.48090277777777,161.62844142713513L238.12274305555556,161.72718538144125L238.76458333333332,161.8246625454696L239.4064236111111,161.92133529024895L240.0482638888889,162.01691955531464L240.69010416666669,162.1100041668211L241.33194444444445,162.2007192801757L241.9737847222222,162.2906293114923L242.615625,162.3800752646796L243.25746527777778,162.46899651590465L243.89930555555554,162.555694928281L244.54114583333333,162.64142615793568L245.18298611111112,162.72626699171957L245.8248263888889,162.81019438957935L246.46666666666667,162.89282838922912L247.10850694444443,162.97450211131078L247.75034722222222,163.0550245868216L248.3921875,163.13368299713173L249.03402777777777,163.21063565923242L249.67586805555555,163.2862256240139L250.31770833333334,163.36108030758496L250.95954861111113,163.434777456797L251.60138888888886,163.50742529756295L252.24322916666665,163.57856071680965L252.88506944444444,163.64862916779697L253.52690972222223,163.71762650371704L254.16875,163.78591340198952L254.81059027777778,163.85311444703916L255.45243055555557,163.9194594702021L256.0942708333333,163.98522122491642L256.7361111111111,164.04976689980873L257.3779513888889,164.11084213188084L258.01979166666666,164.1712673254343L258.6616319444444,164.23122828467572L259.30347222222224,164.28957245490523L259.9453125,164.34690982866547L260.58715277777776,164.4037660256416L261.2289930555556,164.46011210101832L261.87083333333334,164.51594532684047L262.5126736111111,164.57132546246768L263.15451388888886,164.62589644693804L263.7963541666667,164.6800735291338L264.43819444444443,164.7331952776517L265.08003472222225,164.78550649354398L265.721875,164.83699480358888L266.36371527777777,164.8878425830109L267.00555555555553,164.93758813360444" style="fill: none;" fill="none"></path></g><g><path stroke="rgb(0, 119, 187)" stroke-width="2px" d="M186.13368055555557,147.1389881166128L263.15451388888886,156.6174749884426" style="fill: none;" fill="none"></path></g><g><path stroke="rgb(204, 51, 17)" stroke-width="2px" d="M37.22673611111111,-0.8691679390545557L37.86857638888889,1.065737881333321L38.510416666666664,3.1123724647111857L39.152256944444446,5.267320659968792L39.79409722222222,7.52764403087565L40.4359375,9.888088947628095L41.077777777777776,12.352092403805997L41.71961805555555,14.915451791265847L42.36145833333333,17.535856757988523L43.003298611111106,20.250165113116616L43.64513888888889,23.052692486069176L44.28697916666666,25.93933716902233L44.92881944444444,28.901675927336626L45.57065972222222,31.931647009189096L46.2125,35.00922892072304L46.85434027777777,38.11717299371783L47.496180555555554,41.23162108741092L48.13802083333333,44.32673001844489L48.77986111111111,47.40912404638744L49.421701388888884,50.48321563652492L50.063541666666666,53.54042666100324L50.70538194444444,56.57293828953105L51.34722222222222,59.57124225613727L51.989062499999996,62.53036196886697L52.63090277777778,65.44793257653573L53.27274305555555,68.31296238290233L53.91458333333333,71.1292278715621L54.55642361111111,73.88477198725705L55.19826388888889,76.57484766276913L55.84010416666666,79.21274497548151L56.481944444444444,81.75188888739639L57.12378472222222,84.23312798880463L57.765625,86.4951921392355L58.407465277777774,88.67274611575895L59.049305555555556,89.21574900889047L59.69114583333333,89.80247631342179L60.33298611111111,90.57521461707125L60.974826388888886,91.47277992426106L61.61666666666667,92.5060538214119L62.25850694444444,93.65969901234342L62.900347222222216,94.90996386666329L63.5421875,96.24335071669134L64.18402777777777,97.63839170642993L64.82586805555556,98.8346225695428L65.46770833333333,100.09146627895989L66.10954861111111,101.41123161170319L66.75138888888888,102.78132147773046L67.39322916666667,104.1901592274572L68.03506944444445,105.60002095926603L68.67690972222222,107.02778203111448L69.31875,108.4672091683728L69.96059027777778,109.91325930319626L70.60243055555556,111.36048837981471L71.24427083333333,112.73380214313138L71.8861111111111,114.09148236776863L72.5279513888889,115.44397935017088L73.16979166666667,116.77881405500828L73.81163194444444,118.10146212435413L74.45347222222222,119.41024727666336L75.0953125,120.70259425296965L75.73715277777778,121.97856035540822L76.37899305555555,123.23341247438654L77.02083333333333,124.46724614891536L77.66267361111112,125.67621034966999L78.30451388888889,126.86115618659768L78.94635416666667,128.02152297742043L79.58819444444444,129.1550944259737L80.23003472222223,130.26118158562795L80.871875,131.3408761927797L81.51371527777778,132.39337998007522L82.15555555555555,133.41847907679266L82.79739583333334,134.41664214359102L83.4392361111111,135.385755354223L84.08107638888889,136.3293251663785L84.72291666666666,137.24792467677094L85.36475694444445,138.14050659347083L86.00659722222221,139.00823664458616L86.6484375,139.8529174186275L87.29027777777777,140.66952298213891L87.93211805555556,141.46188546887888L88.57395833333332,142.23170735344183L89.21579861111111,142.97806235194457L89.85763888888889,143.70258052151337L90.49947916666667,144.40542178005225L91.14131944444443,145.0876230733112L91.78315972222222,145.75059921532633L92.425,146.3935689945075L93.06684027777779,147.01520497096814L93.70868055555555,147.61270112901917L94.35052083333333,148.18625381239127L94.99236111111111,148.7326567067698L95.6342013888889,149.26268133436574L96.27604166666666,149.77909088648624L96.91788194444445,150.28226402734217L97.55972222222222,150.77280807830866L98.20156250000001,151.24531560749992L98.84340277777777,151.70562595843305L99.48524305555556,152.1520712783418L100.12708333333333,152.58641936459907L100.76892361111112,153.00990063860652L101.41076388888888,153.41942080159666L102.05260416666667,153.81615505531593L102.69444444444444,154.19867131639447L103.33628472222222,154.57110924267346L103.97812499999999,154.93019181410696L104.61996527777778,155.27486242851452L105.26180555555555,155.60606055562673L105.90364583333333,155.92760857137918L106.5454861111111,156.23999959155086L107.18732638888889,156.5450913298733L107.82916666666667,156.84126274923804L108.47100694444444,157.1278132607756L109.11284722222221,157.40838104892754L109.7546875,157.68152418837818L110.39652777777778,157.94616246657375L111.03836805555555,158.2036177242564L111.68020833333333,158.45299088605373L112.32204861111111,158.69544382465867L112.96388888888889,158.93199129738176L113.60572916666666,159.16123510205463L114.24756944444444,159.38507885743655L114.88940972222223,159.60198008152423L115.53125,159.8091017529285L116.17309027777777,160.00863845968465L116.81493055555555,160.20215649801233L117.45677083333334,160.39094038223317L118.09861111111111,160.57649928452395L118.74045138888889,160.75647163757333L119.38229166666666,160.93046202990018L120.02413194444445,161.09989877518237L120.66597222222222,161.26432142089877L121.3078125,161.41643289099443L121.94965277777777,161.56617665205087L122.59149305555556,161.71240627218833L123.23333333333333,161.8567232210467L123.87517361111111,161.99737044790908L124.51701388888888,162.13448488480878L125.15885416666667,162.26670795297815L125.80069444444443,162.3964987939681L126.44253472222222,162.52262952481945L127.084375,162.646447828655L127.72621527777778,162.7660348240762L128.36805555555554,162.88309422507547L129.00989583333333,162.99741379140542L129.65173611111112,163.1105565358775L130.29357638888888,163.218658319427L130.93541666666667,163.32372885521187L131.57725694444443,163.42683188512413L132.21909722222222,163.52801468291648L132.8609375,163.62618095128406L133.50277777777777,163.72177904374624L134.14461805555555,163.81577268074528L134.78645833333334,163.90758306929453L135.42829861111113,163.99829327842073L136.0701388888889,164.08644671244494L136.71197916666665,164.17105132913866L137.35381944444444,164.25382953504584L137.99565972222223,164.33537109466218L138.6375,164.415582775764L139.27934027777778,164.49469902879187L139.92118055555557,164.57132027772457L140.56302083333335,164.64075380998338L141.20486111111111,164.70908549739872L141.84670138888887,164.77640273665148L142.48854166666666,164.84316217269546L143.13038194444445,164.90828877675781L143.7722222222222,164.97265725887814L144.4140625,165.03555463388219L145.0559027777778,165.09623989570898L145.69774305555558,165.1543580698693L146.33958333333334,165.21171039048917L146.9814236111111,165.26801246959673L147.62326388888889,165.32307753715764L148.26510416666665,165.3774308808682L148.90694444444443,165.42923123430717L149.54878472222222,165.48074082701743L150.190625,165.5315837322841L150.8324652777778,165.58165902713475L151.47430555555556,165.63101280944363L152.11614583333332,165.6795125750173L152.7579861111111,165.72720845711808L153.39982638888887,165.7740264781637L154.04166666666666,165.819672743373L154.68350694444445,165.86418861795428L155.32534722222223,165.90778709859052L155.96718750000002,165.95041916145234L156.60902777777778,165.99216237988966L157.25086805555554,166.0330701795533L157.89270833333333,166.07287592758246L158.53454861111112,166.11154688512852L159.17638888888888,166.14924691528068L159.81822916666667,166.18600924545373L160.46006944444446,166.22167370515308L161.10190972222225,166.25652926524455L161.74375,166.29049325867473L162.38559027777777,166.32362417828745L163.02743055555555,166.3558322832984L163.66927083333334,166.38707889880305L164.3111111111111,166.41731819958787L164.9529513888889,166.44660358803606L165.59479166666668,166.47509010199406L166.23663194444447,166.5026629582807L166.8784722222222,166.5293931080231L167.5203125,166.55526760449953L168.16215277777778,166.58025230924008L168.80399305555557,166.60429774147914L169.44583333333333,166.627486385154L170.08767361111111,166.64989309239894L170.7295138888889,166.67141060240104L171.3713541666667,166.69210714047807L172.01319444444442,166.71196645741253L172.6550347222222,166.73104806931804L173.296875,166.74937603442692L173.9387152777778,166.76694915114976L174.58055555555555,166.78375625192203L175.22239583333334,166.79979441943593L175.86423611111113,166.81511499465347L176.5060763888889,166.8297106387403L177.14791666666665,166.84358912585895L177.78975694444443,166.85677975829688L178.43159722222222,166.86929394108117L179.0734375,166.88114478957553L179.71527777777777,166.89234911734408L180.35711805555556,166.90291488357215L180.99895833333335,166.91285559987875L181.64079861111114,166.9221798587476L182.28263888888887,166.93091975555356L182.92447916666666,166.93908018044047L183.56631944444445,166.94669046531118L184.20815972222223,166.95375987076932L184.85,166.96031577018942L185.49184027777778,166.96636860588384L186.13368055555557,166.97194322455755L186.77552083333333,166.9770658304275L187.4173611111111,166.98175559066306L188.05920138888888,166.9860328778513L188.70104166666667,166.989919466648L189.34288194444446,166.99343751540806L189.98472222222222,166.99661191308687L190.6265625,166.99946662221745L191.2684027777778,167.00202694890774L191.91024305555555,167.00431701112106L192.55208333333331,167.00636247085154" style="fill: none;" fill="none"></path></g><g><path stroke="rgb(0, 153, 136)" stroke-width="2px" d="M186.13368055555557,167.0184840766283Z" style="fill: none;" fill="none"></path></g><g><path stroke="rgb(51, 187, 238)" stroke-width="2px" d="M32.73385416666667,140.29207042088876L33.37569444444444,140.2739554554329L34.01753472222222,140.29621229061894L34.659375,140.4065881054675L35.30121527777778,140.55844754217227L35.94305555555555,140.73222440119898L36.584895833333334,138.78456976061142L37.22673611111111,136.30282379911463L37.86857638888889,134.41461269480246L38.510416666666664,132.9375208619636L39.152256944444446,131.83488318326613L39.79409722222222,107.69231283715634L40.4359375,87.87777810476683L41.077777777777776,71.63017347627677L41.71961805555555,58.26023607397078L42.36145833333333,47.215464130469464L43.003298611111106,38.07566667482658L43.64513888888889,30.470544436884435L44.28697916666666,24.136782234570862L44.92881944444444,18.92582445079595L45.57065972222222,13.275588771841754L46.2125,8.436237271938847L46.85434027777777,4.1776154640144005L47.496180555555554,0.6912879431560579L48.13802083333333,-2.1201612938769796L58.407465277777774,-0.7260458109482069L59.049305555555556,0.639849056630879L59.69114583333333,2.060765400757341L60.33298611111111,3.5250855806006545L60.974826388888886,5.0279118988304425L61.61666666666667,6.562573312818928L62.25850694444444,8.115167094375618L62.900347222222216,9.665038393640138L63.5421875,11.231254776141505L64.18402777777777,12.809164396570981L64.82586805555556,14.397456949560414L65.46770833333333,15.988327884094202L66.10954861111111,17.58369558281597L66.75138888888888,19.180558879880575L67.39322916666667,20.77686539713348L68.03506944444445,22.36926744538491L68.67690972222222,23.956125172372715L69.31875,25.535574628055933L69.96059027777778,27.10667202224521L70.60243055555556,28.66771358810305L71.24427083333333,30.21719121323603L71.8861111111111,31.754274838673233L72.5279513888889,33.277490113993714L73.16979166666667,34.7860261246263L73.81163194444444,36.27887102463231L74.45347222222222,37.75652543748009L75.0953125,39.21794118298477L75.73715277777778,40.66257105795964L76.37899305555555,42.090475084106465L77.02083333333333,43.50137992735078L77.66267361111112,44.894901522264554L78.30451388888889,46.2707316402039L78.94635416666667,47.62840576934527L79.58819444444444,48.96811987971433L80.23003472222223,50.28903560258312L80.871875,51.591988801213326L81.51371527777778,52.877113039853064L82.15555555555555,54.14424922321818L82.79739583333334,55.3936882570814L83.4392361111111,56.62501911206409L84.08107638888889,57.838359908821204L84.72291666666666,59.03411632709552L85.36475694444445,60.21237596128344L86.00659722222221,61.37276611238014L86.6484375,62.515921188907484L87.29027777777777,63.64243879658819L87.93211805555556,64.75223066739282L88.57395833333332,65.84452053656923L89.21579861111111,66.91992028482939L89.85763888888889,67.97836139685604L90.49947916666667,69.0195837433495L91.14131944444443,70.04397063210077L91.78315972222222,71.05232712522698L92.425,72.04433437309598L93.06684027777779,73.02055598777388L93.70868055555555,73.98124339741729L94.35052083333333,74.92653772176592L94.99236111111111,75.85691489348737L95.6342013888889,76.77169446384919L96.27604166666666,77.67191430782621L96.91788194444445,78.55782129397296L97.55972222222222,79.42924943484213L98.20156250000001,80.28673561804443L98.84340277777777,81.13032943008994L99.48524305555556,81.95922849194186L100.12708333333333,82.774119527622L100.76892361111112,83.57539607518645L101.41076388888888,84.36254901615541L102.05260416666667,85.13617701075576L102.69444444444444,85.8975440688405L103.33628472222222,86.64498979888992L103.97812499999999,87.37581404021418L104.61996527777778,88.09469041842374L105.26180555555555,88.80223918197646L105.90364583333333,89.49813717474422L106.5454861111111,90.18189869979084L107.18732638888889,90.85445333584349L107.82916666666667,91.5147876876131L108.47100694444444,92.16296760583731L109.11284722222221,92.80015730142681L109.7546875,93.42679377806078L110.39652777777778,94.0430692946784L111.03836805555555,94.6488542200156L111.68020833333333,95.24402584538633L112.32204861111111,95.82884363904328L112.96388888888889,96.40299311386983L113.60572916666666,96.96579920190611L114.24756944444444,97.51900708100088L114.88940972222223,98.06264255905059L115.53125,98.59697095112197L116.17309027777777,99.1212479494583L116.81493055555555,99.63622516291899L117.45677083333334,100.14171498132406L118.09861111111111,100.637799084401L118.74045138888889,101.12503147672723L119.38229166666666,101.6032443344312L120.02413194444445,102.07316048045797L120.66597222222222,102.53459351794231L121.3078125,102.98780769498134L121.94965277777777,103.43279932088268L122.59149305555556,103.86933238243864L123.23333333333333,104.2977232070235L123.87517361111111,104.71809189377615L124.51701388888888,105.1304970636402L125.15885416666667,105.53483649908425L125.80069444444443,105.93129983037339L126.44253472222222,106.31996218150522L127.084375,106.70106040019084L127.72621527777778,107.07483117347505L128.36805555555554,107.44119930799813L129.00989583333333,107.8004089588151L129.65173611111112,108.15254833832724L130.29357638888888,108.49742442725467L130.93541666666667,108.83536806702324L131.57725694444443,109.16636079119979L132.21909722222222,109.49059538110701L132.8609375,109.80801344405558L133.50277777777777,110.11897182726284L134.14461805555555,110.42349916705028L134.78645833333334,110.72173565757575L135.42829861111113,111.0136606097499L136.0701388888889,111.29935801326953L136.71197916666665,111.57911474783387L137.35381944444444,111.85288090434251L137.99565972222223,112.12077125581793L138.6375,112.38279972306955L139.27934027777778,112.6390408242563L139.92118055555557,112.8896175467086L140.56302083333335,113.13457502618435L141.20486111111111,113.37385240637276L141.84670138888887,113.60768233159247L142.48854166666666,113.83610496205772L143.13038194444445,114.05918307962487L143.7722222222222,114.27714641808538L144.4140625,114.48992529757842L145.0559027777778,114.69772841855571L145.69774305555558,114.9003361978402L146.33958333333334,115.09794287006942L146.9814236111111,115.29024863712637L147.62326388888889,115.47789797884106L148.26510416666665,115.66094627526292L148.90694444444443,115.83941258859628L149.54878472222222,116.01330525790927L150.190625,116.18270901295915L150.8324652777778,116.3477468423834L151.47430555555556,116.5083996253605L152.11614583333332,116.66480398458819L152.7579861111111,116.8167823440837L153.39982638888887,116.96459771143631L154.04166666666666,117.10829131082447L154.68350694444445,117.24791905909481L155.32534722222223,117.38361989565858L155.96718750000002,117.51531209493989L156.60902777777778,117.64313194786122L157.25086805555554,117.76718162438696L157.89270833333333,117.88757841273429L158.53454861111112,118.00432762543801L159.17638888888888,118.11748219990426L159.81822916666667,118.22702254644247L160.46006944444446,118.33302234799642L161.10190972222225,118.43563033066637L161.74375,118.53488205188668L162.38559027777777,118.63082663140563L163.02743055555555,118.72353094437976L163.66927083333334,118.81304038258227L164.3111111111111,118.8994441083532L164.9529513888889,118.98274923660622L165.59479166666668,119.06300553835801L166.23663194444447,119.14030912583102L166.8784722222222,119.21467896444565L167.5203125,119.28620883911825L168.16215277777778,119.35495384429584L168.80399305555557,119.4209254061827L169.44583333333333,119.48423358839645L170.08767361111111,119.5449280502609L170.7295138888889,119.60305183503031L171.3713541666667,119.65866986494393L172.01319444444442,119.7118114600783L172.6550347222222,119.76255316744422L173.296875,119.8109529233467L173.9387152777778,119.8570550839483L174.58055555555555,119.90092617808945L175.22239583333334,119.94262040593668L175.86423611111113,119.98218616823883L176.5060763888889,120.01967710704024L177.14791666666665,120.05516760929979L177.78975694444443,120.08871151152606L178.43159722222222,120.12037078328889L179.0734375,120.15019381663022L179.71527777777777,120.17823424581937L180.35711805555556,120.20455950408812L180.99895833333335,120.22921591574494L181.64079861111114,120.2522761089244L182.28263888888887,120.27378279767723L182.92447916666666,120.29380538617791L183.56631944444445,120.31239630052647L184.20815972222223,120.32961625079788L184.85,120.34552379282894L185.49184027777778,120.36017599289575L186.13368055555557,120.3736416123164L186.77552083333333,120.38597554233813L187.4173611111111,120.3972398260643L188.05920138888888,120.4074950780741L188.70104166666667,120.41679803223066L189.34288194444446,120.42521107457144L189.98472222222222,120.43280728278731L190.6265625,120.43962152307722L191.2684027777778,120.44571488896189L191.91024305555555,120.45115800139281L192.55208333333331,120.45601913496763" style="fill: none;" fill="none"></path></g><g><path stroke="rgb(238, 51, 119)" stroke-width="2px" d="M186.13368055555557,120.48603913417229Z" style="fill: none;" fill="none"></path></g></g></g></g><g opacity="0.2"><g><g><g><path stroke="rgb(255, 112, 67)" stroke-width="2px" d="M32.73385416666667,138.12125729139035L33.37569444444444,137.99002718925476L34.01753472222222,138.3321319451699L34.659375,138.72857337273086L35.30121527777778,139.2408134662188L35.94305555555555,139.79118377428787L36.584895833333334,140.35281825982608L37.22673611111111,140.6628590638821L37.86857638888889,141.1283787901585L38.510416666666664,141.73013987907996L39.152256944444446,142.34516964967435L39.79409722222222,141.89155927529703L40.4359375,140.36943860237415L41.077777777777776,138.7208962027843L41.71961805555555,139.51152297625174L42.36145833333333,139.61424367244427L43.003298611111106,140.44990280958322L43.64513888888889,141.36448016991983L44.28697916666666,142.23567259311676L44.92881944444444,142.84160905617935L45.57065972222222,143.50917793695743L46.2125,144.37903740543587L46.85434027777777,145.24265815890755L47.496180555555554,146.05720710754395L48.13802083333333,146.8311465863998L48.77986111111111,147.5903505247373L49.421701388888884,148.3405362230081L50.063541666666666,149.05704909104568L50.70538194444444,149.7395766858871L51.34722222222222,150.39896524181734L51.989062499999996,150.92259530149974L52.63090277777778,151.54583582969812L53.27274305555555,152.1121731904837L53.91458333333333,152.68348935017218L54.55642361111111,153.23137837419142L55.19826388888889,153.7612978701408L55.84010416666666,154.29094955783623L56.481944444444444,154.7845769776748L57.12378472222222,155.2613872564756L57.765625,155.72031727662454L58.407465277777774,156.12512568327097L59.049305555555556,156.4954030559613L59.69114583333333,156.73409730654495L60.33298611111111,157.08297436512433L60.974826388888886,157.47007293655324L61.61666666666667,157.87033874713458L62.25850694444444,158.19522667848148L62.900347222222216,158.53984315120258L63.5421875,158.7987975019675L64.18402777777777,159.131238843386L64.82586805555556,159.4200619298678L65.46770833333333,159.69846889835136L66.10954861111111,159.99757825640532L66.75138888888888,160.30498459820564L67.39322916666667,160.57936125535232L68.03506944444445,160.84231447027278L68.67690972222222,161.0758219647866L69.31875,161.2861021653964L69.96059027777778,161.26099818486435L70.60243055555556,161.4551317794965L71.24427083333333,161.5818385596459L71.8861111111111,161.81303113584335L72.5279513888889,162.022992806939L73.16979166666667,162.2513318050366L73.81163194444444,162.30277939370046L74.45347222222222,91.4445631137261L75.0953125,-23.603038622782762L78.94635416666667,-0.4479312163132676L79.58819444444444,3.573850833452674L80.23003472222223,8.153940054086535L80.871875,12.627052050370441L81.51371527777778,16.968970463826103L82.15555555555555,21.18894685231723L82.79739583333334,25.239246423427883L83.4392361111111,29.16778250840995L84.08107638888889,32.9827841245211L84.72291666666666,36.66216114851146L85.36475694444445,40.22204699883095L86.00659722222221,43.668990804598884L86.6484375,46.895252493711624L87.29027777777777,50.0703871525251L87.93211805555556,53.20797996337597L88.57395833333332,56.23549546645238L89.21579861111111,59.17277581875141L89.85763888888889,61.98846310835619L90.49947916666667,64.71578178955959L91.14131944444443,67.36989954801707L91.78315972222222,69.92298055612125L92.425,72.40079121406262L93.06684027777779,74.80809526260083L93.70868055555555,77.1642073576267L94.35052083333333,79.42735752692589L94.99236111111111,81.59790284817035L95.6342013888889,83.71445640233847L96.27604166666666,85.77547626311963L96.91788194444445,87.72521773668437L97.55972222222222,89.66351649394402L98.20156250000001,91.52988844651443L98.84340277777777,93.32467444126422L99.48524305555556,95.06744882693657L100.12708333333333,96.7545596727958L100.76892361111112,98.41163541720465L101.41076388888888,100.00770768752464L102.05260416666667,101.5444888335008L102.69444444444444,103.04965237470773L103.33628472222222,104.49172678360573L103.97812499999999,105.90245139598846L104.61996527777778,107.27291550086096L105.26180555555555,108.59724354743958L105.90364583333333,109.88520242159183L106.5454861111111,111.12950449264967L107.18732638888889,112.32654652228722L107.82916666666667,113.4979641712629L108.47100694444444,114.63173852975552L109.11284722222221,115.71018613760288L109.7546875,116.77520681344545L110.39652777777778,117.80741286277771L111.03836805555555,118.80921455988518L111.68020833333333,119.779386479121L112.32204861111111,120.71223160853752L112.96388888888889,121.6168716595723L113.60572916666666,122.50544321537018L114.24756944444444,123.20144846347662L114.88940972222223,124.01241243344086L115.53125,124.83353688625189L116.17309027777777,125.63981421177203L116.81493055555555,126.39986215187953L117.45677083333334,127.1187244286904L118.09861111111111,127.82546229545886L118.74045138888889,128.5293394831511L119.38229166666666,129.22372570863138L120.02413194444445,129.8842139014831L120.66597222222222,130.52195462355246L121.3078125,131.14591945134674L121.94965277777777,131.75618953888232L122.59149305555556,132.33646915967648L123.23333333333333,132.9144034293982L123.87517361111111,133.4693305354852L124.51701388888888,134.01766387774396L125.15885416666667,134.5589814552894L125.80069444444443,135.07735273471246L126.44253472222222,135.57766318779724L127.084375,136.0615480679732L127.72621527777778,136.5216345328551L128.36805555555554,136.9801831291272L129.00989583333333,137.42887151241302L129.65173611111112,137.85494227134265L130.29357638888888,138.2751009601813L130.93541666666667,138.68398735614923L131.57725694444443,134.65783922030377L132.21909722222222,135.00112882485757L132.8609375,135.40368114984955L133.50277777777777,135.81094446549048L134.14461805555555,136.19781783452402L134.78645833333334,136.59262400865555L135.42829861111113,136.96265791929687L136.0701388888889,137.32007238039603L136.71197916666665,137.67620055033612L137.35381944444444,138.0180821327063L137.99565972222223,138.35054579147925L138.6375,138.67511316446158L139.27934027777778,138.99311517752136L139.92118055555557,139.29837195231366L140.56302083333335,139.58860711867993L141.20486111111111,139.88039232675845L141.84670138888887,140.1571153494028L142.48854166666666,140.43177300233108L143.13038194444445,140.69285764602515L143.7722222222222,140.95012805095087L144.4140625,141.20165680921997L145.0559027777778,141.44152779304065L145.69774305555558,141.67417201170554L146.33958333333334,141.90386222417538L146.9814236111111,142.11954525342355L147.62326388888889,142.33454253123355L148.26510416666665,142.54129861868347L148.90694444444443,142.74380629337753L149.54878472222222,142.93031039604773L150.190625,143.1150514277128L150.8324652777778,143.2834277519813L151.47430555555556,143.4597165928437L152.11614583333332,143.6302150946397L152.7579861111111,143.79615071186652L153.39982638888887,143.95703043387485L154.04166666666666,144.1124545771342L154.68350694444445,144.2623135837225L155.32534722222223,144.40693206970508L155.96718750000002,144.54589817844905L156.60902777777778,144.67809198452878L157.25086805555554,144.8061651954284L157.89270833333333,144.93080762028694L158.53454861111112,145.05165000833L159.17638888888888,145.16777937687363L159.81822916666667,145.27736976055L160.46006944444446,145.38485013980133L161.10190972222225,145.48819977962054L161.74375,145.58742070885805L162.38559027777777,145.68145995415176L163.02743055555555,145.770875449364L163.66927083333334,145.85780763167602L164.3111111111111,145.9402296795295L164.9529513888889,146.01959222096664L165.59479166666668,146.09601292931117L166.23663194444447,146.16821565765602L166.8784722222222,146.23808723688126L167.5203125,146.3036698263425L168.16215277777778,146.3662071113403L168.80399305555557,146.42574981313484L169.44583333333333,146.4817420267142L170.08767361111111,146.53537671611858L170.7295138888889,146.58603508197345L171.3713541666667,146.6340153652888L172.01319444444442,146.67937843157696L172.6550347222222,146.72187473223758L173.296875,146.76175990242226L173.9387152777778,146.79928551958156L174.58055555555555,146.83421420821776L175.22239583333334,146.86705115208258L175.86423611111113,146.8973439175349L176.5060763888889,146.92531770697008L177.14791666666665,146.95132959806003L177.78975694444443,146.97545262941946L178.43159722222222,146.99741899279448L179.0734375,147.01763445826677L179.71527777777777,147.03607467963147L180.35711805555556,147.05276806079425L180.99895833333335,147.0677247460072L181.64079861111114,147.08118211076808L182.28263888888887,147.09313406852576L182.92447916666666,147.10376321581694L183.56631944444445,147.11312230275226L184.20815972222223,147.12120727163094L184.85,147.12810942072136L185.49184027777778,147.1340174331115L186.13368055555557,147.13894551075424L186.77552083333333,147.28571863587086L187.4173611111111,147.63086463854862L188.05920138888888,147.99807438942102L188.70104166666667,148.27693582039612L189.34288194444446,148.58072573634294L189.98472222222222,148.90237562243755L190.6265625,149.2448536868279L191.2684027777778,149.58754883821194L191.91024305555555,149.92477218004373L192.55208333333331,150.25514003634453L193.1939236111111,150.58607597075977L193.8357638888889,150.8959646110351L194.47760416666668,151.2030128607383L195.11944444444444,151.49640694719093L195.76128472222223,151.77192483269252L196.40312500000002,152.06872333013095L197.04496527777778,152.32999665691304L197.68680555555554,152.61728593248588L198.32864583333333,152.8887623479733L198.97048611111111,153.16343217400404L199.6123263888889,153.42004928909816L200.25416666666666,153.65600864933086L200.89600694444445,153.89703404903412L201.53784722222224,154.15500440735084L202.1796875,154.3959689415418L202.82152777777776,154.64592331189377L203.46336805555555,154.86915772236313L204.10520833333334,155.10391397430348L204.74704861111113,155.34005795992337L205.38888888888889,155.56828740009894L206.03072916666667,155.78440460333456L206.67256944444443,155.99220757759534L207.31440972222222,156.20097425580025L207.95624999999998,156.41224047770868L208.59809027777777,156.61677294511063L209.23993055555556,156.78614137722897L209.88177083333335,156.9852426120868L210.5236111111111,157.17704201432375L211.1654513888889,157.3611723620158L211.80729166666666,157.5598211632325L212.44913194444445,157.71832510141226L213.0909722222222,157.9003089253719L213.7328125,158.08084820784055L214.37465277777778,158.23119819622772L215.01649305555557,158.40394060657573L215.65833333333333,158.57276124908375L216.30017361111112,158.7397112915149L216.94201388888888,158.89294224748244L217.58385416666667,158.99053603869217L218.22569444444443,159.0276660300218L218.86753472222222,159.16299643883337L219.509375,159.30579707484978L220.1512152777778,159.45477353151028L220.79305555555555,159.6061135988969L221.43489583333334,159.74063449639542L222.0767361111111,159.8853219632919L222.7185763888889,160.01342154924686L223.36041666666665,160.127945082692L224.00225694444444,160.21689089903464L224.64409722222223,160.31563707727653L225.28593750000002,160.4414146439387L225.92777777777778,160.5654362405722L226.56961805555557,160.70084881782532L227.21145833333333,160.81478499907715L227.85329861111111,160.9353058143304L228.49513888888887,161.05994722476373L229.13697916666666,161.18528351646202L229.77881944444445,161.30707642092156L230.42065972222224,161.42167806510741L231.0625,161.52491307487855L231.70434027777776,161.63017896390878L232.34618055555555,161.73694417339104L232.98802083333334,161.8504208200253L233.6298611111111,161.9524588080553L234.27170138888889,162.06046161628686L234.91354166666667,162.14787159287013L235.55538194444446,162.23794545004L236.19722222222222,162.32864216428536L236.83906249999998,162.4152071246734L237.48090277777777,162.48794344067574L238.12274305555556,162.55128212158496L238.76458333333332,162.63818691441645L239.4064236111111,162.72814614153825L240.0482638888889,162.81464617871322L240.69010416666669,162.88686919556213L241.33194444444445,162.95780896452757L241.9737847222222,163.04099994668593L242.615625,163.12657279922414L243.25746527777778,163.21111499575468L243.89930555555554,163.27926205213254L244.54114583333333,163.35692137365157L245.18298611111112,163.43433114657034L245.8248263888889,163.51063519601638L246.46666666666667,163.58247476013807L247.10850694444443,163.65613420307636L247.75034722222222,163.72704861141167L248.3921875,163.79014991682308L249.03402777777777,163.85286675508206L249.67586805555555,163.91708392821826L250.31770833333334,163.98580210598615L250.95954861111113,164.04983871143597L251.60138888888886,164.11372923965638L252.24322916666665,164.17224229986851L252.88506944444444,164.23340605313962L253.52690972222223,164.29346408293796L254.16875,164.3558218146746L254.81059027777778,164.41396055198632L255.45243055555557,164.47316139248701L256.0942708333333,164.53405530865376L256.7361111111111,164.58845183138664L257.3779513888889,164.62056346123035L258.01979166666666,164.67556356695982L258.6616319444444,164.73165012208315L259.30347222222224,164.7765009036431L259.9453125,164.82543576107574L260.58715277777776,164.87827615554517L261.2289930555556,164.93036486093814L261.87083333333334,164.98191794982324L262.5126736111111,165.0335166878425L263.15451388888886,165.08133466312518L263.7963541666667,165.13222431792664L264.43819444444443,165.17653846855347L265.08003472222225,165.2220851458036L265.721875,165.26670565284215L266.36371527777777,165.3122076953833L267.00555555555553,165.35275427080117" style="fill: none;" fill="none"></path></g><g><path stroke="rgb(0, 119, 187)" stroke-width="2px" d="M186.13368055555557,147.1389881166128L263.15451388888886,165.08176376498662" style="fill: none;" fill="none"></path></g><g><path stroke="rgb(204, 51, 17)" stroke-width="2px" d="M35.30121527777778,-1.4560750997983523L35.94305555555555,1.376751918059144L36.584895833333334,4.370052887843207L37.22673611111111,7.481140796954829L37.86857638888889,10.683673051687391L38.510416666666664,14.024783904735864L39.152256944444446,17.452193938768836L39.79409722222222,20.95928098605231L40.4359375,24.52171507248512L41.077777777777776,28.193593465364906L41.71961805555555,31.921419437115016L42.36145833333333,35.400167501889754L43.003298611111106,39.198548775452835L43.64513888888889,43.02621041811431L44.28697916666666,46.888816980215225L44.92881944444444,50.745491183721114L45.57065972222222,54.589286244832564L46.2125,58.30871277589065L46.85434027777777,61.904273931796745L47.496180555555554,65.29915743607742L48.13802083333333,68.44951577369983L48.77986111111111,71.6148551427401L49.421701388888884,74.78587529292473L50.063541666666666,77.85361884190486L50.70538194444444,80.81724178791046L51.34722222222222,83.65467023849487L51.989062499999996,86.3982927615826L52.63090277777778,89.06811382220343L53.27274305555555,91.58440771469704L53.91458333333333,94.07184323897728L54.55642361111111,96.39149283445799L55.19826388888889,98.59807053896097L55.84010416666666,100.85365715393654L56.481944444444444,102.62120786079994L57.12378472222222,104.66017817533934L57.765625,105.14526007725642L58.407465277777774,106.64960396289825L59.049305555555556,93.7037691978308L59.69114583333333,94.65694746604332L60.33298611111111,96.9746574805333L60.974826388888886,98.91215281303113L61.61666666666667,101.07657912144295L62.25850694444444,103.23497568644011L62.900347222222216,105.29330934928015L63.5421875,107.3228495671199L64.18402777777777,109.23564161704138L64.82586805555556,108.78329724531906L65.46770833333333,110.54815363883972L66.10954861111111,112.39508514679396L66.75138888888888,114.1874081171476L67.39322916666667,115.92194942786143L68.03506944444445,117.34313073525063L68.67690972222222,118.92250556670702L69.31875,120.46139671710822L69.96059027777778,121.96467342743507L70.60243055555556,123.42355077541792L71.24427083333333,124.18230430896466L71.8861111111111,125.41102075118286L72.5279513888889,126.72151609567496L73.16979166666667,127.91014651151804L73.81163194444444,129.13211499727691L74.45347222222222,130.32612186670303L75.0953125,131.48210402176932L75.73715277777778,132.62208666251257L76.37899305555555,133.70138638753158L77.02083333333333,134.76038543536114L77.66267361111112,135.76231697889475L78.30451388888889,136.74726704450754L78.94635416666667,137.70290427941543L79.58819444444444,138.61320482309048L80.23003472222223,139.49022816236203L80.871875,140.34992917684409L81.51371527777778,141.17574433180002L82.15555555555555,141.97233998316986L82.79739583333334,142.74588383619601L83.4392361111111,143.47271543741226L84.08107638888889,144.20324360407318L84.72291666666666,144.9135664495138L85.36475694444445,145.58911682779973L86.00659722222221,146.24952995318634L86.6484375,146.90192506175774L87.29027777777777,147.48429236962247L87.93211805555556,148.07438756869388L88.57395833333332,148.65614216373515L89.21579861111111,149.20669303949063L89.85763888888889,149.74900475373636L90.49947916666667,150.2709691272332L91.14131944444443,150.78094299481464L91.78315972222222,151.2834953276011L92.425,151.7595184124433L93.06684027777779,152.20312655430573L93.70868055555555,152.5991743848874L94.35052083333333,152.97291500522542L94.99236111111111,153.2927450125034L95.6342013888889,153.68609041434067L96.27604166666666,154.08888011483046L96.91788194444445,154.48159251534022L97.55972222222222,154.86674339037674L98.20156250000001,155.1887280367888L98.84340277777777,155.54724822136072L99.48524305555556,155.87798329958548L100.12708333333333,156.21137414299525L100.76892361111112,156.54416647553444L101.41076388888888,156.837173051559L102.05260416666667,157.1272012751836L102.69444444444444,157.39105935738635L103.33628472222222,157.67938740436847L103.97812499999999,157.92701062560081L104.61996527777778,158.15140350965353L105.26180555555555,158.3701643049717L105.90364583333333,158.6111755027221L106.5454861111111,158.84714500720685L107.18732638888889,159.0913191827444L107.82916666666667,159.31304412850966L108.47100694444444,159.51930111875902L109.11284722222221,159.7499388043697L109.7546875,159.96111778571057L110.39652777777778,160.15477662934708L111.03836805555555,160.3522842022089L111.68020833333333,160.53420614623107L112.32204861111111,160.71890457203756L112.96388888888889,160.90616645033543L113.60572916666666,161.07445553403633L114.24756944444444,161.25323174549985L114.88940972222223,161.41219217502154L115.53125,161.53769584687856L116.17309027777777,161.6739301085472L116.81493055555555,161.8172176686617L117.45677083333334,161.96649135190708L118.09861111111111,162.12513528076502L118.74045138888889,162.25848350272727L119.38229166666666,162.38254973406976L120.02413194444445,162.5139827212462L120.66597222222222,162.63655876196347L121.3078125,162.6859237356828L121.94965277777777,162.8159071092422L122.59149305555556,162.93280845536637L123.23333333333333,163.06116266204762L123.87517361111111,163.17118316201064L124.51701388888888,163.27881367619221L125.15885416666667,163.37021440152938L125.80069444444443,163.47970638596095L126.44253472222222,163.57529060084087L127.084375,163.67980987292069L127.72621527777778,163.76408324677212L128.36805555555554,163.86004787110366L129.00989583333333,163.95150134655145L129.65173611111112,164.05482258246494L130.29357638888888,164.12085354786652L130.93541666666667,164.20062591708623L131.57725694444443,164.28730855079797L132.21909722222222,164.37246548900237L132.8609375,164.445456425731L133.50277777777777,164.51962105242106L134.14461805555555,164.60022423588313L134.78645833333334,164.6738136834823L135.42829861111113,164.75534202273076L136.0701388888889,164.8221571388153L136.71197916666665,164.8771440570171L137.35381944444444,164.94467941499673L137.99565972222223,165.01590017974377L138.6375,165.08501296891617L139.27934027777778,165.15498700508704L139.92118055555557,165.21078546345234L140.56302083333335,165.22023179095524L141.20486111111111,165.27936770824286L141.84670138888887,165.33821857204805L142.48854166666666,165.40032269748357L143.13038194444445,165.45182202183284L143.7722222222222,165.50986337432494L144.4140625,165.56048319202202L145.0559027777778,165.6027066123027L145.69774305555558,165.63940040079447L146.33958333333334,165.6903610653602L146.9814236111111,165.73789804486128L147.62326388888889,165.78263926849914L148.26510416666665,165.83105271137677L148.90694444444443,165.86154633301956L149.54878472222222,165.91062929653205L150.190625,165.95590816552823L150.8324652777778,165.9995771417251L151.47430555555556,166.04290932875412L152.11614583333332,166.08428164628836L152.7579861111111,166.12526848224493L153.39982638888887,166.1647600554503L154.04166666666666,166.2006270874005L154.68350694444445,166.23570895424257L155.32534722222223,166.2716510536579L155.96718750000002,166.30621759249615L156.60902777777778,166.34054269813575L157.25086805555554,166.37447826449687L157.89270833333333,166.40508651618774L158.53454861111112,166.43428674569498L159.17638888888888,166.4638836154571L159.81822916666667,166.4928200944112L160.46006944444446,166.51932195287483L161.10190972222225,166.54742660316137L161.74375,166.57394976455433L162.38559027777777,166.6001280213778L163.02743055555555,166.62463450546448L163.66927083333334,166.64785672724247L164.3111111111111,166.6696891864905L164.9529513888889,166.69101341871115L165.59479166666668,166.71283269043153L166.23663194444447,166.73278034764988L166.8784722222222,166.75247744184273L167.5203125,166.77121083209147L168.16215277777778,166.78876951795357L168.80399305555557,166.80497597501827L169.44583333333333,166.82101403749905L170.08767361111111,166.83689486407317L170.7295138888889,166.85099131671282L171.3713541666667,166.8648361919018L172.01319444444442,166.8777082333198L172.6550347222222,166.89029927895618L173.296875,166.90233746285622L173.9387152777778,166.91361077015216L174.58055555555555,166.92402485930003L175.22239583333334,166.9336456679381L175.86423611111113,166.94297736539292L176.5060763888889,166.95152288331437L177.14791666666665,166.9594161258294L177.78975694444443,166.96686606453014L178.43159722222222,166.9737347375888L179.0734375,166.9800495344859L179.71527777777777,166.985858133206L180.35711805555556,166.99109459611086L180.99895833333335,166.99581877428753L181.64079861111114,166.99999820612945L182.28263888888887,167.0038611373076L182.92447916666666,167.00718540870227L183.56631944444445,167.0102043381104L184.20815972222223,167.01275967520016L184.85,167.0150299588075L185.49184027777778,167.01688432808106L186.13368055555557,167.01846784582506L186.77552083333333,167.01981804577204L187.4173611111111,167.02089536533904L188.05920138888888,167.02173023728224L188.70104166666667,167.02235613763332L189.34288194444446,167.02279842702242L189.98472222222222,167.02310478343415L190.6265625,167.02329143767173L191.2684027777778,167.0233949090426L191.91024305555555,167.02342939949952L192.55208333333331,167.02343345720035" style="fill: none;" fill="none"></path></g><g><path stroke="rgb(0, 153, 136)" stroke-width="2px" d="M186.13368055555557,167.0184840766283Z" style="fill: none;" fill="none"></path></g><g><path stroke="rgb(51, 187, 238)" stroke-width="2px" d="M32.73385416666667,140.29207042088876L33.37569444444444,140.25777879128088L34.01753472222222,140.33383633540225L34.659375,140.67177383257794L35.30121527777778,141.01987181260037L35.94305555555555,141.3589292352016L36.584895833333334,130.77290313060467L37.22673611111111,124.9703016923024L37.86857638888889,125.02878533418362L38.510416666666664,125.061843422743L39.152256944444446,125.60016235938438L39.79409722222222,-35.771336757219764L54.55642361111111,-1.770319681901183L55.19826388888889,0.2993349662193976L55.84010416666666,2.3400987845200745L56.481944444444444,4.350348692673908L57.12378472222222,6.117363783029407L57.765625,8.08370936833896L58.407465277777774,10.021066739008978L59.049305555555556,11.92922489459698L59.69114583333333,13.81715946931106L60.33298611111111,15.651873240104097L60.974826388888886,17.483925159160915L61.61666666666667,19.29187433536236L62.25850694444444,21.00172453660232L62.900347222222216,22.53659044779265L63.5421875,24.245401877623333L64.18402777777777,25.926637172698975L64.82586805555556,27.60678500395556L65.46770833333333,29.224054703345672L66.10954861111111,30.86127205995414L66.75138888888888,32.47454898173992L67.39322916666667,34.06976101948665L68.03506944444445,35.63280360515301L68.67690972222222,37.17628807287951L69.31875,38.696513799520645L69.96059027777778,40.200232799236595L70.60243055555556,41.679435170613814L71.24427083333333,43.1342669908817L71.8861111111111,44.569573154816275L72.5279513888889,45.97852860964263L73.16979166666667,47.365872749915496L73.81163194444444,48.72893560849704L74.45347222222222,50.08084790523235L75.0953125,51.40765926471123L75.73715277777778,52.713013502267685L76.37899305555555,54.002047667136566L77.02083333333333,55.27171848370479L77.66267361111112,56.5207274877108L78.30451388888889,57.74940741062164L78.94635416666667,58.95599721028255L79.58819444444444,60.14621012944442L80.23003472222223,61.31058360980107L80.871875,62.46392825933604L81.51371527777778,63.600522719896766L82.15555555555555,64.71777006296011L82.79739583333334,65.81971987394186L83.4392361111111,66.90010706277995L84.08107638888889,67.96346813898819L84.72291666666666,69.01261103153229L85.36475694444445,70.0449712734956L86.00659722222221,71.05633697142967L86.6484375,72.05574868275569L87.29027777777777,73.0434985619325L87.93211805555556,74.01377598138957L88.57395833333332,74.96006427361415L89.21579861111111,75.89456088726337L89.85763888888889,76.81152011797978L90.49947916666667,77.70908353878902L91.14131944444443,78.59300496945015L91.78315972222222,79.46760991903453L92.425,80.32320048258855L93.06684027777779,81.16770540750944L93.70868055555555,81.9987712273231L94.35052083333333,82.81561886347258L94.99236111111111,83.6215188228167L95.6342013888889,84.40614019907439L96.27604166666666,85.18486167834355L96.91788194444445,85.95132890114418L97.55972222222222,86.70193051374876L98.20156250000001,87.44306956804716L98.84340277777777,88.17072894023015L99.48524305555556,88.8769961137038L100.12708333333333,89.57498557750995L100.76892361111112,90.262644135035L101.41076388888888,90.93192942325885L102.05260416666667,91.59268542436453L102.69444444444444,92.25172907572525L103.33628472222222,92.88299370729007L103.97812499999999,93.47510152596695L104.61996527777778,94.09426609369424L105.26180555555555,94.70727918698238L105.90364583333333,95.30594425018018L106.5454861111111,95.88841908711655L107.18732638888889,96.46744487835811L107.82916666666667,97.0257926262342L108.47100694444444,97.57253534977252L109.11284722222221,98.1180039552542L109.7546875,98.65656635394463L110.39652777777778,99.18637223427112L111.03836805555555,99.70460555186638L111.68020833333333,100.21120138351733L112.32204861111111,100.70960877491878L112.96388888888889,101.1947231384424L113.60572916666666,101.66286008174603L114.24756944444444,102.13596365085014L114.88940972222223,102.59971016186935L115.53125,103.05636381185973L116.17309027777777,103.49675419697395L116.81493055555555,103.9341175372784L117.45677083333334,104.36042770055624L118.09861111111111,104.77801380707668L118.74045138888889,105.19137178934538L119.38229166666666,105.59430959591499L120.02413194444445,105.99498320542848L120.66597222222222,106.38561806311974L121.3078125,106.77023940819961L121.94965277777777,107.14660738981688L122.59149305555556,107.5125470803334L123.23333333333333,107.87298452854156L123.87517361111111,108.22640215433562L124.51701388888888,108.572345495224L125.15885416666667,108.90937000971573L125.80069444444443,109.2401010302397L126.44253472222222,109.56365803571848L127.084375,109.8816275871717L127.72621527777778,110.19424503124678L128.36805555555554,110.4988322854042L129.00989583333333,110.79829872113007L129.65173611111112,111.09143108587998L130.29357638888888,111.37568925894224L130.93541666666667,111.6557761155642L131.57725694444443,111.92875793805489L132.21909722222222,112.19659053820831L132.8609375,112.4571192768904L133.50277777777777,112.71416650827115L134.14461805555555,112.96502168820456L134.78645833333334,113.21075604970639L135.42829861111113,113.45000620530203L136.0701388888889,113.68372977238434L136.71197916666665,113.91390690895227L137.35381944444444,114.13767693592952L137.99565972222223,114.35652902951607L138.6375,114.5696354187452L139.27934027777778,114.77757635483376L139.92118055555557,114.98087933888802L140.56302083333335,115.1789397734862L141.20486111111111,115.37081221433786L141.84670138888887,115.55917880168327L142.48854166666666,115.74247326300696L143.13038194444445,115.92094717575954L143.7722222222222,116.09622362026802L144.4140625,116.26573407191498L145.0559027777778,116.43201053601044L145.69774305555558,116.59125906229019L146.33958333333334,116.74712752378905L146.9814236111111,116.89519302661603L147.62326388888889,117.0439808001885L148.26510416666665,117.18862971892723L148.90694444444443,117.32885574377501L149.54878472222222,117.46457772071545L150.190625,117.59651792049408L150.8324652777778,117.7251186325L151.47430555555556,117.84917471959041L152.11614583333332,117.97012260785469L152.7579861111111,118.08516248372885L153.39982638888887,118.19823437470657L154.04166666666666,118.30752854622328L154.68350694444445,118.41322353711494L155.32534722222223,118.51615117604916L155.96718750000002,118.61438811283844L156.60902777777778,118.70989015927681L157.25086805555554,118.80247471882747L157.89270833333333,118.89238525353944L158.53454861111112,118.9786925499256L159.17638888888888,119.0618470127766L159.81822916666667,119.14122375616661L160.46006944444446,119.21767489726727L161.10190972222225,119.29197545693472L161.74375,119.36321651018584L162.38559027777777,119.43156036505333L163.02743055555555,119.49722207968051L163.66927083333334,119.56006774994043L164.3111111111111,119.62055183832462L164.9529513888889,119.67799670879657L165.59479166666668,119.73280813143805L166.23663194444447,119.78546897264627L166.8784722222222,119.83535434649542L167.5203125,119.88318246603012L168.16215277777778,119.92868552299646L168.80399305555557,119.97151049742332L169.44583333333333,120.01259066049869L170.08767361111111,120.05147154973105L170.7295138888889,120.0881409920179L171.3713541666667,120.12284650710913L172.01319444444442,120.1553202867508L172.6550347222222,120.1860330242377L173.296875,120.21488733475024L173.9387152777778,120.24181423737453L174.58055555555555,120.26706530956122L175.22239583333334,120.29059185890051L175.86423611111113,120.31239388539241L176.5060763888889,120.33256877385652L177.14791666666665,120.35136404404274L177.78975694444443,120.36866202262732L178.43159722222222,120.38459255603644L179.0734375,120.39909072105701L179.71527777777777,120.41225390250867L180.35711805555556,120.42426469692818L180.99895833333335,120.43499325788939L181.64079861111114,120.44473173985115L182.28263888888887,120.45327320007178L182.92447916666666,120.46090979301012L183.56631944444445,120.4675522492482L184.20815972222223,120.47333041521219L184.85,120.47828486791023L185.49184027777778,120.48246024205135L186.13368055555557,120.48602290336902L186.77552083333333,120.48891198635101L187.4173611111111,120.49124922202185L188.05920138888888,120.49308330279129L188.70104166666667,120.49443857486432L189.34288194444446,120.49542459616295L189.98472222222222,120.49620367471988L190.6265625,120.49649177147792L191.2684027777778,120.49656886779344L191.91024305555555,120.49658509859673L192.55208333333331,120.49658915629753" style="fill: none;" fill="none"></path></g><g><path stroke="rgb(238, 51, 119)" stroke-width="2px" d="M186.13368055555557,120.48603913417229Z" style="fill: none;" fill="none"></path></g></g></g></g></g></g><g transform="translate(41, 177)" clip-path="url(#clip_1)"><clipPath id="clip_1"><rect width="288" height="23"></rect></clipPath><g><g><line x1="0" y1="0" x2="0" y2="5" style="visibility: inherit;" fill="rgb(0, 0, 0)" stroke="rgb(204, 204, 204)" stroke-width="1px"></line><line x1="32.092013888888886" y1="0" x2="32.092013888888886" y2="5" style="visibility: inherit;" fill="rgb(0, 0, 0)" stroke="rgb(204, 204, 204)" stroke-width="1px"></line><line x1="64.18402777777777" y1="0" x2="64.18402777777777" y2="5" style="visibility: inherit;" fill="rgb(0, 0, 0)" stroke="rgb(204, 204, 204)" stroke-width="1px"></line><line x1="96.27604166666666" y1="0" x2="96.27604166666666" y2="5" style="visibility: inherit;" fill="rgb(0, 0, 0)" stroke="rgb(204, 204, 204)" stroke-width="1px"></line><line x1="128.36805555555554" y1="0" x2="128.36805555555554" y2="5" style="visibility: inherit;" fill="rgb(0, 0, 0)" stroke="rgb(204, 204, 204)" stroke-width="1px"></line><line x1="160.46006944444446" y1="0" x2="160.46006944444446" y2="5" style="visibility: inherit;" fill="rgb(0, 0, 0)" stroke="rgb(204, 204, 204)" stroke-width="1px"></line><line x1="192.55208333333331" y1="0" x2="192.55208333333331" y2="5" style="visibility: inherit;" fill="rgb(0, 0, 0)" stroke="rgb(204, 204, 204)" stroke-width="1px"></line><line x1="224.64409722222223" y1="0" x2="224.64409722222223" y2="5" style="visibility: inherit;" fill="rgb(0, 0, 0)" stroke="rgb(204, 204, 204)" stroke-width="1px"></line><line x1="256.7361111111111" y1="0" x2="256.7361111111111" y2="5" style="visibility: inherit;" fill="rgb(0, 0, 0)" stroke="rgb(204, 204, 204)" stroke-width="1px"></line><line x1="288.828125" y1="0" x2="288.828125" y2="5" style="visibility: inherit;" fill="rgb(0, 0, 0)" stroke="rgb(204, 204, 204)" stroke-width="1px"></line></g><g transform="translate(0, 8)"><text x="0" y="0" dx="0em" dy="0.95em" style="text-anchor: middle; visibility: hidden; font-family: Roboto, sans-serif; font-size: 12px; font-weight: 200;" fill="rgb(33, 33, 33)" stroke="none" stroke-width="1px">-5k</text><text x="32.092013888888886" y="0" dx="0em" dy="0.95em" style="text-anchor: middle; visibility: inherit; font-family: Roboto, sans-serif; font-size: 12px; font-weight: 200;" fill="rgb(33, 33, 33)" stroke="none" stroke-width="1px">0</text><text x="64.18402777777777" y="0" dx="0em" dy="0.95em" style="text-anchor: middle; visibility: inherit; font-family: Roboto, sans-serif; font-size: 12px; font-weight: 200;" fill="rgb(33, 33, 33)" stroke="none" stroke-width="1px">5k</text><text x="96.27604166666666" y="0" dx="0em" dy="0.95em" style="text-anchor: middle; visibility: inherit; font-family: Roboto, sans-serif; font-size: 12px; font-weight: 200;" fill="rgb(33, 33, 33)" stroke="none" stroke-width="1px">10k</text><text x="128.36805555555554" y="0" dx="0em" dy="0.95em" style="text-anchor: middle; visibility: inherit; font-family: Roboto, sans-serif; font-size: 12px; font-weight: 200;" fill="rgb(33, 33, 33)" stroke="none" stroke-width="1px">15k</text><text x="160.46006944444446" y="0" dx="0em" dy="0.95em" style="text-anchor: middle; visibility: inherit; font-family: Roboto, sans-serif; font-size: 12px; font-weight: 200;" fill="rgb(33, 33, 33)" stroke="none" stroke-width="1px">20k</text><text x="192.55208333333331" y="0" dx="0em" dy="0.95em" style="text-anchor: middle; visibility: inherit; font-family: Roboto, sans-serif; font-size: 12px; font-weight: 200;" fill="rgb(33, 33, 33)" stroke="none" stroke-width="1px">25k</text><text x="224.64409722222223" y="0" dx="0em" dy="0.95em" style="text-anchor: middle; visibility: inherit; font-family: Roboto, sans-serif; font-size: 12px; font-weight: 200;" fill="rgb(33, 33, 33)" stroke="none" stroke-width="1px">30k</text><text x="256.7361111111111" y="0" dx="0em" dy="0.95em" style="text-anchor: middle; visibility: inherit; font-family: Roboto, sans-serif; font-size: 12px; font-weight: 200;" fill="rgb(33, 33, 33)" stroke="none" stroke-width="1px">35k</text><text x="288.828125" y="0" dx="0em" dy="0.95em" style="text-anchor: middle; visibility: hidden; font-family: Roboto, sans-serif; font-size: 12px; font-weight: 200;" fill="rgb(33, 33, 33)" stroke="none" stroke-width="1px">40k</text></g><line x1="0" y1="0" x2="288.828125" y2="0" fill="rgb(0, 0, 0)" stroke="rgb(204, 204, 204)" stroke-width="1px"></line></g></g></g></g></svg>