<svg viewBox="0 0 330 200" xmlns="http://www.w3.org/2000/svg"><g><g><g><g><g><line x1="51.5625" y1="177" x2="46.5625" y2="177" style="visibility: inherit;" fill="rgb(0, 0, 0)" stroke="rgb(204, 204, 204)" stroke-width="1px"></line><line x1="51.5625" y1="162.25" x2="46.5625" y2="162.25" style="visibility: inherit;" fill="rgb(0, 0, 0)" stroke="rgb(204, 204, 204)" stroke-width="1px"></line><line x1="51.5625" y1="147.5" x2="46.5625" y2="147.5" style="visibility: inherit;" fill="rgb(0, 0, 0)" stroke="rgb(204, 204, 204)" stroke-width="1px"></line><line x1="51.5625" y1="132.75000000000003" x2="46.5625" y2="132.75000000000003" style="visibility: inherit;" fill="rgb(0, 0, 0)" stroke="rgb(204, 204, 204)" stroke-width="1px"></line><line x1="51.5625" y1="118.00000000000001" x2="46.5625" y2="118.00000000000001" style="visibility: inherit;" fill="rgb(0, 0, 0)" stroke="rgb(204, 204, 204)" stroke-width="1px"></line><line x1="51.5625" y1="103.25" x2="46.5625" y2="103.25" style="visibility: inherit;" fill="rgb(0, 0, 0)" stroke="rgb(204, 204, 204)" stroke-width="1px"></line><line x1="51.5625" y1="88.50000000000001" x2="46.5625" y2="88.50000000000001" style="visibility: inherit;" fill="rgb(0, 0, 0)" stroke="rgb(204, 204, 204)" stroke-width="1px"></line><line x1="51.5625" y1="73.75000000000001" x2="46.5625" y2="73.75000000000001" style="visibility: inherit;" fill="rgb(0, 0, 0)" stroke="rgb(204, 204, 204)" stroke-width="1px"></line><line x1="51.5625" y1="59.00000000000003" x2="46.5625" y2="59.00000000000003" style="visibility: inherit;" fill="rgb(0, 0, 0)" stroke="rgb(204, 204, 204)" stroke-width="1px"></line><line x1="51.5625" y1="44.25000000000002" x2="46.5625" y2="44.25000000000002" style="visibility: inherit;" fill="rgb(0, 0, 0)" stroke="rgb(204, 204, 204)" stroke-width="1px"></line><line x1="51.5625" y1="29.500000000000032" x2="46.5625" y2="29.500000000000032" style="visibility: inherit;" fill="rgb(0, 0, 0)" stroke="rgb(204, 204, 204)" stroke-width="1px"></line><line x1="51.5625" y1="14.750000000000007" x2="46.5625" y2="14.750000000000007" style="visibility: inherit;" fill="rgb(0, 0, 0)" stroke="rgb(204, 204, 204)" stroke-width="1px"></line><line x1="51.5625" y1="0" x2="46.5625" y2="0" style="visibility: inherit;" fill="rgb(0, 0, 0)" stroke="rgb(204, 204, 204)" stroke-width="1px"></line></g><g transform="translate(41.5625, 0)"><text x="0" y="177" dx="0em" dy="0.3em" style="text-anchor: end; visibility: hidden; font-family: Roboto, sans-serif; font-size: 12px; font-weight: 200;" fill="rgb(33, 33, 33)" stroke="none" stroke-width="1px">0.2</text><text x="0" y="162.25" dx="0em" dy="0.3em" style="text-anchor: end; visibility: inherit; font-family: Roboto, sans-serif; font-size: 12px; font-weight: 200;" fill="rgb(33, 33, 33)" stroke="none" stroke-width="1px">0.25</text><text x="0" y="147.5" dx="0em" dy="0.3em" style="text-anchor: end; visibility: hidden; font-family: Roboto, sans-serif; font-size: 12px; font-weight: 200;" fill="rgb(33, 33, 33)" stroke="none" stroke-width="1px">0.3</text><text x="0" y="132.75000000000003" dx="0em" dy="0.3em" style="text-anchor: end; visibility: inherit; font-family: Roboto, sans-serif; font-size: 12px; font-weight: 200;" fill="rgb(33, 33, 33)" stroke="none" stroke-width="1px">0.35</text><text x="0" y="118.00000000000001" dx="0em" dy="0.3em" style="text-anchor: end; visibility: hidden; font-family: Roboto, sans-serif; font-size: 12px; font-weight: 200;" fill="rgb(33, 33, 33)" stroke="none" stroke-width="1px">0.4</text><text x="0" y="103.25" dx="0em" dy="0.3em" style="text-anchor: end; visibility: inherit; font-family: Roboto, sans-serif; font-size: 12px; font-weight: 200;" fill="rgb(33, 33, 33)" stroke="none" stroke-width="1px">0.45</text><text x="0" y="88.50000000000001" dx="0em" dy="0.3em" style="text-anchor: end; visibility: hidden; font-family: Roboto, sans-serif; font-size: 12px; font-weight: 200;" fill="rgb(33, 33, 33)" stroke="none" stroke-width="1px">0.5</text><text x="0" y="73.75000000000001" dx="0em" dy="0.3em" style="text-anchor: end; visibility: inherit; font-family: Roboto, sans-serif; font-size: 12px; font-weight: 200;" fill="rgb(33, 33, 33)" stroke="none" stroke-width="1px">0.55</text><text x="0" y="59.00000000000003" dx="0em" dy="0.3em" style="text-anchor: end; visibility: hidden; font-family: Roboto, sans-serif; font-size: 12px; font-weight: 200;" fill="rgb(33, 33, 33)" stroke="none" stroke-width="1px">0.6</text><text x="0" y="44.25000000000002" dx="0em" dy="0.3em" style="text-anchor: end; visibility: inherit; font-family: Roboto, sans-serif; font-size: 12px; font-weight: 200;" fill="rgb(33, 33, 33)" stroke="none" stroke-width="1px">0.65</text><text x="0" y="29.500000000000032" dx="0em" dy="0.3em" style="text-anchor: end; visibility: hidden; font-family: Roboto, sans-serif; font-size: 12px; font-weight: 200;" fill="rgb(33, 33, 33)" stroke="none" stroke-width="1px">0.7</text><text x="0" y="14.750000000000007" dx="0em" dy="0.3em" style="text-anchor: end; visibility: inherit; font-family: Roboto, sans-serif; font-size: 12px; font-weight: 200;" fill="rgb(33, 33, 33)" stroke="none" stroke-width="1px">0.75</text><text x="0" y="0" dx="0em" dy="0.3em" style="text-anchor: end; visibility: hidden; font-family: Roboto, sans-serif; font-size: 12px; font-weight: 200;" fill="rgb(33, 33, 33)" stroke="none" stroke-width="1px">0.8</text></g><line x1="51.5625" y1="0" x2="51.5625" y2="177" fill="rgb(0, 0, 0)" stroke="rgb(204, 204, 204)" stroke-width="1px"></line></g></g><g transform="translate(51, 0)" clip-path="url(#clip_0)"><clipPath id="clip_0"><rect width="278" height="177"></rect></clipPath><g><g><g><line x1="0" y1="0" x2="0" y2="177" fill="rgb(0, 0, 0)" stroke="rgb(66, 66, 66)" stroke-width="1px" opacity="0.25"></line><line x1="30.9375" y1="0" x2="30.9375" y2="177" fill="rgb(0, 0, 0)" stroke="rgb(66, 66, 66)" stroke-width="1px" opacity="0.25"></line><line x1="61.875" y1="0" x2="61.875" y2="177" fill="rgb(0, 0, 0)" stroke="rgb(66, 66, 66)" stroke-width="1px" opacity="0.25"></line><line x1="92.8125" y1="0" x2="92.8125" y2="177" fill="rgb(0, 0, 0)" stroke="rgb(66, 66, 66)" stroke-width="1px" opacity="0.25"></line><line x1="123.75" y1="0" x2="123.75" y2="177" fill="rgb(0, 0, 0)" stroke="rgb(66, 66, 66)" stroke-width="1px" opacity="0.25"></line><line x1="154.6875" y1="0" x2="154.6875" y2="177" fill="rgb(0, 0, 0)" stroke="rgb(66, 66, 66)" stroke-width="1px" opacity="0.25"></line><line x1="185.625" y1="0" x2="185.625" y2="177" fill="rgb(0, 0, 0)" stroke="rgb(66, 66, 66)" stroke-width="1px" opacity="0.25"></line><line x1="216.5625" y1="0" x2="216.5625" y2="177" fill="rgb(0, 0, 0)" stroke="rgb(66, 66, 66)" stroke-width="1px" opacity="0.25"></line><line x1="247.5" y1="0" x2="247.5" y2="177" fill="rgb(0, 0, 0)" stroke="rgb(66, 66, 66)" stroke-width="1px" opacity="0.25"></line><line x1="278.4375" y1="0" x2="278.4375" y2="177" fill="rgb(0, 0, 0)" stroke="rgb(66, 66, 66)" stroke-width="1px" opacity="0.25"></line></g><g><line x1="0" y1="177" x2="278.4375" y2="177" fill="rgb(0, 0, 0)" stroke="rgb(66, 66, 66)" stroke-width="1px" opacity="0.25"></line><line x1="0" y1="162.25" x2="278.4375" y2="162.25" fill="rgb(0, 0, 0)" stroke="rgb(66, 66, 66)" stroke-width="1px" opacity="0.25"></line><line x1="0" y1="147.5" x2="278.4375" y2="147.5" fill="rgb(0, 0, 0)" stroke="rgb(66, 66, 66)" stroke-width="1px" opacity="0.25"></line><line x1="0" y1="132.75000000000003" x2="278.4375" y2="132.75000000000003" fill="rgb(0, 0, 0)" stroke="rgb(66, 66, 66)" stroke-width="1px" opacity="0.25"></line><line x1="0" y1="118.00000000000001" x2="278.4375" y2="118.00000000000001" fill="rgb(0, 0, 0)" stroke="rgb(66, 66, 66)" stroke-width="1px" opacity="0.25"></line><line x1="0" y1="103.25" x2="278.4375" y2="103.25" fill="rgb(0, 0, 0)" stroke="rgb(66, 66, 66)" stroke-width="1px" opacity="0.25"></line><line x1="0" y1="88.50000000000001" x2="278.4375" y2="88.50000000000001" fill="rgb(0, 0, 0)" stroke="rgb(66, 66, 66)" stroke-width="1px" opacity="0.25"></line><line x1="0" y1="73.75000000000001" x2="278.4375" y2="73.75000000000001" fill="rgb(0, 0, 0)" stroke="rgb(66, 66, 66)" stroke-width="1px" opacity="0.25"></line><line x1="0" y1="59.00000000000003" x2="278.4375" y2="59.00000000000003" fill="rgb(0, 0, 0)" stroke="rgb(66, 66, 66)" stroke-width="1px" opacity="0.25"></line><line x1="0" y1="44.25000000000002" x2="278.4375" y2="44.25000000000002" fill="rgb(0, 0, 0)" stroke="rgb(66, 66, 66)" stroke-width="1px" opacity="0.25"></line><line x1="0" y1="29.500000000000032" x2="278.4375" y2="29.500000000000032" fill="rgb(0, 0, 0)" stroke="rgb(66, 66, 66)" stroke-width="1px" opacity="0.25"></line><line x1="0" y1="14.750000000000007" x2="278.4375" y2="14.750000000000007" fill="rgb(0, 0, 0)" stroke="rgb(66, 66, 66)" stroke-width="1px" opacity="0.25"></line><line x1="0" y1="0" x2="278.4375" y2="0" fill="rgb(0, 0, 0)" stroke="rgb(66, 66, 66)" stroke-width="1px" opacity="0.25"></line></g></g></g><g><g><line x1="0" y1="236" x2="278.4375" y2="236" fill="rgb(0, 0, 0)" stroke="rgb(153, 153, 153)" stroke-width="1.5px"></line></g></g><g><g><line x1="30.9375" y1="0" x2="30.9375" y2="177" fill="rgb(0, 0, 0)" stroke="rgb(153, 153, 153)" stroke-width="1.5px"></line></g></g><g><g><g><g><g><path stroke="rgb(255, 112, 67)" stroke-width="2px" d="M31.55625,4.523916304111487L32.175,3.47659578580925L32.793749999999996,-13.093787574202967L33.4125,-7.875448640031685L34.03125,9.101264457848336L34.65,19.43345287515521L35.268750000000004,31.455941933648585L35.887499999999996,35.12787725495241L36.50625,33.401071848068334L37.125,37.13695238454703L37.743750000000006,44.26977358414089L38.3625,40.535669536381285L38.98125,37.19763381545437L39.6,35.36521392970842L40.21874999999999,37.08342239477847L40.8375,41.2386724494198L41.45625,41.46739582784269L42.075,43.719129017581125L42.693749999999994,46.761831782518684L43.3125,47.60918133297151L43.93125,54.19032624758228L44.550000000000004,53.65847851219181L45.168749999999996,59.04036798252046L45.7875,60.42189742406685L46.40625,65.19378259221813L47.025,64.52240981480065L47.64375,69.55228864805835L48.2625,74.11749116756427L48.88125,73.47396973705722L49.5,69.48796571411488L50.11875,73.594581257666L50.737500000000004,77.74193361662296L51.356249999999996,77.91322630389922L51.975,78.89436921853019L52.59375,83.21677208916303L53.212500000000006,87.31513716224853L53.83125,87.83551891616833L54.45,88.133468598096L55.06875,89.95251457416535L55.6875,92.606604291591L56.30625,94.28696001646288L56.925000000000004,98.59461867023175L57.54375,98.84631524047673L58.1625,99.99887669741582L58.78125,101.78846158703035L59.400000000000006,106.35409903038646L60.01875,109.57066126099448L60.637499999999996,116.986315262417L61.25625,115.98817915650024L61.875,115.14770974101218L62.49375,114.5916361617314L63.1125,113.68446299121831L63.73125,110.34885774394837L64.35,115.59463283415565L64.96875,116.24859155599256L65.58749999999999,116.31402807699614L66.20625,120.77400664150609L66.825,124.2497612560917L67.44375000000001,126.55051258949051L68.0625,125.34347911129144L68.68125,130.00823457738286L69.3,128.3826185395406L69.91875,124.3877485627065L70.53750000000001,123.302116435136L71.15625,125.02117893932117L71.77499999999999,112.62187050942914L72.39375,101.31453926988162L73.0125,86.69406425146056L73.63125,77.6521860113843L74.25,68.51545136033664L74.86875,61.868949744130596L75.48750000000001,51.788102395870474L76.10624999999999,49.89826163353318L76.725,44.90652517955272L77.34375,45.62003452180928L77.9625,46.38079125606097L78.58125,45.12498168904618L79.2,46.43187554398597L79.81875000000001,49.16340691750055L80.43749999999999,48.669652199978735L81.05624999999999,47.62815319681432L81.675,50.566023495270116L82.29375,54.116046345793556L82.9125,53.15984744533356L83.53125,57.14793158767539L84.15,58.17042447168843L84.76875000000001,58.21375616981042L85.38749999999999,56.83421411477862L86.00625,58.40405877031199L86.625,61.0940440843436L87.24375,60.14995736277413L87.8625,60.71190252448899L88.48125,61.975770274145596L89.10000000000001,69.22242344427109L89.71875,73.04391378011398L90.33749999999999,73.11847831003806L90.95625,71.85299559562135L91.575,74.78285729400993L92.19375000000001,75.49835290780409L92.8125,74.4967337519389L93.43125,77.94266475819626L94.05,82.78984282082341L94.66875,78.83801928688867L95.2875,77.02367493218887L95.90625,76.85308087940173L96.525,79.61428423259046L97.14375000000001,81.37686842201762L97.7625,75.52361810747504L98.38125,81.03070386571022L99,81.64827734061672L99.61874999999999,84.83697117843536L100.2375,84.9163061872947L100.85625,85.21339940494254L101.47500000000001,85.27353781335559L102.09374999999999,88.29266507888754L102.71249999999999,90.4137472157899L103.33125,90.53091293782073L103.95,94.99057656470755L104.56875,99.27481717058399L105.1875,96.54970291353416L105.80625,97.1790622446291L106.42500000000001,97.26829543914505L107.04374999999999,101.15105008757583L107.6625,101.97816089895348L108.28125,101.16523540033556L108.9,102.61773022697973L109.51875,102.50955900651311L110.1375,104.07399491160133L110.75625000000001,105.9464053689297L111.375,108.49426092003094L111.99374999999999,108.03151315947272L112.6125,112.42936889766226L113.23125,115.79345129877954L113.85000000000001,116.02889150412399L114.46875,116.84119150844106L115.0875,117.66509034065986L115.70625,117.26081691675685L116.325,122.51807264335064L116.94375,122.66740655110789L117.5625,125.39091758694516L118.18125,129.4492457769652L118.80000000000001,131.08917554992354L119.41875,129.15381701048497L120.0375,126.62594086647883L120.65625,125.92277602677073L121.27499999999999,125.37120917762172L121.89375,125.23340186638104L122.5125,124.82184382776958L123.13125000000001,128.92130441903498L123.75,129.38136231999187L124.36874999999999,129.57717491805317L124.9875,133.42242908050952L125.60625,134.3708556255631L126.225,136.738455953315L126.84375,133.72972652674147L127.4625,130.17243639655968L128.08125,131.65820197308213L128.7,129.64202316101995L129.31875,131.69095271358043L129.9375,134.84226295411176L130.55625,132.3207493252097L131.17499999999998,132.08011733733267L131.79375,128.6790302018652L132.4125,130.41616555396018L133.03125,127.83406201026477L133.65,128.69476382982322L134.26875,127.29801251388328L134.88750000000002,126.23547756204876L135.50625,127.45055542348466L136.125,121.94583698777004L136.74375,124.94556570773543L137.3625,126.55580635872549L137.98125000000002,126.65086283416929L138.6,129.17515402609553L139.21875,130.6837588234302L139.8375,130.00080916034483L140.45625,131.96710885923025L141.07500000000002,134.9398609011507L141.69375,136.25057704820097L142.3125,137.3411633292009L142.93125,137.1915204629306L143.54999999999998,136.56601924433537L144.16875,138.78174716207099L144.7875,138.8720244324988L145.40625,140.34125462176033L146.025,141.371065969897L146.64374999999998,143.12341179287122L147.2625,146.33201194089315L147.88125,143.27302243611476L148.5,145.27970074158648L149.11875,144.56404781028874L149.7375,145.6155033017463L150.35625000000002,148.64459423809436L150.97500000000002,144.97066053980788L151.59375,144.31050426605168L152.21249999999998,143.94200554081806L152.83124999999998,143.90401922858942L153.45,143.67390855454198L154.06875,143.71583876242332L154.6875,143.6549076577779L155.30625,145.52692037496826L155.925,146.27656700691247L156.54375,145.42638084260835L157.1625,148.0932715134758L157.78125,150.0632220168345L158.4,152.1357365378876L159.01875,154.0122585307993L159.63750000000002,156.67662746321847L160.25625000000002,154.99324591723263L160.87499999999997,155.54356149869895L161.49374999999998,153.99336032827742L162.11249999999998,155.4825446097049L162.73125,153.1222632659445L163.35,154.45600685525432L163.96875,153.2480028292339L164.5875,155.95660713614873L165.20625,153.84703196478847L165.825,153.4612305152234L166.44375,155.24435147831633L167.0625,155.1375031046701L167.68125,153.9256355828437L168.3,155.4851457415751L168.91875000000002,158.10341860525568L169.53750000000002,162.31724112904993L170.15625,160.64839257619806L170.77499999999998,158.69770932116646L171.39374999999998,161.5098533514413L172.0125,160.53657388589798L172.63125,161.98607315700065L173.25,161.02796822536672L173.86875,157.0455356612384L174.4875,159.74745720296676L175.10625000000002,158.56479980023215L175.725,156.57474672549392L176.34375,153.8892973316118L176.9625,147.13846046792733L177.58125,147.73283086582228L178.20000000000002,149.5595797694087L178.81875,151.7303808336843L179.4375,153.18230637507494L180.05624999999998,148.8293982782301L180.67499999999998,143.75969853251868L181.29375,141.7741938199873L181.9125,140.45947569062014L182.53125,138.87934281328756L183.15,139.34587325308956L183.76875,137.25003961295963L184.38750000000002,135.25085658213342L185.00625,135.14858648590334L185.625,135.62352644373993L186.24375,135.4850202804925L186.8625,139.60912906735481L187.48125,140.76109613513137L188.1,139.6783577488351L188.71875,138.7827697446874L189.3375,139.34748361619148L189.95624999999998,139.57502459776273L190.575,138.02015436512835L191.19375,135.50337859469198L191.8125,136.8953046942499L192.43125,137.97760632949675L193.05,142.64034673938338L193.66875000000002,141.521986311343L194.28750000000002,140.1283887289665L194.90625,136.71266862231388L195.525,140.71546347089404L196.14374999999998,141.9622854440112L196.7625,143.1290855980107L197.38125,141.93284937674164L198,139.92652658815558L198.61875,142.11801427998623L199.23749999999998,140.20117527367506L199.85625,140.38997764963707L200.475,141.2229999791967L201.09375,139.48300826506892L201.7125,139.87103245539143L202.33125,139.8347611523492L202.95000000000002,139.00883564067507L203.56875000000002,143.19200760051493L204.18749999999997,144.05259778537277L204.80624999999998,146.13827516191273L205.42499999999998,148.1730371122598L206.04375,147.33060824552177L206.6625,145.98222030852583L207.28125,147.34413618127834L207.9,149.25502985787233L208.51875,153.0730566950257L209.1375,148.93747194261874L209.75625,145.77428746708046L210.375,145.74377248561993L210.99375,145.86544551503476L211.6125,143.67393489512077L212.23125000000002,144.27146648700256L212.85000000000002,143.85534553191417L213.46875000000003,144.3788306717871L214.08749999999998,145.39655258108033L214.70624999999998,138.13003561503712L215.325,139.1674813297597L215.94375,141.18982998619637L216.5625,141.76679353477076L217.18125,140.44606025614772L217.8,145.78456610266272L218.41875000000002,147.32461859275648L219.0375,146.77567194224739L219.65625,148.6060302843547L220.275,147.50345616200337L220.89375,150.3432648924667L221.51250000000002,150.14536459930503L222.13125,154.36070458283697L222.75,153.78691714088393L223.36874999999998,152.62744984544L223.98749999999998,152.70661981698274L224.60625,154.018956020064L225.225,157.26025995086732L225.84375,154.1782297585477L226.4625,156.21527454240658L227.08125,155.3628798417777L227.70000000000002,158.1330887014498L228.31875,154.35529045465617L228.9375,154.43991445654933L229.55625,153.3682075114925L230.175,153.9406007209508L230.79375,155.96874200027443L231.4125,153.85274623088128L232.03125,156.0124222411127L232.65,156.59559963126543L233.26874999999998,159.58326141163954L233.8875,160.28518988506346L234.50625,160.78907763724527L235.125,161.20410389349007L235.74375,160.15893827816956L236.3625,160.5769329163672L236.98125000000002,161.24507624013867L237.60000000000002,162.27971589149095L238.21875,162.8606491897343L238.8375,162.9695687849678L239.45624999999998,160.294888078422L240.075,159.63851680569928L240.69375,162.93910579795423L241.3125,162.82215430539748L241.93125,163.7113583458642L242.54999999999998,165.57295959755277L243.16875,166.72884781379594L243.7875,165.49064320057283L244.40625,167.1654798853554L245.025,167.64810750344543L245.64375,170.20610487765592L246.26250000000002,171.38722931962434L246.88125000000002,173.40234789035472L247.5,171.36631980469926L248.11874999999998,171.39473612639287L248.73749999999998,171.6223171116208L249.35625,172.5098111417429L249.975,171.55082632519571L250.59375,171.94310094606945L251.2125,171.79298427981652L251.83125,172.91727876358019L252.45,170.180315786408L253.06875,169.40152472575434L253.6875,169.15495010071194L254.30625,172.0535786210935L254.925,172.16152404548032L255.54375000000002,169.45628129461969L256.1625,170.54624508645108L256.78125,170.46268578682933L257.4,168.79769120013646L258.01875,172.29261904917226" style="fill: none;" fill="none"></path></g><g><path stroke="rgb(0, 119, 187)" stroke-width="2px" d="M179.4375,114.29760864377025L253.6875,115.6474922415729" style="fill: none;" fill="none"></path></g><g><path stroke="rgb(204, 51, 17)" stroke-width="2px" d="M37.743750000000006,-5.589314357379676L38.3625,0.9236436605012166L38.98125,0.5963719223757313L39.6,-2.0090215032581638L40.21874999999999,2.723612269816571L40.8375,6.874654683336859L41.45625,8.233570451143288L42.075,8.726797937447634L42.693749999999994,10.38901747977772L43.3125,15.608455547197801L43.93125,15.927094263604332L44.550000000000004,17.42721983052234L45.168749999999996,20.27126346982003L45.7875,21.12008493313607L46.40625,20.92876993527228L47.025,21.64403867318266L47.64375,21.887638812236617L48.2625,20.4472030744994L48.88125,22.684238667894455L49.5,29.545280447219334L50.11875,33.707378830878746L50.737500000000004,34.10768305093912L51.356249999999996,36.81020514913302L51.975,38.70399804920564L52.59375,32.66720965174212L53.212500000000006,35.28700270308339L53.83125,32.407235968039984L54.45,35.98219985047487L55.06875,37.31413742426834L55.6875,41.601745510306465L56.30625,47.90359494929976L56.925000000000004,46.763648902666745L57.54375,48.368613137331884L58.1625,48.96812715925129L58.78125,49.038422569075706L59.400000000000006,49.019042285148444L60.01875,49.79037745814258L60.637499999999996,48.55137748380921L61.25625,46.96054072331503L61.875,48.41485799527153L62.49375,51.999118171378136L63.1125,53.71010973336749L63.73125,54.470145736188186L64.35,57.47668153369936L64.96875,53.46937371703057L65.58749999999999,55.97246876610761L66.20625,52.86195496421821L66.825,54.87670714539507L67.44375000000001,54.16713334358322L68.0625,56.59917432498541L68.68125,56.7592147480032L69.3,61.25462492667247L69.91875,61.72341349974811L70.53750000000001,65.44828300796065L71.15625,64.01405242689152L71.77499999999999,65.79293778510196L72.39375,70.14413171371862L73.0125,73.423299720836L73.63125,78.1433785254924L74.25,79.95653276447685L74.86875,79.94415347246027L75.48750000000001,78.63182428053699L76.10624999999999,76.37458645390603L76.725,79.15797948930125L77.34375,82.84000668989881L77.9625,82.8889960021075L78.58125,79.10155119850612L79.2,81.39520828616227L79.81875000000001,82.42555488230377L80.43749999999999,85.64098318600621L81.05624999999999,90.11461790580702L81.675,90.33205436892078L82.29375,92.27666466721342L82.9125,92.4482391612113L83.53125,97.30255356470661L84.15,99.0484562783436L84.76875000000001,100.90570129002656L85.38749999999999,103.84065773544202L86.00625,101.86035510353601L86.625,101.62095782273032L87.24375,98.66968263534653L87.8625,96.17029375312379L88.48125,100.61610789344546L89.10000000000001,98.81003755205441L89.71875,103.52404142924202L90.33749999999999,103.70113435667022L90.95625,105.71792061735292L91.575,103.48407550487819L92.19375000000001,106.14143088986339L92.8125,106.59987560089435L93.43125,104.07716107048675L94.05,109.14538854239707L94.66875,108.69099545592523L95.2875,111.26607785814205L95.90625,110.19286386056127L96.525,109.71957399112698L97.14375000000001,109.02971273166992L97.7625,104.95341966144703L98.38125,107.7262280674019L99,109.27872510489472L99.61874999999999,108.51235684517691L100.2375,106.86533891004424L100.85625,103.03838876075L101.47500000000001,104.526681664814L102.09374999999999,104.07480268132045L102.71249999999999,106.58605846600337L103.33125,104.71329875856422L103.95,105.7716044088668L104.56875,106.69316827488879L105.1875,108.66732682147097L105.80625,110.0591872388288L106.42500000000001,108.56052350116904L107.04374999999999,113.10151975331742L107.6625,116.73840160906767L108.28125,116.47599483563502L108.9,119.09313254271217L109.51875,120.5982790292196L110.1375,119.21988615395087L110.75625000000001,119.78554894137267L111.375,121.85891256533029L111.99374999999999,122.51109340820915L112.6125,121.18210799525203L113.23125,120.1520549580107L113.85000000000001,120.92664243229274L114.46875,122.10097207413233L115.0875,122.64855071960439L115.70625,119.84310541711284L116.325,122.33381690228666L116.94375,118.98438804680313L117.5625,121.1095514250671L118.18125,120.56401227777509L118.80000000000001,122.9697344613854L119.41875,123.21584229826519L120.0375,122.23863506186228L120.65625,122.82836939133503L121.27499999999999,124.64598977628458L121.89375,128.3112893630693L122.5125,128.8056488170988L123.13125000000001,105.49993447353886L123.75,108.39995465336122L124.36874999999999,110.5734327812323L124.9875,112.64071247102166L125.60625,114.25392037650518L126.225,117.9951312644387L126.84375,119.42984582841389L127.4625,120.57051038924737L128.08125,124.14302254940009L128.7,125.7801490417212L129.31875,128.8657323192979L129.9375,134.00707705522814L130.55625,135.95222745809548L131.17499999999998,138.2591488276533L131.79375,132.90465720036477L132.4125,130.36527263705588L133.03125,128.1476602444083L133.65,127.92745029325498L134.26875,126.98372078012625L134.88750000000002,123.96675455963506L135.50625,122.69412424873745L136.125,124.25033670114126L136.74375,124.65308725743125L137.3625,123.90821978252659L137.98125000000002,126.54719649205225L138.6,130.94294797387545L139.21875,129.3290966299073L139.8375,130.43922874834013L140.45625,130.84502125053982L141.07500000000002,125.92257093141704L141.69375,126.67825403971662L142.3125,126.44517601965204L142.93125,117.9546879681966L143.54999999999998,121.72076501893736L144.16875,124.59799024720357L144.7875,125.31914824235751L145.40625,124.73772228773696L146.025,126.00804658553814L146.64374999999998,127.95931009675535L147.2625,120.52508223182599L147.88125,124.14545218399562L148.5,124.74880729972693L149.11875,122.03400913128668L149.7375,124.3649285238942L150.35625000000002,125.71662801916376L150.97500000000002,130.19952035030505L151.59375,135.93953618993595L152.21249999999998,137.86218448039023L152.83124999999998,137.5250449319737L153.45,140.45122383521877L154.06875,137.6551914648129L154.6875,137.29427563264298L155.30625,140.65329189064389L155.925,139.79184532034483L156.54375,138.26450213278332L157.1625,137.15450495502935L157.78125,138.35783326816022L158.4,140.75205550569356L159.01875,140.8667739051698L159.63750000000002,141.4925336385426L160.25625000000002,141.1527122718986L160.87499999999997,138.958829522144L161.49374999999998,136.54342326965565L162.11249999999998,142.52525728896524L162.73125,143.41503746908006L163.35,147.59018911751647L163.96875,143.71509306707864L164.5875,143.95748724472557L165.20625,142.36948508384677L165.825,140.43663965251318L166.44375,139.92296414079914L167.0625,143.79250941487513L167.68125,144.39637939909375L168.3,147.37115544367896L168.91875000000002,147.2684805583062L169.53750000000002,147.15555817263757L170.15625,149.45461393161187L170.77499999999998,150.6371764465153L171.39374999999998,151.43229312464297L172.0125,153.72124213242836L172.63125,154.15392903151383L173.25,153.41092421585358L173.86875,155.01334792871305L174.4875,154.8660153628446L175.10625000000002,152.97883924695026L175.725,152.81536957135734L176.34375,154.36450220583586L176.9625,155.97871808010018L177.58125,156.3311435976168L178.20000000000002,155.0109229461322L178.81875,154.66805229169478L179.4375,156.2655442636887L180.05624999999998,156.74303278495339L180.67499999999998,155.16666908113294L181.29375,159.99468457163658L181.9125,159.47171947138384L182.53125,160.7025413444227L183.15,159.21155491129568L183.76875,157.5619012397696L184.38750000000002,157.78553850453886L185.00625,160.99507601680642L185.625,162.05978451801596" style="fill: none;" fill="none"></path></g><g><path stroke="rgb(0, 153, 136)" stroke-width="2px" d="M179.4375,114.95908623933792Z" style="fill: none;" fill="none"></path></g><g><path stroke="rgb(51, 187, 238)" stroke-width="2px" d="M31.55625,36.144266784191124L32.175,24.233247219382708L32.793749999999996,17.19490691729405L33.4125,13.59351739149961L34.03125,13.672403758757268L34.65,18.60738012024245L35.268750000000004,15.75053720535339L35.887499999999996,11.834397833836976L36.50625,20.871295499536576L37.125,26.06704097316795L37.743750000000006,25.633064912797668L38.3625,15.483000815729017L38.98125,16.042889787931156L39.6,11.754409536266426L40.21874999999999,11.416515356044362L40.8375,7.858038190594551L41.45625,2.302659213203863L42.075,3.7231776133364356L42.693749999999994,1.610890982664187L43.3125,11.07969524098596L43.93125,13.269138389553666L44.550000000000004,14.201690425706104L45.168749999999996,14.76333779805477L45.7875,14.203734284205206L46.40625,14.103393244342419L47.025,-3.4568669672296006L47.64375,0.3169058090164013L48.2625,3.1661650368024583L48.88125,10.835790879900532L49.5,13.443866095873409L50.11875,16.683616243455702L50.737500000000004,18.274847696807328L51.356249999999996,11.855166125216464L51.975,17.29188266748884L52.59375,22.02668327077382L53.212500000000006,22.55049771856303L53.83125,24.276907127315397L54.45,28.589109601827023L55.06875,33.70936801591648L55.6875,40.326178821641456L56.30625,45.027577716151164L56.925000000000004,46.239194734455026L57.54375,51.6492038733727L58.1625,51.292741147818965L58.78125,53.525477901606635L59.400000000000006,57.45931757808648L60.01875,60.67700766216447L60.637499999999996,59.38737440879749L61.25625,61.65186173831109L61.875,55.187029518315946L62.49375,57.075918750104435L63.1125,53.24458171682995L63.73125,51.27067482892585L64.35,55.14253658409836L64.96875,55.2806561062862L65.58749999999999,58.449806196232025L66.20625,60.04310951250234L66.825,55.922911197047576L67.44375000000001,59.58276969815663L68.0625,64.99675541786463L68.68125,65.28576403732714L69.3,69.23850582839128L69.91875,70.68484587466945L70.53750000000001,70.15811910176156L71.15625,70.41232774800127L71.77499999999999,72.01231364886782L72.39375,70.17143190421638L73.0125,70.67980632785675L73.63125,72.60754246328858L74.25,70.28222741475243L74.86875,69.1592457043697L75.48750000000001,72.2853755338756L76.10624999999999,72.62859543425047L76.725,76.44343811425503L77.34375,76.88168078481473L77.9625,78.6021737563604L78.58125,80.40600150764288L79.2,83.95172525854873L79.81875000000001,87.9692644408252L80.43749999999999,85.34885571515629L81.05624999999999,85.8504884965936L81.675,89.03558257075335L82.29375,79.48242557886378L82.9125,72.42250123725742L83.53125,74.63090085861604L84.15,77.09923271432947L84.76875000000001,79.45529313270397L85.38749999999999,77.43850265540291L86.00625,77.68286356626338L86.625,82.50645541997982L87.24375,82.9536547767744L87.8625,85.92257463439302L88.48125,86.72435063455166L89.10000000000001,87.3703896912086L89.71875,86.97337341389674L90.33749999999999,87.81257772232698L90.95625,85.76306800752675L91.575,89.55979523647504L92.19375000000001,85.11876820737271L92.8125,84.48730711293639L93.43125,81.0131839584471L94.05,83.14815347077668L94.66875,82.46147185763834L95.2875,87.39224906026047L95.90625,85.77542388732408L96.525,88.01375603100938L97.14375000000001,88.11442129454835L97.7625,89.99177993870829L98.38125,89.37097164873613L99,90.82947658822256L99.61874999999999,89.84821483771327L100.2375,91.71822001542519L100.85625,94.4012784623214L101.47500000000001,97.27536910587082L102.09374999999999,100.28792517007415L102.71249999999999,104.05068466186418L103.33125,103.41199433615346L103.95,98.45502126437677L104.56875,102.44897685235941L105.1875,104.87703304070918L105.80625,104.41700393862457L106.42500000000001,106.59122931263508L107.04374999999999,108.1124139569372L107.6625,102.600602309572L108.28125,98.91509741562807L108.9,96.48618641305586L109.51875,96.11941878761708L110.1375,95.8083446094962L110.75625000000001,96.13965995796605L111.375,92.76585916731698L111.99374999999999,97.25601014015514L112.6125,98.07371137008091L113.23125,101.08856679703403L113.85000000000001,99.69888530410502L114.46875,100.69761773596247L115.0875,98.12999560337609L115.70625,100.04622223683576L116.325,104.46849776655493L116.94375,105.18113840911865L117.5625,104.99833044007607L118.18125,106.54493887762668L118.80000000000001,109.68274748917027L119.41875,112.99148183451811L120.0375,114.31348177597836L120.65625,114.16384723690282L121.27499999999999,113.28192142214431L121.89375,116.87281810207297L122.5125,111.84631744010503L123.13125000000001,113.1053117458656L123.75,114.99269788153704L124.36874999999999,112.74847333016473L124.9875,112.15469093961423L125.60625,111.08863347654422L126.225,111.61680107688825L126.84375,108.99054511459707L127.4625,112.11248590326392L128.08125,114.82893582765051L128.7,118.06326424015974L129.31875,114.05939310830009L129.9375,114.53438366411214L130.55625,116.28517566609675L131.17499999999998,117.81640794693566L131.79375,115.1471812452181L132.4125,117.6088492599767L133.03125,119.78853506057422L133.65,125.08228071006818L134.26875,126.10077272788156L134.88750000000002,124.54261480971535L135.50625,122.08890618980772L136.125,122.900977111745L136.74375,123.18498776744583L137.3625,125.9786860983934L137.98125000000002,125.52091146415054L138.6,128.0056730726822L139.21875,126.20417816674052L139.8375,125.33213227326374L140.45625,125.30037571799258L141.07500000000002,123.97507298266466L141.69375,122.51804542291505L142.3125,123.69011682352605L142.93125,124.84829779087171L143.54999999999998,124.47465812729577L144.16875,126.05464913859292L144.7875,126.58403771980825L145.40625,127.00567763531265L146.025,128.04128629781306L146.64374999999998,130.78350328039068L147.2625,133.00551754544338L147.88125,136.39319988367697L148.5,136.01118557963144L149.11875,136.81406060202883L149.7375,133.6177813035588L150.35625000000002,129.7272954956045L150.97500000000002,128.5254517306841L151.59375,128.10128030874117L152.21249999999998,130.38896211017885L152.83124999999998,131.02035718749715L153.45,129.55283444452408L154.06875,128.1591449191646L154.6875,127.67396762712123L155.30625,128.01663603154168L155.925,123.8517833680685L156.54375,124.71893530674801L157.1625,125.24653391972292L157.78125,126.202091668329L158.4,125.00153217129166L159.01875,127.91647607479304L159.63750000000002,127.54221707476593L160.25625000000002,128.82050918920535L160.87499999999997,127.70294399400824L161.49374999999998,128.02999107296537L162.11249999999998,129.54601922665802L162.73125,131.99964218605004L163.35,133.17399838273036L163.96875,135.6073487802504L164.5875,137.08284291011822L165.20625,136.182799530256L165.825,133.60214368758565L166.44375,131.46223856083205L167.0625,130.80438491239116L167.68125,127.11214298577826L168.3,130.62681137098758L168.91875000000002,130.11704593283852L169.53750000000002,130.90295812399907L170.15625,132.96070625750204L170.77499999999998,131.91849863533963L171.39374999999998,135.45578655510403L172.0125,136.3397274912647L172.63125,138.57710330734085L173.25,140.3413143407208L173.86875,137.80467392696366L174.4875,135.17813943811439L175.10625000000002,135.64948074048374L175.725,134.36116869554385L176.34375,135.4905880196899L176.9625,130.76776058418164L177.58125,130.40210810391773L178.20000000000002,130.33281390942304L178.81875,129.24929646135087L179.4375,132.48526621339522L180.05624999999998,133.66801661235934L180.67499999999998,133.7706090370088L181.29375,134.55928946838145L181.9125,135.9784155667309L182.53125,135.67501092926355L183.15,132.83492301071743L183.76875,136.25652978506332L184.38750000000002,135.96514669306237L185.00625,134.82181968926037L185.625,135.92622720865774" style="fill: none;" fill="none"></path></g><g><path stroke="rgb(238, 51, 119)" stroke-width="2px" d="M179.4375,98.57403150200845Z" style="fill: none;" fill="none"></path></g></g></g></g><g opacity="0.2"><g><g><g><path stroke="rgb(255, 112, 67)" stroke-width="2px" d="M31.55625,4.523916304111487L32.175,2.5413385629654064L32.793749999999996,-41.10517555475235L33.4125,4.661980926990529L34.03125,60.68493700027467L34.65,56.695217549800894L35.268750000000004,80.91038441658021L35.887499999999996,51.89522123336794L36.50625,24.81755203008653L37.125,57.05622172355655L37.743750000000006,84.60137999057773L38.3625,18.346309125423453L38.98125,16.503413677215583L39.6,23.584272027015693L40.21874999999999,48.48244732618334L40.8375,69.56661379337312L41.45625,43.06409662961963L42.075,59.76715540885928L42.693749999999994,68.84388452768327L43.3125,53.8574022650719L43.93125,103.40307554602626L44.550000000000004,49.63201290369037L45.168749999999996,100.23143997788429L45.7875,71.09794950485231L46.40625,102.38509511947632L47.025,59.250186741352096L47.64375,109.31669703125954L48.2625,110.42334160208702L48.88125,68.32914894819261L49.5,37.470984816551244L50.11875,106.71808591485025L50.737500000000004,111.31822964549067L51.356249999999996,79.3045655488968L51.975,86.88721811771394L52.59375,118.52127483487129L53.212500000000006,120.867801964283L53.83125,92.10465243458749L54.45,90.58232820034029L55.06875,104.92799332737923L55.6875,114.48881021142007L56.30625,108.1591837704182L56.925000000000004,134.1982208788395L57.54375,100.92880523204806L58.1625,109.54383021593095L58.78125,116.62124222517014L59.400000000000006,144.2239332795143L60.01875,136.26818796992302L60.637499999999996,178.5727041065693L61.25625,107.69437617063525L61.875,108.16072231531145L62.49375,109.96694764494896L63.1125,106.13696432113649L63.73125,82.58801376819613L64.35,159.26604932546616L64.96875,121.69429069757463L65.58749999999999,116.85906609892845L66.20625,157.93023189902306L66.825,153.21187517046928L67.44375000000001,145.72502559423447L68.0625,115.2825147509575L68.68125,168.89553366601467L69.3,114.82918909192085L69.91875,91.07729128003122L70.53750000000001,114.24891149997711L71.15625,139.3578586578369L71.77499999999999,9.205893039703382L72.39375,6.9997075796127515L73.0125,-35.263259053230286L73.63125,2.2248554825782842L74.25,-7.7068825960159035L74.86875,6.418735444545759L75.48750000000001,-32.31732362508774L76.10624999999999,34.13060164451602L76.725,3.257280647754676L77.34375,51.5734631419182L77.9625,52.7286026477814L78.58125,34.6461812257767L79.2,57.337151229381575L79.81875000000001,71.95686197280887L80.43749999999999,44.549416661262526L81.05624999999999,38.93703347444537L81.675,75.08232361078264L82.29375,83.74104326963426L82.9125,45.18027281761172L83.53125,90.42918583750728L84.15,66.7033729553223L84.76875000000001,58.57537215948108L85.38749999999999,45.32144969701769L86.00625,71.50503969192506L86.625,83.54316002130511L87.24375,52.27110093832019L87.8625,65.40162330865861L88.48125,72.52343332767488L89.10000000000001,129.69987607002258L89.71875,104.9365212619305L90.33749999999999,73.7407652139664L90.95625,61.29173910617831L91.575,99.23446288704874L92.19375000000001,81.4696410894394L92.8125,66.13754010200502L93.43125,106.70134654641151L94.05,123.24295482039453L94.66875,45.857232570648215L95.2875,61.88166117668154L95.90625,75.42934900522235L96.525,102.65856048464778L97.14375000000001,96.08694291114809L97.7625,26.67386358976364L98.38125,126.99148318171503L99,86.80239593982698L99.61874999999999,111.4490499198437L100.2375,85.57841753959659L100.85625,87.69287055730821L101.47500000000001,85.77543920278552L102.09374999999999,113.4896176159382L102.71249999999999,108.11582317948344L103.33125,91.50875201821329L103.95,132.20994612574577L104.56875,135.03015166521072L105.1875,73.80649185180667L105.80625,102.43155917525293L106.42500000000001,98.0130164921284L107.04374999999999,133.5556893646717L107.6625,108.8810514509678L108.28125,94.38073179125787L108.9,114.73994469642642L109.51875,101.60678482055665L110.1375,117.13044783473018L110.75625000000001,121.57315006852151L111.375,129.75812977552414L111.99374999999999,104.16951707005502L112.6125,149.13295528292656L113.23125,143.86938220262527L113.85000000000001,117.99382647871971L114.46875,123.62047857046127L115.0875,124.54117900133133L115.70625,113.88683474063873L116.325,166.3940398991108L116.94375,123.91371643543243L117.5625,148.12077736854553L118.18125,163.31921397149563L118.80000000000001,144.77569064497948L119.41875,113.00171425938606L120.0375,105.52880829572679L120.65625,120.05430734157565L121.27499999999999,120.76794600486757L121.89375,124.08329045772554L122.5125,121.38706526160243L123.13125000000001,163.134557813406L123.75,133.2209107875824L124.36874999999999,131.21138653159142L124.9875,165.51412849128246L125.60625,142.28622829914093L126.225,156.4979608952999L126.84375,108.61949002742769L127.4625,100.48402509093286L128.08125,144.05809572339058L128.7,112.81540966033938L129.31875,148.79089719057083L129.9375,161.14244988560677L130.55625,111.27671530842784L131.17499999999998,130.07185226678848L131.79375,100.29425656795503L132.4125,144.9139398932457L133.03125,106.28435692191124L133.65,135.87800419330597L134.26875,115.64101329445839L134.88750000000002,117.36777937412263L135.50625,137.59134536981583L136.125,76.00458896160129L136.74375,149.98068472743034L137.3625,139.9945437014103L137.98125000000002,127.44418463110925L138.6,150.24236923456192L139.21875,143.27426424622536L139.8375,124.30105170607567L140.45625,148.3774418234825L141.07500000000002,159.74983817338943L141.69375,147.18954449892044L142.3125,146.44297218322754L142.93125,135.9426318705082L143.54999999999998,131.3457146883011L144.16875,157.27375677227974L144.7875,139.62545996904373L145.40625,152.6031476855278L146.025,149.96565973758698L146.64374999999998,157.74812972545624L147.2625,173.11032904684544L147.88125,117.74332499504092L148.5,162.02702528238297L149.11875,138.5913555920124L149.7375,154.39073464274406L150.35625000000002,173.92476437985897L150.97500000000002,114.30876529216769L151.59375,138.8009757399559L152.21249999999998,140.86659094691277L152.83124999999998,143.5869932770729L153.45,141.7534521818161L154.06875,144.0657796561718L154.6875,143.1463891863823L155.30625,161.1503536105156L155.925,152.53296366333961L156.54375,138.33090192079544L157.1625,170.35059271752834L157.78125,166.50402387976646L158.4,169.43251660466194L159.01875,169.6733252555132L159.63750000000002,178.91290275752544L160.25625000000002,140.9440896511078L160.87499999999997,160.13638219237328L161.49374999999998,141.05570009350777L162.11249999999998,167.91097043454647L162.73125,133.42384046316147L163.35,165.5871566236019L163.96875,143.16624960303307L164.5875,178.56206177175045L165.20625,136.24095132946968L165.825,150.24141094088554L166.44375,170.12591241300106L167.0625,154.2457685470581L167.68125,143.81163841485977L168.3,168.50049687922L168.91875000000002,179.954985588789L169.53750000000002,197.48493751883507L170.15625,146.7205256819725L170.77499999999998,142.41770794987679L171.39374999999998,184.97942923009396L172.0125,152.41378358006477L172.63125,174.08329604566097L173.25,153.03182145953178L173.86875,123.80897229909897L174.4875,182.29713885486126L175.10625000000002,148.69458428025246L175.725,139.9661729335785L176.34375,131.4770888388157L176.9625,90.79736402630807L177.58125,152.69332399964333L178.20000000000002,164.80525052547455L178.81875,169.8474401831627L179.4375,165.29977841675282L180.05624999999998,112.50092229247095L180.67499999999998,101.44902682304385L181.29375,125.20357972383499L181.9125,129.48710849881172L182.53125,125.69187870621683L183.15,143.23944038152695L183.76875,119.75864297151568L184.38750000000002,118.56608605384827L185.00625,134.29506129026413L185.625,139.58727768063545L186.24375,134.32907631993294L186.8625,174.02809305489063L187.48125,150.37517642974854L188.1,130.6420457959175L188.71875,131.30837640166283L189.3375,144.06046947836876L189.95624999999998,141.474034845829L190.575,125.04352709650995L191.19375,114.49888548254968L191.8125,148.51203373074532L192.43125,147.01027324795723L193.05,181.55461950600147L193.66875000000002,132.18838012218475L194.28750000000002,128.49770984053612L194.90625,108.20577090978624L195.525,174.12196627259254L196.14374999999998,152.36800527572632L196.7625,152.86695978045464L197.38125,131.94930782914162L198,123.1821691095829L198.61875,160.40771996974945L199.23749999999998,124.20363104343414L199.85625,141.9656834602356L200.475,148.175233066082L201.09375,124.96139517426492L201.7125,143.1094025671482L202.33125,139.5320483148098L202.95000000000002,132.1158311367035L203.56875000000002,178.1039006859064L204.18749999999997,151.23490652441978L204.80624999999998,163.54490971565247L205.42499999999998,165.15474198758602L206.04375,140.29987013339996L206.6625,134.72885182499886L207.28125,158.71040603518486L207.9,165.2029555886984L208.51875,184.93752366304398L209.1375,114.42273190617564L209.75625,119.37500020861627L210.375,145.4891007244587L210.99375,146.88090360164642L211.6125,125.38403785228729L212.23125000000002,149.2583422958851L212.85000000000002,140.38248559832573L213.46875000000003,148.74773001670837L214.08749999999998,153.8902503848076L214.70624999999998,77.48517906665805L215.325,147.8257899582386L215.94375,158.0679360628128L216.5625,146.58201268315315L217.18125,129.4234918653965L217.8,190.33863826096058L218.41875000000002,160.17758002877235L219.0375,142.19427606463432L219.65625,163.88182467222214L220.275,138.30159923434258L220.89375,174.0437246710062L221.51250000000002,148.49372944235802L222.13125,189.54106537997723L222.75,148.99820512533188L223.36874999999998,142.95077419281006L223.98749999999998,153.36735612154007L224.60625,164.971444144845L225.225,184.31151612102985L225.84375,128.4562394618988L226.4625,173.21603147685528L227.08125,148.24896892905235L227.70000000000002,181.25268226861954L228.31875,122.82656303048134L228.9375,155.14616897702217L229.55625,144.42396169900894L230.175,158.71767675876617L230.79375,172.89519211649895L231.4125,136.19308060407639L232.03125,174.03663417696953L232.65,161.46267822384834L233.26874999999998,184.51767234504223L233.8875,166.14334060251713L234.50625,164.99442121386528L235.125,164.66782769560814L235.74375,151.43620094656944L236.3625,164.0654302239418L236.98125000000002,166.82126304507256L237.60000000000002,170.914605692029L238.21875,167.70899905264378L238.8375,163.87858933210373L239.45624999999998,137.97255283594131L240.075,154.16057711839676L240.69375,190.4851429015398L241.3125,161.84610119462013L241.93125,171.1324724406004L242.54999999999998,181.10950088500977L243.16875,176.3756532073021L243.7875,155.15684208273888L244.40625,181.14332249760628L245.025,171.67601837217808L245.64375,191.5546250194311L246.88125000000002,190.220113158226L247.5,154.37404802441597L248.11874999999998,171.63189290463924L248.73749999999998,173.52166122198105L249.35625,179.91665384173393L249.975,163.54733622074127L250.59375,175.21694427728653L251.2125,170.54014144837856L251.83125,182.30040936172009L252.45,147.33818551898003L253.06875,162.90189465880394L253.6875,167.0970889776945L254.30625,196.24493627250195L254.925,173.06241436302662L255.54375000000002,146.87888151407242L256.1625,179.6428587883711L256.78125,169.76531705260277L257.4,154.9019887149334L258.01875,201.4605682939291" style="fill: none;" fill="none"></path></g><g><path stroke="rgb(0, 119, 187)" stroke-width="2px" d="M179.4375,114.29760864377025L253.6875,116.85293829441072" style="fill: none;" fill="none"></path></g><g><path stroke="rgb(204, 51, 17)" stroke-width="2px" d="M32.793749999999996,-63.9244689941406L33.4125,30.651380181312582L34.03125,15.306144416332252L34.65,-34.70361554622649L36.50625,-0.7980599403381217L37.125,7.329430937767035L37.743750000000006,13.322265505790718L38.3625,39.62593233585361L38.98125,-1.4325558543205261L39.6,-18.75954294204712L40.21874999999999,34.1210890412331L40.8375,35.173910915851614L41.45625,17.72005981206896L42.075,12.242013573646565L42.693749999999994,22.45237773656845L43.3125,54.095762431621566L43.93125,18.30982363224031L44.550000000000004,28.784237265586853L45.168749999999996,42.03856414556507L45.7875,27.679526865482337L46.40625,19.437691330909736L47.025,27.260972321033478L47.64375,23.81345367431642L48.2625,8.991797924041755L48.88125,40.56887573003771L49.5,84.65557193756105L50.11875,67.27840191125873L50.737500000000004,37.34848147630694L51.356249999999996,58.761667966842666L51.975,54.13172042369845L52.59375,-16.64004349708557L53.212500000000006,56.734832882881186L53.83125,8.782063484191902L54.45,65.36496198177339L55.06875,48.27944731712344L55.6875,76.95184028148653L56.30625,99.92868950963023L56.925000000000004,37.34178221225741L57.54375,61.64778476953508L58.1625,53.93301075696947L58.78125,49.621058464050314L59.400000000000006,48.85829186439516L60.01875,56.192473828792586L60.637499999999996,38.26158589124682L61.25625,33.74181574583057L61.875,60.50488328933718L62.49375,81.80827921628953L63.1125,67.94521605968478L63.73125,60.79560673236848L64.35,82.5062862634659L64.96875,20.09938871860505L65.58749999999999,76.82140684127809L66.20625,26.94816416501999L66.825,71.6648549437523L67.44375000000001,48.253529429435744L68.0625,76.8709216117859L68.68125,58.093376815319075L69.3,98.73470833897592L69.91875,65.63231712579729L70.53750000000001,96.51037684082988L71.15625,52.05282098054889L71.77499999999999,80.62966591119769L72.39375,106.43758720159532L73.0125,100.77662116289142L73.63125,117.51826664805415L74.25,95.08259838819505L74.86875,79.84087592363359L75.48750000000001,67.68294250965121L76.10624999999999,57.541593074798605L76.725,102.3816048204899L77.34375,113.56236001849176L77.9625,83.29776650667193L78.58125,47.49813026189806L79.2,100.53445419669153L79.81875000000001,91.02335429191591L80.43749999999999,112.47277131676677L81.05624999999999,127.44628584384918L81.675,92.14654481410983L82.29375,108.50446841120721L82.9125,93.88004532456401L83.53125,137.81264966726303L84.15,113.61843338608743L84.76875000000001,116.40496677160263L85.38749999999999,128.3339031636715L86.00625,85.33393836021425L86.625,99.62308174371722L87.24375,74.03987592458726L87.8625,75.31161075830462L88.48125,137.7188423871994L89.10000000000001,83.73735076189043L89.71875,142.86520472168922L90.33749999999999,105.17908385396004L90.95625,122.54928207397461L91.575,84.84118199348453L92.19375000000001,128.3188342154026L92.8125,110.42590877413753L93.43125,83.02336043119433L94.05,151.44331341981888L94.66875,104.89876097440721L95.2875,132.7569999396801L95.90625,101.2361097931862L96.525,105.76962134242058L97.14375000000001,103.27230802178386L97.7625,70.93370324373247L98.38125,130.86740306019783L99,122.23548924922943L99.61874999999999,102.11643001437189L100.2375,93.11971402168275L100.85625,71.0995495915413L101.47500000000001,116.94763353466988L102.09374999999999,100.30352300405502L102.71249999999999,127.54443621635438L103.33125,89.08366239070895L103.95,114.60399007797243L104.56875,114.38433861732484L105.1875,125.1432248055935L105.80625,121.67535340785982L106.42500000000001,96.05299821496011L107.04374999999999,150.99970257282257L107.6625,147.09104245901108L108.28125,114.28600361943248L108.9,140.93521004915237L109.51875,133.15991407632828L110.1375,107.71610921621325L110.75625000000001,124.50645184516908L111.375,139.16277116537094L111.99374999999999,127.95405840873718L112.6125,110.09067302942276L113.23125,111.55544689297679L113.85000000000001,127.3911883533001L114.46875,131.90168327093124L115.0875,127.21852844953537L115.70625,96.42944058775903L116.325,143.12077900767326L116.94375,91.0307480990887L117.5625,138.84572541713715L118.18125,116.01105532050133L118.80000000000001,143.0473948121071L119.41875,125.26980748772621L120.0375,114.08306515216827L120.65625,127.75017043948174L121.27499999999999,139.81547465920448L121.89375,158.90112406015396L122.5125,132.93147093057632L123.13125000000001,-89.00475525856014L123.75,132.602925658226L124.36874999999999,128.71283358335495L124.9875,129.89380306005478L125.60625,127.71742141246796L126.225,149.21850717067719L126.84375,131.4036782681942L127.4625,130.09026205539703L128.08125,153.9584738612175L128.7,139.44326987862587L129.31875,154.61737549304962L129.9375,176.91568246483803L130.55625,152.18605256080627L131.17499999999998,157.51224002242088L131.79375,88.21717149019243L132.4125,109.17209139466289L133.03125,109.6399233341217L133.65,126.08962333202362L134.26875,119.10754835605624L134.88750000000002,98.7877749502659L135.50625,112.07301339507104L136.125,137.23816579580307L136.74375,128.01436057686806L137.3625,117.69170901179317L137.98125000000002,148.5715534389019L138.6,167.6289859265089L139.21875,115.86022517085078L139.8375,139.70416313409805L140.45625,134.23168203234673L141.07500000000002,84.84081274271014L141.69375,132.98502987623215L142.3125,124.49995478987694L142.93125,47.09482049942018L143.54999999999998,153.15166971087456L144.16875,148.61072039604187L144.7875,131.33778458833694L145.40625,119.8852608203888L146.025,136.60991197824478L146.64374999999998,144.24415415525436L147.2625,58.480545043945334L147.88125,154.36031541228294L148.5,129.78428503870964L149.11875,99.37686181068422L149.7375,143.81830251216888L150.35625000000002,136.9976340830326L150.97500000000002,167.61281801760197L151.59375,183.84452818334103L152.21249999999998,153.90821179747581L152.83124999999998,134.71134757995605L153.45,164.87251131236553L154.06875,114.32008019089702L154.6875,134.2821463048458L155.30625,168.6869509369135L155.925,132.60238936543465L156.54375,125.51760992407799L157.1625,127.89069673418999L157.78125,148.400563955307L158.4,160.7337420284748L159.01875,141.82419008016586L159.63750000000002,146.71499571204185L160.25625000000002,138.31663301587105L160.87499999999997,120.6491351723671L161.49374999999998,116.38493931293489L162.11249999999998,192.4484141021967L162.73125,150.84095990657806L163.35,182.4351463317871L163.96875,111.37433817982675L164.5875,145.98045921325684L165.20625,129.11634555459023L165.825,124.30550909042358L166.44375,135.63593393564224L167.0625,176.08693866431713L167.68125,149.43615412712097L168.3,172.19802467525005L168.91875000000002,146.41157707571983L169.53750000000002,146.213131159544L170.15625,168.64206059277058L170.77499999999998,160.5066000521183L171.39374999999998,158.06817343831062L172.0125,172.82433992624283L172.63125,157.76504492759705L173.25,147.2099587917328L173.86875,168.38684676587582L174.4875,153.6364080607891L175.10625000000002,137.22885540127754L175.725,151.45108526945114L176.34375,167.29324465990067L176.9625,169.4506318718195L177.58125,159.27241450548172L178.20000000000002,143.99263283610344L178.81875,151.80652430653572L179.4375,169.5978838056326L180.05624999999998,160.72805380821228L180.67499999999998,142.01066172122955L181.29375,200.28830917924643L181.9125,155.10716027021408L182.53125,170.97472763061523L183.15,146.76808869838715L183.76875,143.79423087835312L184.38750000000002,159.6519691348076L185.00625,187.78121618926525L185.625,170.94562275707722" style="fill: none;" fill="none"></path></g><g><path stroke="rgb(0, 153, 136)" stroke-width="2px" d="M179.4375,114.95908623933792Z" style="fill: none;" fill="none"></path></g><g><path stroke="rgb(51, 187, 238)" stroke-width="2px" d="M31.55625,36.14426678419117L32.175,13.59670674800874L32.793749999999996,5.29695159196855L33.4125,4.940923511981984L34.03125,13.912099659442914L34.65,36.40476441383365L35.268750000000004,3.998929619789137L35.887499999999996,-6.048067450523363L36.50625,65.7914642095566L37.125,53.770135998725905L37.743750000000006,23.179203927516944L38.3625,-44.832252204418154L38.98125,19.513932824134848L39.6,-15.816965937614428L40.21874999999999,9.174840807914741L40.8375,-16.40147233009336L41.45625,-36.4790260195732L42.075,13.847164273262036L42.693749999999994,-13.718777537345874L43.3125,80.90115314722063L43.93125,29.64144414663318L44.550000000000004,21.261772572994246L45.168749999999996,19.06198745965959L45.7875,9.879283368587513L46.40625,13.321351170539868L47.025,-141.3558288812637L47.64375,30.150992631912253L48.2625,25.825571477413185L48.88125,72.15286380052568L49.5,34.392840027809164L50.11875,42.81508094072344L50.737500000000004,31.157200992107413L51.356249999999996,-40.28923684358597L51.975,61.58191746473315L52.59375,60.69956636428836L53.212500000000006,26.838883519172683L53.83125,38.44010984897617L54.45,64.03126335144046L55.06875,75.8624098300934L55.6875,94.87987971305849L56.30625,83.8401079773903L56.925000000000004,56.253435373306296L57.54375,96.41060000658038L58.1625,48.340690195560484L58.78125,72.03127479553224L59.400000000000006,90.08868387341502L60.01875,87.38389557600024L60.637499999999996,48.67707765102389L61.25625,80.4681450724602L61.875,1.4436087608337533L62.49375,72.7852145433426L63.1125,21.368626713752768L63.73125,34.84267538785937L64.35,87.37603580951694L64.96875,56.430816411972074L65.58749999999999,84.84649217128755L66.20625,73.31697082519534L66.825,21.59089809656144L67.44375000000001,90.08411219716074L68.0625,110.12385284900665L68.68125,67.69505745172502L69.3,102.1941397190094L69.91875,82.74487501382829L70.53750000000001,65.7656869888306L71.15625,72.53238326311113L71.77499999999999,85.35693740844728L72.39375,54.81657510995867L73.0125,74.92043352127077L73.63125,88.68871352076532L74.25,50.88350927829745L74.86875,59.79047095775607L75.48750000000001,98.36696094274522L76.10624999999999,75.49220955371858L76.725,108.27310642600061L77.34375,80.53832030296327L77.9625,92.95809647440912L78.58125,95.45760771632196L79.2,113.53874555230144L79.81875000000001,121.49390181899071L80.43749999999999,63.48232811689378L81.05624999999999,90.03652280569078L81.675,115.61494594812395L82.29375,-0.2388208508491516L82.9125,13.506732642650611L83.53125,93.06037893891336L84.15,97.69805437326433L84.76875000000001,99.11732247471811L85.38749999999999,60.60767567157748L86.00625,79.72215300798419L86.625,122.76146060228348L87.24375,86.68574786186221L87.8625,110.69973459839824L88.48125,93.41560697555545L89.10000000000001,92.76195397973063L89.71875,83.6600366830826L90.33749999999999,94.81625428795817L90.95625,68.65860855579379L91.575,121.24595871567729L92.19375000000001,48.055435180664084L92.8125,79.21733444929126L93.43125,52.019219160079984L94.05,100.96597647666933L94.66875,76.73062390089036L95.2875,128.5431452691555L95.90625,72.28183782100679L96.525,106.69428682327273L97.14375000000001,88.95454770326616L97.7625,105.65974286198616L98.38125,84.18985879421236L99,103.0018054544926L99.61874999999999,81.65883815288545L100.2375,107.32484406232835L100.85625,116.79346254467966L101.47500000000001,121.26187166571619L102.09374999999999,125.43003594875336L102.71249999999999,135.45383176207542L103.33125,98.08162680268289L103.95,57.085216701030745L104.56875,135.78165611624718L105.1875,125.14106205105783L105.80625,100.57770049571994L106.42500000000001,124.73684674501419L107.04374999999999,120.80789542198184L107.6625,56.60019701719287L108.28125,68.15665608644487L108.9,76.21500915288928L109.51875,93.0584535598755L110.1375,93.21218496561052L110.75625000000001,98.90474832057954L111.375,64.60882431268695L111.99374999999999,134.72987166047096L112.6125,104.89807522296907L113.23125,126.24992212653162L113.85000000000001,88.10089266300203L114.46875,109.03283110260966L115.0875,76.70115417242053L115.70625,116.03865242004397L116.325,141.37589326500893L116.94375,111.12868970632553L117.5625,103.47265294194224L118.18125,119.45261320471766L118.80000000000001,135.87024992704391L119.41875,140.60549548268318L120.0375,125.3466204404831L120.65625,112.915028244257L121.27499999999999,105.92155045270923L121.89375,146.84170147776604L122.5125,69.89617890119555L123.13125000000001,123.61261880397797L123.75,130.744433760643L124.36874999999999,94.01863744854928L124.9875,107.19910538196567L125.60625,102.19153738021853L126.225,116.02477914094928L126.84375,87.07235342264178L127.4625,138.16756120324135L128.08125,137.49986788630486L128.7,145.05630365014076L129.31875,80.64390844106677L129.9375,118.49855712056161L130.55625,130.8969255387783L131.17499999999998,130.595757573843L131.79375,92.87036424875261L132.4125,138.15342417359352L133.03125,137.9797444343567L133.65,169.26279312372208L134.26875,134.60089763998985L134.88750000000002,111.53854927420618L135.50625,101.61075866222384L136.125,129.67835402488708L136.74375,125.55528229475023L137.3625,149.29431787133217L137.98125000000002,121.70041850209236L138.6,148.742982506752L139.21875,111.16927212476732L139.8375,118.05421656370164L140.45625,125.03534203767776L141.07500000000002,112.91436886787417L141.69375,110.35799300670627L142.3125,133.471983730793L142.93125,134.51423799991608L143.54999999999998,121.35633832216266L144.16875,139.2409292459488L144.7875,131.00220596790314L145.40625,130.52459767460823L146.025,136.68426325917244L146.64374999999998,153.66948238015175L147.2625,151.5499917268753L147.88125,164.66610012948513L148.5,132.8229727447033L149.11875,143.51469045877457L149.7375,106.94229146838191L150.35625000000002,97.25810086727144L150.97500000000002,118.49511078000069L151.59375,124.56123283505441L152.21249999999998,149.4814840555191L152.83124999999998,136.2898506820202L153.45,117.30519136786462L154.06875,116.52769869565967L154.6875,123.62477770447731L155.30625,130.87647607922554L155.925,89.09277936816217L156.54375,131.95600709319115L157.1625,129.64976346492767L157.78125,134.17698016762733L158.4,114.9819094538689L159.01875,152.24399855732918L159.63750000000002,124.41872841119768L160.25625000000002,139.48887234926224L160.87499999999997,118.37597465515137L161.49374999999998,130.75945875048637L162.11249999999998,142.1984784901142L162.73125,152.47707492113113L163.35,142.97493374347687L163.96875,155.91559088230133L164.5875,149.39701354503632L165.20625,128.67122253775597L165.825,112.06452062726022L166.44375,113.60303035378458L167.0625,125.31407362222672L167.68125,96.29745101928714L168.3,159.95951107144356L168.91875000000002,125.8626483976841L169.53750000000002,137.46201968193054L170.15625,150.13424909114838L170.77499999999998,123.22044810652733L171.39374999999998,164.9772642403841L172.0125,143.7169167995453L172.63125,157.24978184700012L173.25,155.06505689024925L173.86875,116.63439458608629L174.4875,113.25762262940408L175.10625000000002,139.58319833874702L175.725,123.60918125510216L176.34375,144.91648948192596L176.9625,91.35201385617258L177.58125,127.35044768452646L178.20000000000002,129.75449880957603L178.81875,120.20648261904716L179.4375,159.49200442433357L180.05624999999998,143.53900825977325L180.67499999999998,134.62682431936264L181.29375,141.1414541900158L181.9125,147.8221502006054L182.53125,133.1428582072258L183.15,109.13213318586352L183.76875,164.81255641579628L184.38750000000002,133.5333233177662L185.00625,125.27984759211542L185.625,145.14338529109955" style="fill: none;" fill="none"></path></g><g><path stroke="rgb(238, 51, 119)" stroke-width="2px" d="M179.4375,98.57403150200845Z" style="fill: none;" fill="none"></path></g></g></g></g></g></g><g transform="translate(51, 177)" clip-path="url(#clip_1)"><clipPath id="clip_1"><rect width="278" height="23"></rect></clipPath><g><g><line x1="0" y1="0" x2="0" y2="5" style="visibility: inherit;" fill="rgb(0, 0, 0)" stroke="rgb(204, 204, 204)" stroke-width="1px"></line><line x1="30.9375" y1="0" x2="30.9375" y2="5" style="visibility: inherit;" fill="rgb(0, 0, 0)" stroke="rgb(204, 204, 204)" stroke-width="1px"></line><line x1="61.875" y1="0" x2="61.875" y2="5" style="visibility: inherit;" fill="rgb(0, 0, 0)" stroke="rgb(204, 204, 204)" stroke-width="1px"></line><line x1="92.8125" y1="0" x2="92.8125" y2="5" style="visibility: inherit;" fill="rgb(0, 0, 0)" stroke="rgb(204, 204, 204)" stroke-width="1px"></line><line x1="123.75" y1="0" x2="123.75" y2="5" style="visibility: inherit;" fill="rgb(0, 0, 0)" stroke="rgb(204, 204, 204)" stroke-width="1px"></line><line x1="154.6875" y1="0" x2="154.6875" y2="5" style="visibility: inherit;" fill="rgb(0, 0, 0)" stroke="rgb(204, 204, 204)" stroke-width="1px"></line><line x1="185.625" y1="0" x2="185.625" y2="5" style="visibility: inherit;" fill="rgb(0, 0, 0)" stroke="rgb(204, 204, 204)" stroke-width="1px"></line><line x1="216.5625" y1="0" x2="216.5625" y2="5" style="visibility: inherit;" fill="rgb(0, 0, 0)" stroke="rgb(204, 204, 204)" stroke-width="1px"></line><line x1="247.5" y1="0" x2="247.5" y2="5" style="visibility: inherit;" fill="rgb(0, 0, 0)" stroke="rgb(204, 204, 204)" stroke-width="1px"></line><line x1="278.4375" y1="0" x2="278.4375" y2="5" style="visibility: inherit;" fill="rgb(0, 0, 0)" stroke="rgb(204, 204, 204)" stroke-width="1px"></line></g><g transform="translate(0, 8)"><text x="0" y="0" dx="0em" dy="0.95em" style="text-anchor: middle; visibility: hidden; font-family: Roboto, sans-serif; font-size: 12px; font-weight: 200;" fill="rgb(33, 33, 33)" stroke="none" stroke-width="1px">-5k</text><text x="30.9375" y="0" dx="0em" dy="0.95em" style="text-anchor: middle; visibility: inherit; font-family: Roboto, sans-serif; font-size: 12px; font-weight: 200;" fill="rgb(33, 33, 33)" stroke="none" stroke-width="1px">0</text><text x="61.875" y="0" dx="0em" dy="0.95em" style="text-anchor: middle; visibility: inherit; font-family: Roboto, sans-serif; font-size: 12px; font-weight: 200;" fill="rgb(33, 33, 33)" stroke="none" stroke-width="1px">5k</text><text x="92.8125" y="0" dx="0em" dy="0.95em" style="text-anchor: middle; visibility: inherit; font-family: Roboto, sans-serif; font-size: 12px; font-weight: 200;" fill="rgb(33, 33, 33)" stroke="none" stroke-width="1px">10k</text><text x="123.75" y="0" dx="0em" dy="0.95em" style="text-anchor: middle; visibility: inherit; font-family: Roboto, sans-serif; font-size: 12px; font-weight: 200;" fill="rgb(33, 33, 33)" stroke="none" stroke-width="1px">15k</text><text x="154.6875" y="0" dx="0em" dy="0.95em" style="text-anchor: middle; visibility: inherit; font-family: Roboto, sans-serif; font-size: 12px; font-weight: 200;" fill="rgb(33, 33, 33)" stroke="none" stroke-width="1px">20k</text><text x="185.625" y="0" dx="0em" dy="0.95em" style="text-anchor: middle; visibility: inherit; font-family: Roboto, sans-serif; font-size: 12px; font-weight: 200;" fill="rgb(33, 33, 33)" stroke="none" stroke-width="1px">25k</text><text x="216.5625" y="0" dx="0em" dy="0.95em" style="text-anchor: middle; visibility: inherit; font-family: Roboto, sans-serif; font-size: 12px; font-weight: 200;" fill="rgb(33, 33, 33)" stroke="none" stroke-width="1px">30k</text><text x="247.5" y="0" dx="0em" dy="0.95em" style="text-anchor: middle; visibility: inherit; font-family: Roboto, sans-serif; font-size: 12px; font-weight: 200;" fill="rgb(33, 33, 33)" stroke="none" stroke-width="1px">35k</text><text x="278.4375" y="0" dx="0em" dy="0.95em" style="text-anchor: middle; visibility: hidden; font-family: Roboto, sans-serif; font-size: 12px; font-weight: 200;" fill="rgb(33, 33, 33)" stroke="none" stroke-width="1px">40k</text></g><line x1="0" y1="0" x2="278.4375" y2="0" fill="rgb(0, 0, 0)" stroke="rgb(204, 204, 204)" stroke-width="1px"></line></g></g></g></g></svg>